G04 #@! TF.GenerationSoftware,KiCad,Pcbnew,5.99.0-unknown-r17607-a0698723*
G04 #@! TF.CreationDate,2020-04-07T09:51:29-05:00*
G04 #@! TF.ProjectId,pcb_dip,7063625f-6469-4702-9e6b-696361645f70,rev?*
G04 #@! TF.SameCoordinates,Original*
G04 #@! TF.FileFunction,Legend,Top*
G04 #@! TF.FilePolarity,Positive*
%FSLAX46Y46*%
G04 Gerber Fmt 4.6, Leading zero omitted, Abs format (unit mm)*
G04 Created by KiCad (PCBNEW 5.99.0-unknown-r17607-a0698723) date 2020-04-07 09:51:29*
%MOMM*%
%LPD*%
G01*
G04 APERTURE LIST*
%ADD10C,0.120000*%
%ADD11C,0.203200*%
%ADD12C,0.150000*%
G04 APERTURE END LIST*
D10*
X177800000Y-74930000D02*
X171450000Y-83820000D01*
X176530000Y-74930000D02*
X171450000Y-83820000D01*
X175260000Y-74930000D02*
X171450000Y-83820000D01*
X116840000Y-83820000D02*
X115570000Y-74930000D01*
X116840000Y-82550000D02*
X115570000Y-74930000D01*
X116840000Y-80010000D02*
X115570000Y-74930000D01*
X116840000Y-81280000D02*
X115570000Y-74930000D01*
X116840000Y-80010000D02*
X115570000Y-88900000D01*
X115570000Y-88900000D02*
X116840000Y-81280000D01*
X116840000Y-82550000D02*
X115570000Y-88900000D01*
X115570000Y-88900000D02*
X116840000Y-83820000D01*
X116840000Y-80010000D02*
X113030000Y-88900000D01*
X116840000Y-80010000D02*
X111760000Y-88900000D01*
X116840000Y-80010000D02*
X110490000Y-88900000D01*
X171450000Y-80010000D02*
X172720000Y-88900000D01*
X172720000Y-88900000D02*
X171450000Y-81280000D01*
X171450000Y-82550000D02*
X172720000Y-88900000D01*
X172720000Y-88900000D02*
X171450000Y-83820000D01*
X172720000Y-74930000D02*
X171450000Y-83820000D01*
X171450000Y-82550000D02*
X172720000Y-74930000D01*
X172720000Y-74930000D02*
X171450000Y-81280000D01*
X171450000Y-80010000D02*
X172720000Y-74930000D01*
X171450000Y-83820000D02*
X177800000Y-78740000D01*
X171450000Y-81280000D02*
X175260000Y-88900000D01*
X171450000Y-81280000D02*
X177800000Y-86360000D01*
X171450000Y-80010000D02*
X173990000Y-88900000D01*
X171450000Y-80010000D02*
X177800000Y-78740000D01*
X171450000Y-81280000D02*
X176530000Y-88900000D01*
X171450000Y-82550000D02*
X176530000Y-88900000D01*
X171450000Y-80010000D02*
X176530000Y-88900000D01*
X171450000Y-83820000D02*
X176530000Y-88900000D01*
X171450000Y-81280000D02*
X175260000Y-74930000D01*
X171450000Y-80010000D02*
X176530000Y-74930000D01*
X171450000Y-81280000D02*
X177800000Y-78740000D01*
X171450000Y-80010000D02*
X177800000Y-83820000D01*
X171450000Y-83820000D02*
X177800000Y-87630000D01*
X171450000Y-82550000D02*
X173990000Y-88900000D01*
X171450000Y-82550000D02*
X177800000Y-76200000D01*
X171450000Y-81280000D02*
X173990000Y-74930000D01*
X171450000Y-82550000D02*
X177800000Y-83820000D01*
X171450000Y-83820000D02*
X175260000Y-88900000D01*
X171450000Y-82550000D02*
X177800000Y-81280000D01*
X177800000Y-88900000D02*
X171450000Y-80010000D01*
X171450000Y-80010000D02*
X177800000Y-76200000D01*
X171450000Y-82550000D02*
X176530000Y-74930000D01*
X171450000Y-82550000D02*
X177800000Y-85090000D01*
X171450000Y-81280000D02*
X173990000Y-88900000D01*
X171450000Y-82550000D02*
X175260000Y-88900000D01*
X175260000Y-88900000D02*
X171450000Y-80010000D01*
X171450000Y-83820000D02*
X177800000Y-86360000D01*
X171450000Y-82550000D02*
X177800000Y-87630000D01*
X171450000Y-82550000D02*
X177800000Y-80010000D01*
X171450000Y-80010000D02*
X177800000Y-82550000D01*
X171450000Y-82550000D02*
X177800000Y-86360000D01*
X171450000Y-83820000D02*
X177800000Y-83820000D01*
X171450000Y-81280000D02*
X177800000Y-74930000D01*
X171450000Y-83820000D02*
X177800000Y-77470000D01*
X171450000Y-80010000D02*
X173990000Y-74930000D01*
X171450000Y-82550000D02*
X177800000Y-74930000D01*
X171450000Y-81280000D02*
X177800000Y-83820000D01*
X171450000Y-81280000D02*
X177800000Y-85090000D01*
X171450000Y-83820000D02*
X177800000Y-82550000D01*
X171450000Y-82550000D02*
X177800000Y-82550000D01*
X171450000Y-80010000D02*
X175260000Y-74930000D01*
X171450000Y-83820000D02*
X177800000Y-88900000D01*
X171450000Y-83820000D02*
X177800000Y-76200000D01*
X171450000Y-81280000D02*
X177800000Y-80010000D01*
X171450000Y-81280000D02*
X177800000Y-88900000D01*
X171450000Y-82550000D02*
X175260000Y-74930000D01*
X171450000Y-80010000D02*
X177800000Y-85090000D01*
X171450000Y-80010000D02*
X177800000Y-80010000D01*
X171450000Y-80010000D02*
X177800000Y-81280000D01*
X171450000Y-83820000D02*
X177800000Y-80010000D01*
X171450000Y-82550000D02*
X173990000Y-74930000D01*
X171450000Y-83820000D02*
X173990000Y-74930000D01*
X171450000Y-81280000D02*
X177800000Y-76200000D01*
X171450000Y-82550000D02*
X177800000Y-88900000D01*
X171450000Y-81280000D02*
X177800000Y-77470000D01*
X171450000Y-81280000D02*
X176530000Y-74930000D01*
X177800000Y-86360000D02*
X171450000Y-80010000D01*
X171450000Y-80010000D02*
X177800000Y-77470000D01*
X171450000Y-81280000D02*
X177800000Y-87630000D01*
X171450000Y-81280000D02*
X177800000Y-81280000D01*
X171450000Y-83820000D02*
X177800000Y-81280000D01*
X171450000Y-82550000D02*
X177800000Y-77470000D01*
X171450000Y-83820000D02*
X173990000Y-88900000D01*
X171450000Y-80010000D02*
X177800000Y-87630000D01*
X171450000Y-80010000D02*
X177800000Y-74930000D01*
X171450000Y-83820000D02*
X177800000Y-85090000D01*
X171450000Y-81280000D02*
X177800000Y-82550000D01*
X171450000Y-82550000D02*
X177800000Y-78740000D01*
X116840000Y-80010000D02*
X110490000Y-85090000D01*
X116840000Y-82550000D02*
X113030000Y-74930000D01*
X116840000Y-82550000D02*
X110490000Y-77470000D01*
X116840000Y-83820000D02*
X114300000Y-74930000D01*
X116840000Y-83820000D02*
X110490000Y-85090000D01*
X116840000Y-82550000D02*
X111760000Y-74930000D01*
X116840000Y-81280000D02*
X111760000Y-74930000D01*
X116840000Y-83820000D02*
X111760000Y-74930000D01*
X116840000Y-80010000D02*
X111760000Y-74930000D01*
X116840000Y-82550000D02*
X113030000Y-88900000D01*
X116840000Y-83820000D02*
X111760000Y-88900000D01*
X116840000Y-82550000D02*
X110490000Y-85090000D01*
X116840000Y-83820000D02*
X110490000Y-80010000D01*
X116840000Y-80010000D02*
X110490000Y-76200000D01*
X116840000Y-81280000D02*
X114300000Y-74930000D01*
X116840000Y-81280000D02*
X110490000Y-87630000D01*
X116840000Y-82550000D02*
X114300000Y-88900000D01*
X116840000Y-81280000D02*
X110490000Y-80010000D01*
X116840000Y-80010000D02*
X113030000Y-74930000D01*
X116840000Y-81280000D02*
X110490000Y-82550000D01*
X110490000Y-74930000D02*
X116840000Y-83820000D01*
X116840000Y-83820000D02*
X110490000Y-87630000D01*
X116840000Y-81280000D02*
X111760000Y-88900000D01*
X116840000Y-81280000D02*
X110490000Y-78740000D01*
X116840000Y-82550000D02*
X114300000Y-74930000D01*
X116840000Y-81280000D02*
X113030000Y-74930000D01*
X113030000Y-74930000D02*
X116840000Y-83820000D01*
X116840000Y-80010000D02*
X110490000Y-77470000D01*
X116840000Y-81280000D02*
X110490000Y-76200000D01*
X116840000Y-81280000D02*
X110490000Y-83820000D01*
X116840000Y-83820000D02*
X110490000Y-81280000D01*
X116840000Y-81280000D02*
X110490000Y-77470000D01*
X116840000Y-80010000D02*
X110490000Y-80010000D01*
X116840000Y-82550000D02*
X110490000Y-88900000D01*
X116840000Y-80010000D02*
X110490000Y-86360000D01*
X116840000Y-83820000D02*
X114300000Y-88900000D01*
X116840000Y-81280000D02*
X110490000Y-88900000D01*
X116840000Y-82550000D02*
X110490000Y-80010000D01*
X116840000Y-82550000D02*
X110490000Y-78740000D01*
X116840000Y-80010000D02*
X110490000Y-81280000D01*
X116840000Y-81280000D02*
X110490000Y-81280000D01*
X116840000Y-83820000D02*
X113030000Y-88900000D01*
X116840000Y-80010000D02*
X110490000Y-74930000D01*
X116840000Y-80010000D02*
X110490000Y-87630000D01*
X116840000Y-82550000D02*
X110490000Y-83820000D01*
X116840000Y-82550000D02*
X110490000Y-74930000D01*
X116840000Y-81280000D02*
X113030000Y-88900000D01*
X116840000Y-83820000D02*
X110490000Y-78740000D01*
X116840000Y-83820000D02*
X110490000Y-83820000D01*
X116840000Y-83820000D02*
X110490000Y-82550000D01*
X116840000Y-80010000D02*
X110490000Y-83820000D01*
X116840000Y-81280000D02*
X114300000Y-88900000D01*
X116840000Y-80010000D02*
X114300000Y-88900000D01*
X116840000Y-82550000D02*
X110490000Y-87630000D01*
X116840000Y-81280000D02*
X110490000Y-74930000D01*
X116840000Y-82550000D02*
X110490000Y-86360000D01*
X116840000Y-82550000D02*
X111760000Y-88900000D01*
X110490000Y-77470000D02*
X116840000Y-83820000D01*
X116840000Y-83820000D02*
X110490000Y-86360000D01*
X116840000Y-82550000D02*
X110490000Y-76200000D01*
X116840000Y-82550000D02*
X110490000Y-82550000D01*
X116840000Y-80010000D02*
X110490000Y-82550000D01*
X116840000Y-81280000D02*
X110490000Y-86360000D01*
X116840000Y-80010000D02*
X114300000Y-74930000D01*
X116840000Y-83820000D02*
X110490000Y-76200000D01*
X116840000Y-83820000D02*
X110490000Y-88900000D01*
X116840000Y-80010000D02*
X110490000Y-78740000D01*
X116840000Y-82550000D02*
X110490000Y-81280000D01*
X116840000Y-81280000D02*
X110490000Y-85090000D01*
X116840000Y-76200000D02*
X116840000Y-87630000D01*
X171450000Y-76200000D02*
X171450000Y-87630000D01*
X142875000Y-99695000D02*
X136525000Y-99695000D01*
X142875000Y-97155000D02*
X142875000Y-99695000D01*
X136525000Y-97155000D02*
X142875000Y-97155000D01*
X136525000Y-99695000D02*
X136525000Y-97155000D01*
X147955000Y-99695000D02*
X147955000Y-97155000D01*
X154305000Y-99695000D02*
X147955000Y-99695000D01*
X154305000Y-97155000D02*
X154305000Y-99695000D01*
X147955000Y-97155000D02*
X154305000Y-97155000D01*
X125095000Y-99695000D02*
X125095000Y-97155000D01*
X131445000Y-99695000D02*
X125095000Y-99695000D01*
X131445000Y-97155000D02*
X131445000Y-99695000D01*
X125095000Y-97155000D02*
X131445000Y-97155000D01*
D11*
X148741190Y-98999523D02*
X148741190Y-97729523D01*
X149043571Y-97729523D01*
X149225000Y-97790000D01*
X149345952Y-97910952D01*
X149406428Y-98031904D01*
X149466904Y-98273809D01*
X149466904Y-98455238D01*
X149406428Y-98697142D01*
X149345952Y-98818095D01*
X149225000Y-98939047D01*
X149043571Y-98999523D01*
X148741190Y-98999523D01*
X150253095Y-97729523D02*
X150495000Y-97729523D01*
X150615952Y-97790000D01*
X150736904Y-97910952D01*
X150797380Y-98152857D01*
X150797380Y-98576190D01*
X150736904Y-98818095D01*
X150615952Y-98939047D01*
X150495000Y-98999523D01*
X150253095Y-98999523D01*
X150132142Y-98939047D01*
X150011190Y-98818095D01*
X149950714Y-98576190D01*
X149950714Y-98152857D01*
X150011190Y-97910952D01*
X150132142Y-97790000D01*
X150253095Y-97729523D01*
X151220714Y-97729523D02*
X151523095Y-98999523D01*
X151765000Y-98092380D01*
X152006904Y-98999523D01*
X152309285Y-97729523D01*
X152793095Y-98999523D02*
X152793095Y-97729523D01*
X153518809Y-98999523D01*
X153518809Y-97729523D01*
X138702142Y-97729523D02*
X138702142Y-98757619D01*
X138762619Y-98878571D01*
X138823095Y-98939047D01*
X138944047Y-98999523D01*
X139185952Y-98999523D01*
X139306904Y-98939047D01*
X139367380Y-98878571D01*
X139427857Y-98757619D01*
X139427857Y-97729523D01*
X140032619Y-98999523D02*
X140032619Y-97729523D01*
X140516428Y-97729523D01*
X140637380Y-97790000D01*
X140697857Y-97850476D01*
X140758333Y-97971428D01*
X140758333Y-98152857D01*
X140697857Y-98273809D01*
X140637380Y-98334285D01*
X140516428Y-98394761D01*
X140032619Y-98394761D01*
X125971904Y-98999523D02*
X125971904Y-97729523D01*
X126395238Y-98636666D01*
X126818571Y-97729523D01*
X126818571Y-98999523D01*
X127665238Y-97729523D02*
X127907142Y-97729523D01*
X128028095Y-97790000D01*
X128149047Y-97910952D01*
X128209523Y-98152857D01*
X128209523Y-98576190D01*
X128149047Y-98818095D01*
X128028095Y-98939047D01*
X127907142Y-98999523D01*
X127665238Y-98999523D01*
X127544285Y-98939047D01*
X127423333Y-98818095D01*
X127362857Y-98576190D01*
X127362857Y-98152857D01*
X127423333Y-97910952D01*
X127544285Y-97790000D01*
X127665238Y-97729523D01*
X128753809Y-98999523D02*
X128753809Y-97729523D01*
X129056190Y-97729523D01*
X129237619Y-97790000D01*
X129358571Y-97910952D01*
X129419047Y-98031904D01*
X129479523Y-98273809D01*
X129479523Y-98455238D01*
X129419047Y-98697142D01*
X129358571Y-98818095D01*
X129237619Y-98939047D01*
X129056190Y-98999523D01*
X128753809Y-98999523D01*
X130023809Y-98334285D02*
X130447142Y-98334285D01*
X130628571Y-98999523D02*
X130023809Y-98999523D01*
X130023809Y-97729523D01*
X130628571Y-97729523D01*
D10*
X145880000Y-74800000D02*
X145880000Y-77600000D01*
X145880000Y-77600000D02*
X161460000Y-77600000D01*
X161460000Y-77600000D02*
X161460000Y-74800000D01*
X161460000Y-74800000D02*
X145880000Y-74800000D01*
X148590000Y-74800000D02*
X148590000Y-77600000D01*
D12*
X165720000Y-101940000D02*
X167120000Y-101940000D01*
X169520000Y-101940000D02*
X169670000Y-101940000D01*
X169670000Y-101940000D02*
X169670000Y-101640000D01*
X169670000Y-101640000D02*
X170120000Y-101640000D01*
X170120000Y-93940000D02*
X169670000Y-93940000D01*
X169670000Y-93940000D02*
X169670000Y-93640000D01*
X169670000Y-93640000D02*
X169520000Y-93640000D01*
X167120000Y-93640000D02*
X165720000Y-93640000D01*
X163545000Y-98865000D02*
X163545000Y-99590000D01*
X163545000Y-99590000D02*
X163970000Y-99590000D01*
X163970000Y-99590000D02*
X163970000Y-100590000D01*
X163970000Y-95990000D02*
X163970000Y-94990000D01*
D10*
X135730000Y-89520000D02*
X135730000Y-93360000D01*
X135730000Y-93360000D02*
X140970000Y-93360000D01*
X140970000Y-93360000D02*
X140970000Y-89520000D01*
X140970000Y-89520000D02*
X135730000Y-89520000D01*
X134350000Y-91440000D02*
X135730000Y-91440000D01*
X142350000Y-91440000D02*
X140970000Y-91440000D01*
X148690000Y-90070000D02*
X148690000Y-95310000D01*
X145950000Y-90070000D02*
X145950000Y-95310000D01*
X148690000Y-90070000D02*
X145950000Y-90070000D01*
X148690000Y-95310000D02*
X145950000Y-95310000D01*
X133350000Y-74800000D02*
X133350000Y-77600000D01*
X146220000Y-74800000D02*
X130640000Y-74800000D01*
X146220000Y-77600000D02*
X146220000Y-74800000D01*
X130640000Y-77600000D02*
X146220000Y-77600000D01*
X130640000Y-74800000D02*
X130640000Y-77600000D01*
X132180000Y-78640000D02*
X132180000Y-83880000D01*
X129440000Y-78640000D02*
X129440000Y-83880000D01*
X132180000Y-78640000D02*
X129440000Y-78640000D01*
X132180000Y-83880000D02*
X129440000Y-83880000D01*
X135160000Y-93880000D02*
X135160000Y-94210000D01*
X141700000Y-93880000D02*
X135160000Y-93880000D01*
X141700000Y-94210000D02*
X141700000Y-93880000D01*
X135160000Y-96620000D02*
X135160000Y-96290000D01*
X141700000Y-96620000D02*
X135160000Y-96620000D01*
X141700000Y-96290000D02*
X141700000Y-96620000D01*
D12*
X119380000Y-76200000D02*
X128270000Y-76200000D01*
X128270000Y-76200000D02*
X128270000Y-67310000D01*
X128270000Y-67310000D02*
X118110000Y-67310000D01*
X118110000Y-67310000D02*
X118110000Y-74930000D01*
X118110000Y-74930000D02*
X119380000Y-76200000D01*
D10*
X125270000Y-103350000D02*
X131270000Y-103350000D01*
X131270000Y-103350000D02*
X131270000Y-99850000D01*
X131270000Y-99850000D02*
X125270000Y-99850000D01*
X125270000Y-99850000D02*
X125270000Y-103350000D01*
X126770000Y-102350000D02*
X129770000Y-102350000D01*
X129770000Y-102350000D02*
X129770000Y-100850000D01*
X129770000Y-100850000D02*
X126770000Y-100850000D01*
X126770000Y-100850000D02*
X126770000Y-102350000D01*
X136700000Y-103350000D02*
X142700000Y-103350000D01*
X142700000Y-103350000D02*
X142700000Y-99850000D01*
X142700000Y-99850000D02*
X136700000Y-99850000D01*
X136700000Y-99850000D02*
X136700000Y-103350000D01*
X138200000Y-102350000D02*
X141200000Y-102350000D01*
X141200000Y-102350000D02*
X141200000Y-100850000D01*
X141200000Y-100850000D02*
X138200000Y-100850000D01*
X138200000Y-100850000D02*
X138200000Y-102350000D01*
X148130000Y-103350000D02*
X154130000Y-103350000D01*
X154130000Y-103350000D02*
X154130000Y-99850000D01*
X154130000Y-99850000D02*
X148130000Y-99850000D01*
X148130000Y-99850000D02*
X148130000Y-103350000D01*
X149630000Y-102350000D02*
X152630000Y-102350000D01*
X152630000Y-102350000D02*
X152630000Y-100850000D01*
X152630000Y-100850000D02*
X149630000Y-100850000D01*
X149630000Y-100850000D02*
X149630000Y-102350000D01*
X166490000Y-92555000D02*
X174990000Y-92555000D01*
X174990000Y-92555000D02*
X174990000Y-101755000D01*
X174990000Y-101755000D02*
X160290000Y-101755000D01*
X160290000Y-94655000D02*
X160290000Y-92555000D01*
X160290000Y-92555000D02*
X162090000Y-92555000D01*
X159990000Y-100355000D02*
X159990000Y-102055000D01*
X159990000Y-102055000D02*
X161590000Y-102055000D01*
X160290000Y-101755000D02*
X160290000Y-99655000D01*
X133290000Y-81170000D02*
X133290000Y-82820000D01*
X168970000Y-81170000D02*
X133290000Y-81170000D01*
X168970000Y-86470000D02*
X168970000Y-81170000D01*
X133290000Y-86470000D02*
X168970000Y-86470000D01*
X133290000Y-84820000D02*
X133290000Y-86470000D01*
X133290000Y-82820000D02*
G75*
G02*
X133290000Y-84820000I0J-1000000D01*
G01*
X118050000Y-102930000D02*
X120710000Y-102930000D01*
X118050000Y-100330000D02*
X118050000Y-102930000D01*
X120710000Y-100330000D02*
X120710000Y-102930000D01*
X118050000Y-100330000D02*
X120710000Y-100330000D01*
X118050000Y-99060000D02*
X118050000Y-97730000D01*
X118050000Y-97730000D02*
X119380000Y-97730000D01*
X129460000Y-88900000D02*
G75*
G03*
X129460000Y-88900000I-6230000J0D01*
G01*
X129630000Y-87400001D02*
G75*
G02*
X129630000Y-90400000I-6400000J-1499999D01*
G01*
X132180000Y-85030000D02*
X132180000Y-90270000D01*
X129440000Y-85030000D02*
X129440000Y-90270000D01*
X132180000Y-85030000D02*
X129440000Y-85030000D01*
X132180000Y-90270000D02*
X129440000Y-90270000D01*
D12*
X169950000Y-60910000D02*
X169950000Y-73710000D01*
X169950000Y-60910000D02*
X129770000Y-60910000D01*
X129770000Y-60910000D02*
X129770000Y-73710000D01*
X129770000Y-73710000D02*
X169950000Y-73710000D01*
D10*
X153770000Y-90070000D02*
X153770000Y-95310000D01*
X151030000Y-90070000D02*
X151030000Y-95310000D01*
X153770000Y-90070000D02*
X151030000Y-90070000D01*
X153770000Y-95310000D02*
X151030000Y-95310000D01*
X156431039Y-96527790D02*
G75*
G02*
X155780000Y-95190000I1048961J1337790D01*
G01*
X156431039Y-91352210D02*
G75*
G03*
X155780000Y-92690000I1048961J-1337790D01*
G01*
X158528961Y-96527790D02*
G75*
G03*
X159180000Y-95190000I-1048961J1337790D01*
G01*
X158528961Y-91352210D02*
G75*
G02*
X159180000Y-92690000I-1048961J-1337790D01*
G01*
X155780000Y-92690000D02*
X155780000Y-95190000D01*
X159180000Y-92690000D02*
X159180000Y-95190000D01*
D12*
X163139523Y-76652380D02*
X162806190Y-76176190D01*
X162568095Y-76652380D02*
X162568095Y-75652380D01*
X162949047Y-75652380D01*
X163044285Y-75700000D01*
X163091904Y-75747619D01*
X163139523Y-75842857D01*
X163139523Y-75985714D01*
X163091904Y-76080952D01*
X163044285Y-76128571D01*
X162949047Y-76176190D01*
X162568095Y-76176190D01*
X163568095Y-76652380D02*
X163568095Y-75652380D01*
X164139523Y-76652380D01*
X164139523Y-75652380D01*
X164568095Y-75747619D02*
X164615714Y-75700000D01*
X164710952Y-75652380D01*
X164949047Y-75652380D01*
X165044285Y-75700000D01*
X165091904Y-75747619D01*
X165139523Y-75842857D01*
X165139523Y-75938095D01*
X165091904Y-76080952D01*
X164520476Y-76652380D01*
X165139523Y-76652380D01*
X162322380Y-98123333D02*
X163036666Y-98123333D01*
X163179523Y-98170952D01*
X163274761Y-98266190D01*
X163322380Y-98409047D01*
X163322380Y-98504285D01*
X163322380Y-97123333D02*
X163322380Y-97694761D01*
X163322380Y-97409047D02*
X162322380Y-97409047D01*
X162465238Y-97504285D01*
X162560476Y-97599523D01*
X162608095Y-97694761D01*
X138183333Y-91892380D02*
X137707142Y-91892380D01*
X137707142Y-90892380D01*
X139040476Y-91892380D02*
X138469047Y-91892380D01*
X138754761Y-91892380D02*
X138754761Y-90892380D01*
X138659523Y-91035238D01*
X138564285Y-91130476D01*
X138469047Y-91178095D01*
X150177142Y-92856666D02*
X150224761Y-92904285D01*
X150272380Y-93047142D01*
X150272380Y-93142380D01*
X150224761Y-93285238D01*
X150129523Y-93380476D01*
X150034285Y-93428095D01*
X149843809Y-93475714D01*
X149700952Y-93475714D01*
X149510476Y-93428095D01*
X149415238Y-93380476D01*
X149320000Y-93285238D01*
X149272380Y-93142380D01*
X149272380Y-93047142D01*
X149320000Y-92904285D01*
X149367619Y-92856666D01*
X149367619Y-92475714D02*
X149320000Y-92428095D01*
X149272380Y-92332857D01*
X149272380Y-92094761D01*
X149320000Y-91999523D01*
X149367619Y-91951904D01*
X149462857Y-91904285D01*
X149558095Y-91904285D01*
X149700952Y-91951904D01*
X150272380Y-92523333D01*
X150272380Y-91904285D01*
X131389523Y-73477380D02*
X131056190Y-73001190D01*
X130818095Y-73477380D02*
X130818095Y-72477380D01*
X131199047Y-72477380D01*
X131294285Y-72525000D01*
X131341904Y-72572619D01*
X131389523Y-72667857D01*
X131389523Y-72810714D01*
X131341904Y-72905952D01*
X131294285Y-72953571D01*
X131199047Y-73001190D01*
X130818095Y-73001190D01*
X131818095Y-73477380D02*
X131818095Y-72477380D01*
X132389523Y-73477380D01*
X132389523Y-72477380D01*
X133389523Y-73477380D02*
X132818095Y-73477380D01*
X133103809Y-73477380D02*
X133103809Y-72477380D01*
X133008571Y-72620238D01*
X132913333Y-72715476D01*
X132818095Y-72763095D01*
X128627142Y-82716666D02*
X128674761Y-82764285D01*
X128722380Y-82907142D01*
X128722380Y-83002380D01*
X128674761Y-83145238D01*
X128579523Y-83240476D01*
X128484285Y-83288095D01*
X128293809Y-83335714D01*
X128150952Y-83335714D01*
X127960476Y-83288095D01*
X127865238Y-83240476D01*
X127770000Y-83145238D01*
X127722380Y-83002380D01*
X127722380Y-82907142D01*
X127770000Y-82764285D01*
X127817619Y-82716666D01*
X127722380Y-81811904D02*
X127722380Y-82288095D01*
X128198571Y-82335714D01*
X128150952Y-82288095D01*
X128103333Y-82192857D01*
X128103333Y-81954761D01*
X128150952Y-81859523D01*
X128198571Y-81811904D01*
X128293809Y-81764285D01*
X128531904Y-81764285D01*
X128627142Y-81811904D01*
X128674761Y-81859523D01*
X128722380Y-81954761D01*
X128722380Y-82192857D01*
X128674761Y-82288095D01*
X128627142Y-82335714D01*
X138263333Y-95702380D02*
X137930000Y-95226190D01*
X137691904Y-95702380D02*
X137691904Y-94702380D01*
X138072857Y-94702380D01*
X138168095Y-94750000D01*
X138215714Y-94797619D01*
X138263333Y-94892857D01*
X138263333Y-95035714D01*
X138215714Y-95130952D01*
X138168095Y-95178571D01*
X138072857Y-95226190D01*
X137691904Y-95226190D01*
X138644285Y-94797619D02*
X138691904Y-94750000D01*
X138787142Y-94702380D01*
X139025238Y-94702380D01*
X139120476Y-94750000D01*
X139168095Y-94797619D01*
X139215714Y-94892857D01*
X139215714Y-94988095D01*
X139168095Y-95130952D01*
X138596666Y-95702380D01*
X139215714Y-95702380D01*
X122642380Y-71881904D02*
X123451904Y-71881904D01*
X123547142Y-71834285D01*
X123594761Y-71786666D01*
X123642380Y-71691428D01*
X123642380Y-71500952D01*
X123594761Y-71405714D01*
X123547142Y-71358095D01*
X123451904Y-71310476D01*
X122642380Y-71310476D01*
X122737619Y-70881904D02*
X122690000Y-70834285D01*
X122642380Y-70739047D01*
X122642380Y-70500952D01*
X122690000Y-70405714D01*
X122737619Y-70358095D01*
X122832857Y-70310476D01*
X122928095Y-70310476D01*
X123070952Y-70358095D01*
X123642380Y-70929523D01*
X123642380Y-70310476D01*
X160742380Y-100663333D02*
X161456666Y-100663333D01*
X161599523Y-100710952D01*
X161694761Y-100806190D01*
X161742380Y-100949047D01*
X161742380Y-101044285D01*
X161075714Y-99758571D02*
X161742380Y-99758571D01*
X160694761Y-99996666D02*
X161409047Y-100234761D01*
X161409047Y-99615714D01*
X135342380Y-84581904D02*
X136151904Y-84581904D01*
X136247142Y-84534285D01*
X136294761Y-84486666D01*
X136342380Y-84391428D01*
X136342380Y-84200952D01*
X136294761Y-84105714D01*
X136247142Y-84058095D01*
X136151904Y-84010476D01*
X135342380Y-84010476D01*
X136342380Y-83010476D02*
X136342380Y-83581904D01*
X136342380Y-83296190D02*
X135342380Y-83296190D01*
X135485238Y-83391428D01*
X135580476Y-83486666D01*
X135628095Y-83581904D01*
X118618095Y-95972380D02*
X119189523Y-95972380D01*
X118903809Y-96972380D02*
X118903809Y-95972380D01*
X119427619Y-95972380D02*
X120094285Y-96972380D01*
X120094285Y-95972380D02*
X119427619Y-96972380D01*
X123158571Y-89780952D02*
X123206190Y-89638095D01*
X123253809Y-89590476D01*
X123349047Y-89542857D01*
X123491904Y-89542857D01*
X123587142Y-89590476D01*
X123634761Y-89638095D01*
X123682380Y-89733333D01*
X123682380Y-90114285D01*
X122682380Y-90114285D01*
X122682380Y-89780952D01*
X122730000Y-89685714D01*
X122777619Y-89638095D01*
X122872857Y-89590476D01*
X122968095Y-89590476D01*
X123063333Y-89638095D01*
X123110952Y-89685714D01*
X123158571Y-89780952D01*
X123158571Y-90114285D01*
X122682380Y-89209523D02*
X122682380Y-88542857D01*
X123682380Y-89209523D01*
X123682380Y-88542857D01*
X123682380Y-87638095D02*
X123682380Y-88209523D01*
X123682380Y-87923809D02*
X122682380Y-87923809D01*
X122825238Y-88019047D01*
X122920476Y-88114285D01*
X122968095Y-88209523D01*
X128627142Y-89066666D02*
X128674761Y-89114285D01*
X128722380Y-89257142D01*
X128722380Y-89352380D01*
X128674761Y-89495238D01*
X128579523Y-89590476D01*
X128484285Y-89638095D01*
X128293809Y-89685714D01*
X128150952Y-89685714D01*
X127960476Y-89638095D01*
X127865238Y-89590476D01*
X127770000Y-89495238D01*
X127722380Y-89352380D01*
X127722380Y-89257142D01*
X127770000Y-89114285D01*
X127817619Y-89066666D01*
X128055714Y-88209523D02*
X128722380Y-88209523D01*
X127674761Y-88447619D02*
X128389047Y-88685714D01*
X128389047Y-88066666D01*
X149098095Y-66762380D02*
X149098095Y-67571904D01*
X149145714Y-67667142D01*
X149193333Y-67714761D01*
X149288571Y-67762380D01*
X149479047Y-67762380D01*
X149574285Y-67714761D01*
X149621904Y-67667142D01*
X149669523Y-67571904D01*
X149669523Y-66762380D01*
X150050476Y-66762380D02*
X150669523Y-66762380D01*
X150336190Y-67143333D01*
X150479047Y-67143333D01*
X150574285Y-67190952D01*
X150621904Y-67238571D01*
X150669523Y-67333809D01*
X150669523Y-67571904D01*
X150621904Y-67667142D01*
X150574285Y-67714761D01*
X150479047Y-67762380D01*
X150193333Y-67762380D01*
X150098095Y-67714761D01*
X150050476Y-67667142D01*
X155297142Y-92856666D02*
X155344761Y-92904285D01*
X155392380Y-93047142D01*
X155392380Y-93142380D01*
X155344761Y-93285238D01*
X155249523Y-93380476D01*
X155154285Y-93428095D01*
X154963809Y-93475714D01*
X154820952Y-93475714D01*
X154630476Y-93428095D01*
X154535238Y-93380476D01*
X154440000Y-93285238D01*
X154392380Y-93142380D01*
X154392380Y-93047142D01*
X154440000Y-92904285D01*
X154487619Y-92856666D01*
X155392380Y-91904285D02*
X155392380Y-92475714D01*
X155392380Y-92190000D02*
X154392380Y-92190000D01*
X154535238Y-92285238D01*
X154630476Y-92380476D01*
X154678095Y-92475714D01*
X159543809Y-90146190D02*
X159543809Y-90622380D01*
X159210476Y-89622380D02*
X159543809Y-90146190D01*
X159877142Y-89622380D01*
X160734285Y-90622380D02*
X160162857Y-90622380D01*
X160448571Y-90622380D02*
X160448571Y-89622380D01*
X160353333Y-89765238D01*
X160258095Y-89860476D01*
X160162857Y-89908095D01*
M02*
