M48
; DRILL file {KiCad 5.99.0-unknown-r17607-a0698723} date Tue Apr  7 09:51:32 2020
; FORMAT={-:-/ absolute / inch / decimal}
; #@! TF.CreationDate,2020-04-07T09:51:32-05:00
; #@! TF.GenerationSoftware,Kicad,Pcbnew,5.99.0-unknown-r17607-a0698723
; #@! TF.FileFunction,Plated,1,2,PTH
FMAT,2
INCH
T1C0.0217
T2C0.0250
T3C0.0300
T4C0.0315
T5C0.0335
T6C0.0394
T7C0.0472
T8C0.1150
%
G90
G05
T2
X6.1Y-3.25
X6.1Y-3.35
X6.2Y-3.25
X6.2Y-3.35
X6.3Y-3.25
X6.3Y-3.35
T3
X5.55Y-2.45
X5.55Y-2.85
X5.65Y-2.45
X5.65Y-2.85
X5.75Y-2.45
X5.75Y-2.85
X5.85Y-2.45
X5.85Y-2.85
X5.95Y-2.45
X5.95Y-2.85
X6.05Y-2.45
X6.05Y-2.85
X6.15Y-2.45
X6.15Y-2.85
X6.25Y-2.45
X6.25Y-2.85
T4
X5.2Y-3.0
X5.3Y-3.0
X5.4Y-3.0
X5.5Y-3.0
X5.6Y-3.0
X5.7Y-3.0
X5.3Y-3.75
X5.6Y-3.75
X4.7Y-2.55
X4.7Y-3.1
X4.8Y-2.55
X4.8Y-3.1
X4.9Y-2.55
X4.9Y-3.1
X5.0Y-2.55
X5.0Y-3.1
X5.3Y-3.15
X5.3Y-3.45
X5.4Y-3.15
X5.4Y-3.45
X5.5Y-3.15
X5.5Y-3.45
X5.6Y-3.15
X5.6Y-3.45
X5.7Y-3.15
X5.7Y-3.45
X5.8Y-3.15
X5.8Y-3.45
X5.9Y-3.15
X5.9Y-3.45
X6.0Y-3.15
X6.0Y-3.45
X6.1Y-3.15
X6.1Y-3.45
X6.2Y-3.15
X6.2Y-3.45
X6.3Y-3.15
X6.3Y-3.45
X6.4Y-3.15
X6.4Y-3.45
X6.5Y-3.15
X6.5Y-3.45
X6.6Y-3.15
X6.6Y-3.45
X5.15Y-3.15
X5.15Y-3.2484
X5.8Y-3.6
X5.8Y-3.6984
X6.0Y-3.6
X6.0Y-3.6984
X5.15Y-3.4016
X5.15Y-3.5
X5.8Y-3.0
X5.9Y-3.0
X6.0Y-3.0
X6.1Y-3.0
X6.2Y-3.0
X6.3Y-3.0
T5
X5.25Y-3.6
X5.6437Y-3.6
T6
X6.2Y-3.6
X6.2Y-3.6984
X6.2Y-3.7969
X4.7Y-3.9
X4.7Y-4.0
X4.7531Y-3.5
X4.95Y-3.5
T7
X4.924Y-4.0
X5.176Y-4.0
X5.824Y-4.0
X6.076Y-4.0
X5.374Y-4.0
X5.626Y-4.0
T8
X4.525Y-3.225
X6.825Y-3.225
T1
G00X6.614Y-3.6974
M15
G01X6.6396Y-3.6974
M16
G05
G00X6.614Y-4.0026
M15
G01X6.6396Y-4.0026
M16
G05
T4
G00X6.35Y-3.8762
M15
G01X6.35Y-3.7738
M16
G05
G00X6.5114Y-3.636
M15
G01X6.4248Y-3.636
M16
G05
G00X6.5783Y-3.8683
M15
G01X6.5783Y-3.7817
M16
G05
T5
G00X6.4663Y-3.7033
M15
G01X6.488Y-3.7033
M16
G05
G00X6.4663Y-3.9967
M15
G01X6.488Y-3.9967
M16
G05
T0
M30
