M48
; DRILL file {KiCad 5.99.0-unknown-r17607-a0698723} date Tue Apr  7 11:59:47 2020
; FORMAT={-:-/ absolute / inch / decimal}
; #@! TF.CreationDate,2020-04-07T11:59:47-05:00
; #@! TF.GenerationSoftware,Kicad,Pcbnew,5.99.0-unknown-r17607-a0698723
; #@! TF.FileFunction,Plated,1,2,PTH
FMAT,2
INCH
T1C0.0250
T2C0.0300
T3C0.0315
T4C0.0394
T5C0.0472
T6C0.1150
%
G90
G05
T1
X6.1Y-3.25
X6.1Y-3.35
X6.2Y-3.25
X6.2Y-3.35
X6.3Y-3.25
X6.3Y-3.35
T2
X5.55Y-2.45
X5.55Y-2.85
X5.65Y-2.45
X5.65Y-2.85
X5.75Y-2.45
X5.75Y-2.85
X5.85Y-2.45
X5.85Y-2.85
X5.95Y-2.45
X5.95Y-2.85
X6.05Y-2.45
X6.05Y-2.85
X6.15Y-2.45
X6.15Y-2.85
X6.25Y-2.45
X6.25Y-2.85
T3
X5.3Y-3.625
X5.6Y-3.625
X5.15Y-3.15
X5.15Y-3.2484
X6.0Y-3.6
X6.0Y-3.6984
X5.8Y-3.0
X5.9Y-3.0
X6.0Y-3.0
X6.1Y-3.0
X6.2Y-3.0
X6.3Y-3.0
X4.7Y-2.55
X4.7Y-3.1
X4.8Y-2.55
X4.8Y-3.1
X4.9Y-2.55
X4.9Y-3.1
X5.0Y-2.55
X5.0Y-3.1
X5.3Y-3.15
X5.3Y-3.45
X5.4Y-3.15
X5.4Y-3.45
X5.5Y-3.15
X5.5Y-3.45
X5.6Y-3.15
X5.6Y-3.45
X5.7Y-3.15
X5.7Y-3.45
X5.8Y-3.15
X5.8Y-3.45
X5.9Y-3.15
X5.9Y-3.45
X6.0Y-3.15
X6.0Y-3.45
X6.1Y-3.15
X6.1Y-3.45
X6.2Y-3.15
X6.2Y-3.45
X6.3Y-3.15
X6.3Y-3.45
X6.4Y-3.15
X6.4Y-3.45
X6.5Y-3.15
X6.5Y-3.45
X6.6Y-3.15
X6.6Y-3.45
X5.2Y-3.0
X5.3Y-3.0
X5.4Y-3.0
X5.5Y-3.0
X5.6Y-3.0
X5.7Y-3.0
X5.15Y-3.4016
X5.15Y-3.5
X5.8Y-3.6
X5.8Y-3.6984
T4
X4.7Y-3.9
X4.7Y-4.0
X6.2Y-3.6
X6.2Y-3.6984
X6.2Y-3.7969
X6.625Y-3.8
X6.625Y-3.8984
X4.7531Y-3.5
X4.95Y-3.5
T5
X5.824Y-4.0
X6.076Y-4.0
X5.374Y-4.0
X5.626Y-4.0
X4.924Y-4.0
X5.176Y-4.0
T6
X4.525Y-3.225
X6.825Y-3.225
T0
M30
