G04 #@! TF.GenerationSoftware,KiCad,Pcbnew,5.99.0-unknown-r17607-a0698723*
G04 #@! TF.CreationDate,2020-04-13T08:25:32-05:00*
G04 #@! TF.ProjectId,pcb_smd,7063625f-736d-4642-9e6b-696361645f70,rev?*
G04 #@! TF.SameCoordinates,Original*
G04 #@! TF.FileFunction,Paste,Bot*
G04 #@! TF.FilePolarity,Positive*
%FSLAX46Y46*%
G04 Gerber Fmt 4.6, Leading zero omitted, Abs format (unit mm)*
G04 Created by KiCad (PCBNEW 5.99.0-unknown-r17607-a0698723) date 2020-04-13 08:25:32*
%MOMM*%
%LPD*%
G01*
G04 APERTURE LIST*
%ADD10C,0.100000*%
G04 APERTURE END LIST*
D10*
X148590000Y-69596000D02*
X149860000Y-66294000D01*
X148590000Y-72644000D02*
X148590000Y-69596000D01*
X147320000Y-75438000D02*
X148590000Y-72644000D01*
X148336000Y-76200000D02*
X149860000Y-72390000D01*
X151130000Y-68834000D02*
X152654000Y-68326000D01*
X151130000Y-73660000D02*
X151130000Y-68834000D01*
X149352000Y-73914000D02*
X151130000Y-73660000D01*
X149352000Y-76708000D02*
X149352000Y-73914000D01*
X148082000Y-76708000D02*
X149352000Y-76708000D01*
X153670000Y-73914000D02*
X154940000Y-72390000D01*
X149860000Y-74422000D02*
X153670000Y-73914000D01*
X149860000Y-77216000D02*
X149860000Y-74422000D01*
X148082000Y-77216000D02*
X149860000Y-77216000D01*
X145288000Y-73660000D02*
X146050000Y-73660000D01*
X145288000Y-75184000D02*
X145288000Y-73660000D01*
X144780000Y-75184000D02*
X144780000Y-72390000D01*
X143510000Y-68580000D02*
X142240000Y-68326000D01*
X143510000Y-73406000D02*
X143510000Y-68580000D01*
X144272000Y-73406000D02*
X143510000Y-73406000D01*
X144272000Y-75438000D02*
X144272000Y-73406000D01*
X140970000Y-70866000D02*
X139700000Y-66040000D01*
X140970000Y-73406000D02*
X140970000Y-70866000D01*
X141224000Y-73660000D02*
X140970000Y-73406000D01*
X143764000Y-73660000D02*
X141224000Y-73660000D01*
X143764000Y-75184000D02*
X143764000Y-73660000D01*
X140970000Y-74168000D02*
X139700000Y-72390000D01*
X143256000Y-74168000D02*
X140970000Y-74168000D01*
X143256000Y-75438000D02*
X143256000Y-74168000D01*
X138430000Y-72390000D02*
X137160000Y-66040000D01*
X141605000Y-76200000D02*
X138430000Y-72390000D01*
X141605000Y-76835000D02*
X137160000Y-72390000D01*
M02*
