G04 #@! TF.GenerationSoftware,KiCad,Pcbnew,5.99.0-unknown-r17607-a0698723*
G04 #@! TF.CreationDate,2020-04-13T08:25:31-05:00*
G04 #@! TF.ProjectId,pcb_smd,7063625f-736d-4642-9e6b-696361645f70,rev?*
G04 #@! TF.SameCoordinates,Original*
G04 #@! TF.FileFunction,Copper,L2,Bot*
G04 #@! TF.FilePolarity,Positive*
%FSLAX46Y46*%
G04 Gerber Fmt 4.6, Leading zero omitted, Abs format (unit mm)*
G04 Created by KiCad (PCBNEW 5.99.0-unknown-r17607-a0698723) date 2020-04-13 08:25:31*
%MOMM*%
%LPD*%
G01*
G04 APERTURE LIST*
%ADD10C,1.524000*%
%ADD11O,1.700000X1.700000*%
%ADD12R,1.700000X1.700000*%
%ADD13O,1.600000X1.600000*%
%ADD14R,1.600000X1.600000*%
%ADD15C,3.454400*%
%ADD16C,0.254000*%
G04 APERTURE END LIST*
D10*
X152400000Y-70485000D03*
X149860000Y-60325000D03*
X139700000Y-70485000D03*
X154940000Y-70485000D03*
X154940000Y-60325000D03*
X137160000Y-70485000D03*
X147320000Y-70485000D03*
X144780000Y-70485000D03*
X139700000Y-60325000D03*
X149860000Y-70485000D03*
X152400000Y-60325000D03*
X142240000Y-60325000D03*
X142240000Y-70485000D03*
X144780000Y-60325000D03*
X147320000Y-60325000D03*
X137160000Y-60325000D03*
D11*
X142240000Y-88900000D03*
D12*
X144780000Y-88900000D03*
D13*
X149860000Y-102870000D03*
X163830000Y-95250000D03*
X149860000Y-100330000D03*
X163830000Y-97790000D03*
X149860000Y-97790000D03*
X163830000Y-100330000D03*
X149860000Y-95250000D03*
D14*
X163830000Y-102870000D03*
D13*
X128270000Y-102870000D03*
X142240000Y-95250000D03*
X128270000Y-100330000D03*
X142240000Y-97790000D03*
X128270000Y-97790000D03*
X142240000Y-100330000D03*
X128270000Y-95250000D03*
D14*
X142240000Y-102870000D03*
D10*
X121920000Y-91440000D03*
X121920000Y-88900000D03*
X124460000Y-91440000D03*
X124460000Y-88900000D03*
X127000000Y-91440000D03*
X127000000Y-88900000D03*
D15*
X169545000Y-64770000D03*
X169545000Y-100330000D03*
X122555000Y-64770000D03*
X122555000Y-100330000D03*
G36*
X136673217Y-61638868D02*
G01*
X136683757Y-61642724D01*
X136913577Y-61704304D01*
X136924633Y-61706233D01*
X137161725Y-61726144D01*
X137172948Y-61726085D01*
X137409819Y-61703694D01*
X137420854Y-61701649D01*
X137650016Y-61637665D01*
X137660514Y-61633698D01*
X137742633Y-61594000D01*
X139117869Y-61594000D01*
X139213217Y-61638868D01*
X139223757Y-61642724D01*
X139453577Y-61704304D01*
X139464633Y-61706233D01*
X139701725Y-61726144D01*
X139712948Y-61726085D01*
X139949819Y-61703694D01*
X139960854Y-61701649D01*
X140190016Y-61637665D01*
X140200514Y-61633698D01*
X140282633Y-61594000D01*
X141657869Y-61594000D01*
X141753217Y-61638868D01*
X141763757Y-61642724D01*
X141993577Y-61704304D01*
X142004633Y-61706233D01*
X142241725Y-61726144D01*
X142252948Y-61726085D01*
X142489819Y-61703694D01*
X142500854Y-61701649D01*
X142730016Y-61637665D01*
X142740514Y-61633698D01*
X142822633Y-61594000D01*
X144197869Y-61594000D01*
X144293217Y-61638868D01*
X144303757Y-61642724D01*
X144533577Y-61704304D01*
X144544633Y-61706233D01*
X144781725Y-61726144D01*
X144792948Y-61726085D01*
X145029819Y-61703694D01*
X145040854Y-61701649D01*
X145270016Y-61637665D01*
X145280514Y-61633698D01*
X145362633Y-61594000D01*
X146737869Y-61594000D01*
X146833217Y-61638868D01*
X146843757Y-61642724D01*
X147073577Y-61704304D01*
X147084633Y-61706233D01*
X147321725Y-61726144D01*
X147332948Y-61726085D01*
X147569819Y-61703694D01*
X147580854Y-61701649D01*
X147810016Y-61637665D01*
X147820514Y-61633698D01*
X147902633Y-61594000D01*
X149277869Y-61594000D01*
X149373217Y-61638868D01*
X149383757Y-61642724D01*
X149613577Y-61704304D01*
X149624633Y-61706233D01*
X149861725Y-61726144D01*
X149872948Y-61726085D01*
X150109819Y-61703694D01*
X150120854Y-61701649D01*
X150350016Y-61637665D01*
X150360514Y-61633698D01*
X150442633Y-61594000D01*
X151817869Y-61594000D01*
X151913217Y-61638868D01*
X151923757Y-61642724D01*
X152153577Y-61704304D01*
X152164633Y-61706233D01*
X152401725Y-61726144D01*
X152412948Y-61726085D01*
X152649819Y-61703694D01*
X152660854Y-61701649D01*
X152890016Y-61637665D01*
X152900514Y-61633698D01*
X152982633Y-61594000D01*
X154357869Y-61594000D01*
X154453217Y-61638868D01*
X154463757Y-61642724D01*
X154693577Y-61704304D01*
X154704633Y-61706233D01*
X154941725Y-61726144D01*
X154952948Y-61726085D01*
X155189819Y-61703694D01*
X155200854Y-61701649D01*
X155430016Y-61637665D01*
X155440514Y-61633698D01*
X155522633Y-61594000D01*
X172086000Y-61594000D01*
X172086001Y-103506000D01*
X165271837Y-103506000D01*
X165271837Y-102061742D01*
X165269681Y-102045366D01*
X165194863Y-101766142D01*
X165182120Y-101741662D01*
X165051010Y-101585410D01*
X165034121Y-101571239D01*
X164859880Y-101470641D01*
X164839163Y-101463100D01*
X164732868Y-101444357D01*
X164843634Y-101351413D01*
X164851413Y-101343634D01*
X165005601Y-101159881D01*
X165011912Y-101150868D01*
X165131848Y-100943132D01*
X165136498Y-100933160D01*
X165218540Y-100707753D01*
X165221387Y-100697126D01*
X165262967Y-100461315D01*
X167177766Y-100461315D01*
X167178362Y-100471639D01*
X167231001Y-100846181D01*
X167233274Y-100856270D01*
X167346378Y-101217186D01*
X167350269Y-101226768D01*
X167520802Y-101564366D01*
X167526205Y-101573184D01*
X167749586Y-101878395D01*
X167756357Y-101886212D01*
X168026588Y-102150841D01*
X168034545Y-102157447D01*
X168344368Y-102374387D01*
X168353297Y-102379605D01*
X168694391Y-102543030D01*
X168704053Y-102546719D01*
X169067259Y-102652241D01*
X169077393Y-102654302D01*
X169452956Y-102699085D01*
X169463290Y-102699464D01*
X169841124Y-102682307D01*
X169851382Y-102680993D01*
X170221341Y-102602356D01*
X170231246Y-102599384D01*
X170583394Y-102461378D01*
X170592681Y-102456829D01*
X170917560Y-102263162D01*
X170925979Y-102257157D01*
X171214865Y-102013030D01*
X171222191Y-102005730D01*
X171467325Y-101717697D01*
X171473360Y-101709299D01*
X171668159Y-101385099D01*
X171672741Y-101375827D01*
X171811974Y-101024164D01*
X171814981Y-101014269D01*
X171895072Y-100643833D01*
X171896479Y-100632033D01*
X171908426Y-100143197D01*
X171907597Y-100131342D01*
X171845698Y-99757437D01*
X171843178Y-99747407D01*
X171721289Y-99389361D01*
X171717166Y-99379877D01*
X171538436Y-99046547D01*
X171532818Y-99037864D01*
X171302047Y-98738201D01*
X171295086Y-98730552D01*
X171018471Y-98472604D01*
X171010355Y-98466194D01*
X170695325Y-98256889D01*
X170686272Y-98251892D01*
X170341286Y-98096848D01*
X170331537Y-98093396D01*
X169965862Y-97996780D01*
X169955680Y-97994967D01*
X169579136Y-97959374D01*
X169568795Y-97959247D01*
X169191492Y-97985631D01*
X169181270Y-97987195D01*
X168813343Y-98074848D01*
X168803513Y-98078060D01*
X168454842Y-98224628D01*
X168445669Y-98229403D01*
X168125618Y-98430949D01*
X168117348Y-98437158D01*
X167834513Y-98688272D01*
X167827369Y-98695748D01*
X167589345Y-98989683D01*
X167583517Y-98998226D01*
X167396697Y-99327090D01*
X167392342Y-99336471D01*
X167261742Y-99691430D01*
X167258979Y-99701396D01*
X167188107Y-100072920D01*
X167187008Y-100083203D01*
X167177766Y-100461315D01*
X165262967Y-100461315D01*
X165263041Y-100460897D01*
X165264000Y-100449936D01*
X165264000Y-100210064D01*
X165263041Y-100199103D01*
X165221387Y-99962874D01*
X165218540Y-99952247D01*
X165136498Y-99726840D01*
X165131848Y-99716868D01*
X165011912Y-99509132D01*
X165005601Y-99500119D01*
X164851413Y-99316366D01*
X164843634Y-99308587D01*
X164659881Y-99154399D01*
X164650868Y-99148088D01*
X164498295Y-99060000D01*
X164650868Y-98971912D01*
X164659881Y-98965601D01*
X164843634Y-98811413D01*
X164851413Y-98803634D01*
X165005601Y-98619881D01*
X165011912Y-98610868D01*
X165131848Y-98403132D01*
X165136498Y-98393160D01*
X165218540Y-98167753D01*
X165221387Y-98157126D01*
X165263041Y-97920897D01*
X165264000Y-97909936D01*
X165264000Y-97670064D01*
X165263041Y-97659103D01*
X165221387Y-97422874D01*
X165218540Y-97412247D01*
X165136498Y-97186840D01*
X165131848Y-97176868D01*
X165011912Y-96969132D01*
X165005601Y-96960119D01*
X164851413Y-96776366D01*
X164843634Y-96768587D01*
X164659881Y-96614399D01*
X164650868Y-96608088D01*
X164498295Y-96520000D01*
X164650868Y-96431912D01*
X164659881Y-96425601D01*
X164843634Y-96271413D01*
X164851413Y-96263634D01*
X165005601Y-96079881D01*
X165011912Y-96070868D01*
X165131848Y-95863132D01*
X165136498Y-95853160D01*
X165218540Y-95627753D01*
X165221387Y-95617126D01*
X165263041Y-95380897D01*
X165264000Y-95369936D01*
X165264000Y-95130064D01*
X165263041Y-95119103D01*
X165221387Y-94882874D01*
X165218540Y-94872247D01*
X165136498Y-94646840D01*
X165131848Y-94636868D01*
X165011912Y-94429132D01*
X165005601Y-94420119D01*
X164851413Y-94236366D01*
X164843634Y-94228587D01*
X164659881Y-94074399D01*
X164650868Y-94068088D01*
X164443132Y-93948152D01*
X164433160Y-93943502D01*
X164207753Y-93861460D01*
X164197126Y-93858613D01*
X163960897Y-93816959D01*
X163949936Y-93816000D01*
X163710064Y-93816000D01*
X163699103Y-93816959D01*
X163462874Y-93858613D01*
X163452247Y-93861460D01*
X163226840Y-93943502D01*
X163216868Y-93948152D01*
X163009132Y-94068088D01*
X163000119Y-94074399D01*
X162816366Y-94228587D01*
X162808587Y-94236366D01*
X162654399Y-94420119D01*
X162648088Y-94429132D01*
X162528152Y-94636868D01*
X162523502Y-94646840D01*
X162441460Y-94872247D01*
X162438613Y-94882874D01*
X162396959Y-95119103D01*
X162396000Y-95130064D01*
X162396000Y-95369936D01*
X162396959Y-95380897D01*
X162438613Y-95617126D01*
X162441460Y-95627753D01*
X162523502Y-95853160D01*
X162528152Y-95863132D01*
X162648088Y-96070868D01*
X162654399Y-96079881D01*
X162808587Y-96263634D01*
X162816366Y-96271413D01*
X163000119Y-96425601D01*
X163009132Y-96431912D01*
X163161705Y-96520000D01*
X163009132Y-96608088D01*
X163000119Y-96614399D01*
X162816366Y-96768587D01*
X162808587Y-96776366D01*
X162654399Y-96960119D01*
X162648088Y-96969132D01*
X162528152Y-97176868D01*
X162523502Y-97186840D01*
X162441460Y-97412247D01*
X162438613Y-97422874D01*
X162396959Y-97659103D01*
X162396000Y-97670064D01*
X162396000Y-97909936D01*
X162396959Y-97920897D01*
X162438613Y-98157126D01*
X162441460Y-98167753D01*
X162523502Y-98393160D01*
X162528152Y-98403132D01*
X162648088Y-98610868D01*
X162654399Y-98619881D01*
X162808587Y-98803634D01*
X162816366Y-98811413D01*
X163000119Y-98965601D01*
X163009132Y-98971912D01*
X163161705Y-99060000D01*
X163009132Y-99148088D01*
X163000119Y-99154399D01*
X162816366Y-99308587D01*
X162808587Y-99316366D01*
X162654399Y-99500119D01*
X162648088Y-99509132D01*
X162528152Y-99716868D01*
X162523502Y-99726840D01*
X162441460Y-99952247D01*
X162438613Y-99962874D01*
X162396959Y-100199103D01*
X162396000Y-100210064D01*
X162396000Y-100449936D01*
X162396959Y-100460897D01*
X162438613Y-100697126D01*
X162441460Y-100707753D01*
X162523502Y-100933160D01*
X162528152Y-100943132D01*
X162648088Y-101150868D01*
X162654399Y-101159881D01*
X162808587Y-101343634D01*
X162816366Y-101351413D01*
X162933387Y-101449606D01*
X162726142Y-101505137D01*
X162701662Y-101517880D01*
X162545410Y-101648990D01*
X162531239Y-101665879D01*
X162430641Y-101840120D01*
X162423100Y-101860837D01*
X162389122Y-102053538D01*
X162388163Y-102064499D01*
X162388163Y-103506000D01*
X151148645Y-103506000D01*
X151161848Y-103483132D01*
X151166498Y-103473160D01*
X151248540Y-103247753D01*
X151251387Y-103237126D01*
X151293041Y-103000897D01*
X151294000Y-102989936D01*
X151294000Y-102750064D01*
X151293041Y-102739103D01*
X151251387Y-102502874D01*
X151248540Y-102492247D01*
X151166498Y-102266840D01*
X151161848Y-102256868D01*
X151041912Y-102049132D01*
X151035601Y-102040119D01*
X150881413Y-101856366D01*
X150873634Y-101848587D01*
X150689881Y-101694399D01*
X150680868Y-101688088D01*
X150528295Y-101600000D01*
X150680868Y-101511912D01*
X150689881Y-101505601D01*
X150873634Y-101351413D01*
X150881413Y-101343634D01*
X151035601Y-101159881D01*
X151041912Y-101150868D01*
X151161848Y-100943132D01*
X151166498Y-100933160D01*
X151248540Y-100707753D01*
X151251387Y-100697126D01*
X151293041Y-100460897D01*
X151294000Y-100449936D01*
X151294000Y-100210064D01*
X151293041Y-100199103D01*
X151251387Y-99962874D01*
X151248540Y-99952247D01*
X151166498Y-99726840D01*
X151161848Y-99716868D01*
X151041912Y-99509132D01*
X151035601Y-99500119D01*
X150881413Y-99316366D01*
X150873634Y-99308587D01*
X150689881Y-99154399D01*
X150680868Y-99148088D01*
X150528295Y-99060000D01*
X150680868Y-98971912D01*
X150689881Y-98965601D01*
X150873634Y-98811413D01*
X150881413Y-98803634D01*
X151035601Y-98619881D01*
X151041912Y-98610868D01*
X151161848Y-98403132D01*
X151166498Y-98393160D01*
X151248540Y-98167753D01*
X151251387Y-98157126D01*
X151293041Y-97920897D01*
X151294000Y-97909936D01*
X151294000Y-97670064D01*
X151293041Y-97659103D01*
X151251387Y-97422874D01*
X151248540Y-97412247D01*
X151166498Y-97186840D01*
X151161848Y-97176868D01*
X151041912Y-96969132D01*
X151035601Y-96960119D01*
X150881413Y-96776366D01*
X150873634Y-96768587D01*
X150689881Y-96614399D01*
X150680868Y-96608088D01*
X150528295Y-96520000D01*
X150680868Y-96431912D01*
X150689881Y-96425601D01*
X150873634Y-96271413D01*
X150881413Y-96263634D01*
X151035601Y-96079881D01*
X151041912Y-96070868D01*
X151161848Y-95863132D01*
X151166498Y-95853160D01*
X151248540Y-95627753D01*
X151251387Y-95617126D01*
X151293041Y-95380897D01*
X151294000Y-95369936D01*
X151294000Y-95130064D01*
X151293041Y-95119103D01*
X151251387Y-94882874D01*
X151248540Y-94872247D01*
X151166498Y-94646840D01*
X151161848Y-94636868D01*
X151041912Y-94429132D01*
X151035601Y-94420119D01*
X150881413Y-94236366D01*
X150873634Y-94228587D01*
X150689881Y-94074399D01*
X150680868Y-94068088D01*
X150473132Y-93948152D01*
X150463160Y-93943502D01*
X150237753Y-93861460D01*
X150227126Y-93858613D01*
X149990897Y-93816959D01*
X149979936Y-93816000D01*
X149740064Y-93816000D01*
X149729103Y-93816959D01*
X149492874Y-93858613D01*
X149482247Y-93861460D01*
X149256840Y-93943502D01*
X149246868Y-93948152D01*
X149039132Y-94068088D01*
X149030119Y-94074399D01*
X148846366Y-94228587D01*
X148838587Y-94236366D01*
X148684399Y-94420119D01*
X148678088Y-94429132D01*
X148558152Y-94636868D01*
X148553502Y-94646840D01*
X148471460Y-94872247D01*
X148468613Y-94882874D01*
X148426959Y-95119103D01*
X148426000Y-95130064D01*
X148426000Y-95369936D01*
X148426959Y-95380897D01*
X148468613Y-95617126D01*
X148471460Y-95627753D01*
X148553502Y-95853160D01*
X148558152Y-95863132D01*
X148678088Y-96070868D01*
X148684399Y-96079881D01*
X148838587Y-96263634D01*
X148846366Y-96271413D01*
X149030119Y-96425601D01*
X149039132Y-96431912D01*
X149191705Y-96520000D01*
X149039132Y-96608088D01*
X149030119Y-96614399D01*
X148846366Y-96768587D01*
X148838587Y-96776366D01*
X148684399Y-96960119D01*
X148678088Y-96969132D01*
X148558152Y-97176868D01*
X148553502Y-97186840D01*
X148471460Y-97412247D01*
X148468613Y-97422874D01*
X148426959Y-97659103D01*
X148426000Y-97670064D01*
X148426000Y-97909936D01*
X148426959Y-97920897D01*
X148468613Y-98157126D01*
X148471460Y-98167753D01*
X148553502Y-98393160D01*
X148558152Y-98403132D01*
X148678088Y-98610868D01*
X148684399Y-98619881D01*
X148838587Y-98803634D01*
X148846366Y-98811413D01*
X149030119Y-98965601D01*
X149039132Y-98971912D01*
X149191705Y-99060000D01*
X149039132Y-99148088D01*
X149030119Y-99154399D01*
X148846366Y-99308587D01*
X148838587Y-99316366D01*
X148684399Y-99500119D01*
X148678088Y-99509132D01*
X148558152Y-99716868D01*
X148553502Y-99726840D01*
X148471460Y-99952247D01*
X148468613Y-99962874D01*
X148426959Y-100199103D01*
X148426000Y-100210064D01*
X148426000Y-100449936D01*
X148426959Y-100460897D01*
X148468613Y-100697126D01*
X148471460Y-100707753D01*
X148553502Y-100933160D01*
X148558152Y-100943132D01*
X148678088Y-101150868D01*
X148684399Y-101159881D01*
X148838587Y-101343634D01*
X148846366Y-101351413D01*
X149030119Y-101505601D01*
X149039132Y-101511912D01*
X149191705Y-101600000D01*
X149039132Y-101688088D01*
X149030119Y-101694399D01*
X148846366Y-101848587D01*
X148838587Y-101856366D01*
X148684399Y-102040119D01*
X148678088Y-102049132D01*
X148558152Y-102256868D01*
X148553502Y-102266840D01*
X148471460Y-102492247D01*
X148468613Y-102502874D01*
X148426959Y-102739103D01*
X148426000Y-102750064D01*
X148426000Y-102989936D01*
X148426959Y-103000897D01*
X148468613Y-103237126D01*
X148471460Y-103247753D01*
X148553502Y-103473160D01*
X148558152Y-103483132D01*
X148571355Y-103506000D01*
X143681837Y-103506000D01*
X143681837Y-102061742D01*
X143679681Y-102045366D01*
X143604863Y-101766142D01*
X143592120Y-101741662D01*
X143461010Y-101585410D01*
X143444121Y-101571239D01*
X143269880Y-101470641D01*
X143249163Y-101463100D01*
X143142868Y-101444357D01*
X143253634Y-101351413D01*
X143261413Y-101343634D01*
X143415601Y-101159881D01*
X143421912Y-101150868D01*
X143541848Y-100943132D01*
X143546498Y-100933160D01*
X143628540Y-100707753D01*
X143631387Y-100697126D01*
X143673041Y-100460897D01*
X143674000Y-100449936D01*
X143674000Y-100210064D01*
X143673041Y-100199103D01*
X143631387Y-99962874D01*
X143628540Y-99952247D01*
X143546498Y-99726840D01*
X143541848Y-99716868D01*
X143421912Y-99509132D01*
X143415601Y-99500119D01*
X143261413Y-99316366D01*
X143253634Y-99308587D01*
X143069881Y-99154399D01*
X143060868Y-99148088D01*
X142908295Y-99060000D01*
X143060868Y-98971912D01*
X143069881Y-98965601D01*
X143253634Y-98811413D01*
X143261413Y-98803634D01*
X143415601Y-98619881D01*
X143421912Y-98610868D01*
X143541848Y-98403132D01*
X143546498Y-98393160D01*
X143628540Y-98167753D01*
X143631387Y-98157126D01*
X143673041Y-97920897D01*
X143674000Y-97909936D01*
X143674000Y-97670064D01*
X143673041Y-97659103D01*
X143631387Y-97422874D01*
X143628540Y-97412247D01*
X143546498Y-97186840D01*
X143541848Y-97176868D01*
X143421912Y-96969132D01*
X143415601Y-96960119D01*
X143261413Y-96776366D01*
X143253634Y-96768587D01*
X143069881Y-96614399D01*
X143060868Y-96608088D01*
X142908295Y-96520000D01*
X143060868Y-96431912D01*
X143069881Y-96425601D01*
X143253634Y-96271413D01*
X143261413Y-96263634D01*
X143415601Y-96079881D01*
X143421912Y-96070868D01*
X143541848Y-95863132D01*
X143546498Y-95853160D01*
X143628540Y-95627753D01*
X143631387Y-95617126D01*
X143673041Y-95380897D01*
X143674000Y-95369936D01*
X143674000Y-95130064D01*
X143673041Y-95119103D01*
X143631387Y-94882874D01*
X143628540Y-94872247D01*
X143546498Y-94646840D01*
X143541848Y-94636868D01*
X143421912Y-94429132D01*
X143415601Y-94420119D01*
X143261413Y-94236366D01*
X143253634Y-94228587D01*
X143069881Y-94074399D01*
X143060868Y-94068088D01*
X142853132Y-93948152D01*
X142843160Y-93943502D01*
X142617753Y-93861460D01*
X142607126Y-93858613D01*
X142370897Y-93816959D01*
X142359936Y-93816000D01*
X142120064Y-93816000D01*
X142109103Y-93816959D01*
X141872874Y-93858613D01*
X141862247Y-93861460D01*
X141636840Y-93943502D01*
X141626868Y-93948152D01*
X141419132Y-94068088D01*
X141410119Y-94074399D01*
X141226366Y-94228587D01*
X141218587Y-94236366D01*
X141064399Y-94420119D01*
X141058088Y-94429132D01*
X140938152Y-94636868D01*
X140933502Y-94646840D01*
X140851460Y-94872247D01*
X140848613Y-94882874D01*
X140806959Y-95119103D01*
X140806000Y-95130064D01*
X140806000Y-95369936D01*
X140806959Y-95380897D01*
X140848613Y-95617126D01*
X140851460Y-95627753D01*
X140933502Y-95853160D01*
X140938152Y-95863132D01*
X141058088Y-96070868D01*
X141064399Y-96079881D01*
X141218587Y-96263634D01*
X141226366Y-96271413D01*
X141410119Y-96425601D01*
X141419132Y-96431912D01*
X141571705Y-96520000D01*
X141419132Y-96608088D01*
X141410119Y-96614399D01*
X141226366Y-96768587D01*
X141218587Y-96776366D01*
X141064399Y-96960119D01*
X141058088Y-96969132D01*
X140938152Y-97176868D01*
X140933502Y-97186840D01*
X140851460Y-97412247D01*
X140848613Y-97422874D01*
X140806959Y-97659103D01*
X140806000Y-97670064D01*
X140806000Y-97909936D01*
X140806959Y-97920897D01*
X140848613Y-98157126D01*
X140851460Y-98167753D01*
X140933502Y-98393160D01*
X140938152Y-98403132D01*
X141058088Y-98610868D01*
X141064399Y-98619881D01*
X141218587Y-98803634D01*
X141226366Y-98811413D01*
X141410119Y-98965601D01*
X141419132Y-98971912D01*
X141571705Y-99060000D01*
X141419132Y-99148088D01*
X141410119Y-99154399D01*
X141226366Y-99308587D01*
X141218587Y-99316366D01*
X141064399Y-99500119D01*
X141058088Y-99509132D01*
X140938152Y-99716868D01*
X140933502Y-99726840D01*
X140851460Y-99952247D01*
X140848613Y-99962874D01*
X140806959Y-100199103D01*
X140806000Y-100210064D01*
X140806000Y-100449936D01*
X140806959Y-100460897D01*
X140848613Y-100697126D01*
X140851460Y-100707753D01*
X140933502Y-100933160D01*
X140938152Y-100943132D01*
X141058088Y-101150868D01*
X141064399Y-101159881D01*
X141218587Y-101343634D01*
X141226366Y-101351413D01*
X141343387Y-101449606D01*
X141136142Y-101505137D01*
X141111662Y-101517880D01*
X140955410Y-101648990D01*
X140941239Y-101665879D01*
X140840641Y-101840120D01*
X140833100Y-101860837D01*
X140799122Y-102053538D01*
X140798163Y-102064499D01*
X140798163Y-103506000D01*
X129558645Y-103506000D01*
X129571848Y-103483132D01*
X129576498Y-103473160D01*
X129658540Y-103247753D01*
X129661387Y-103237126D01*
X129703041Y-103000897D01*
X129704000Y-102989936D01*
X129704000Y-102750064D01*
X129703041Y-102739103D01*
X129661387Y-102502874D01*
X129658540Y-102492247D01*
X129576498Y-102266840D01*
X129571848Y-102256868D01*
X129451912Y-102049132D01*
X129445601Y-102040119D01*
X129291413Y-101856366D01*
X129283634Y-101848587D01*
X129099881Y-101694399D01*
X129090868Y-101688088D01*
X128938295Y-101600000D01*
X129090868Y-101511912D01*
X129099881Y-101505601D01*
X129283634Y-101351413D01*
X129291413Y-101343634D01*
X129445601Y-101159881D01*
X129451912Y-101150868D01*
X129571848Y-100943132D01*
X129576498Y-100933160D01*
X129658540Y-100707753D01*
X129661387Y-100697126D01*
X129703041Y-100460897D01*
X129704000Y-100449936D01*
X129704000Y-100210064D01*
X129703041Y-100199103D01*
X129661387Y-99962874D01*
X129658540Y-99952247D01*
X129576498Y-99726840D01*
X129571848Y-99716868D01*
X129451912Y-99509132D01*
X129445601Y-99500119D01*
X129291413Y-99316366D01*
X129283634Y-99308587D01*
X129099881Y-99154399D01*
X129090868Y-99148088D01*
X128938295Y-99060000D01*
X129090868Y-98971912D01*
X129099881Y-98965601D01*
X129283634Y-98811413D01*
X129291413Y-98803634D01*
X129445601Y-98619881D01*
X129451912Y-98610868D01*
X129571848Y-98403132D01*
X129576498Y-98393160D01*
X129658540Y-98167753D01*
X129661387Y-98157126D01*
X129703041Y-97920897D01*
X129704000Y-97909936D01*
X129704000Y-97670064D01*
X129703041Y-97659103D01*
X129661387Y-97422874D01*
X129658540Y-97412247D01*
X129576498Y-97186840D01*
X129571848Y-97176868D01*
X129451912Y-96969132D01*
X129445601Y-96960119D01*
X129291413Y-96776366D01*
X129283634Y-96768587D01*
X129099881Y-96614399D01*
X129090868Y-96608088D01*
X128938295Y-96520000D01*
X129090868Y-96431912D01*
X129099881Y-96425601D01*
X129283634Y-96271413D01*
X129291413Y-96263634D01*
X129445601Y-96079881D01*
X129451912Y-96070868D01*
X129571848Y-95863132D01*
X129576498Y-95853160D01*
X129658540Y-95627753D01*
X129661387Y-95617126D01*
X129703041Y-95380897D01*
X129704000Y-95369936D01*
X129704000Y-95130064D01*
X129703041Y-95119103D01*
X129661387Y-94882874D01*
X129658540Y-94872247D01*
X129576498Y-94646840D01*
X129571848Y-94636868D01*
X129451912Y-94429132D01*
X129445601Y-94420119D01*
X129291413Y-94236366D01*
X129283634Y-94228587D01*
X129099881Y-94074399D01*
X129090868Y-94068088D01*
X128883132Y-93948152D01*
X128873160Y-93943502D01*
X128647753Y-93861460D01*
X128637126Y-93858613D01*
X128400897Y-93816959D01*
X128389936Y-93816000D01*
X128150064Y-93816000D01*
X128139103Y-93816959D01*
X127902874Y-93858613D01*
X127892247Y-93861460D01*
X127666840Y-93943502D01*
X127656868Y-93948152D01*
X127449132Y-94068088D01*
X127440119Y-94074399D01*
X127256366Y-94228587D01*
X127248587Y-94236366D01*
X127094399Y-94420119D01*
X127088088Y-94429132D01*
X126968152Y-94636868D01*
X126963502Y-94646840D01*
X126881460Y-94872247D01*
X126878613Y-94882874D01*
X126836959Y-95119103D01*
X126836000Y-95130064D01*
X126836000Y-95369936D01*
X126836959Y-95380897D01*
X126878613Y-95617126D01*
X126881460Y-95627753D01*
X126963502Y-95853160D01*
X126968152Y-95863132D01*
X127088088Y-96070868D01*
X127094399Y-96079881D01*
X127248587Y-96263634D01*
X127256366Y-96271413D01*
X127440119Y-96425601D01*
X127449132Y-96431912D01*
X127601705Y-96520000D01*
X127449132Y-96608088D01*
X127440119Y-96614399D01*
X127256366Y-96768587D01*
X127248587Y-96776366D01*
X127094399Y-96960119D01*
X127088088Y-96969132D01*
X126968152Y-97176868D01*
X126963502Y-97186840D01*
X126881460Y-97412247D01*
X126878613Y-97422874D01*
X126836959Y-97659103D01*
X126836000Y-97670064D01*
X126836000Y-97909936D01*
X126836959Y-97920897D01*
X126878613Y-98157126D01*
X126881460Y-98167753D01*
X126963502Y-98393160D01*
X126968152Y-98403132D01*
X127088088Y-98610868D01*
X127094399Y-98619881D01*
X127248587Y-98803634D01*
X127256366Y-98811413D01*
X127440119Y-98965601D01*
X127449132Y-98971912D01*
X127601705Y-99060000D01*
X127449132Y-99148088D01*
X127440119Y-99154399D01*
X127256366Y-99308587D01*
X127248587Y-99316366D01*
X127094399Y-99500119D01*
X127088088Y-99509132D01*
X126968152Y-99716868D01*
X126963502Y-99726840D01*
X126881460Y-99952247D01*
X126878613Y-99962874D01*
X126836959Y-100199103D01*
X126836000Y-100210064D01*
X126836000Y-100449936D01*
X126836959Y-100460897D01*
X126878613Y-100697126D01*
X126881460Y-100707753D01*
X126963502Y-100933160D01*
X126968152Y-100943132D01*
X127088088Y-101150868D01*
X127094399Y-101159881D01*
X127248587Y-101343634D01*
X127256366Y-101351413D01*
X127440119Y-101505601D01*
X127449132Y-101511912D01*
X127601705Y-101600000D01*
X127449132Y-101688088D01*
X127440119Y-101694399D01*
X127256366Y-101848587D01*
X127248587Y-101856366D01*
X127094399Y-102040119D01*
X127088088Y-102049132D01*
X126968152Y-102256868D01*
X126963502Y-102266840D01*
X126881460Y-102492247D01*
X126878613Y-102502874D01*
X126836959Y-102739103D01*
X126836000Y-102750064D01*
X126836000Y-102989936D01*
X126836959Y-103000897D01*
X126878613Y-103237126D01*
X126881460Y-103247753D01*
X126963502Y-103473160D01*
X126968152Y-103483132D01*
X126981355Y-103506000D01*
X120014000Y-103506000D01*
X120014000Y-100461315D01*
X120187766Y-100461315D01*
X120188362Y-100471639D01*
X120241001Y-100846181D01*
X120243274Y-100856270D01*
X120356378Y-101217186D01*
X120360269Y-101226768D01*
X120530802Y-101564366D01*
X120536205Y-101573184D01*
X120759586Y-101878395D01*
X120766357Y-101886212D01*
X121036588Y-102150841D01*
X121044545Y-102157447D01*
X121354368Y-102374387D01*
X121363297Y-102379605D01*
X121704391Y-102543030D01*
X121714053Y-102546719D01*
X122077259Y-102652241D01*
X122087393Y-102654302D01*
X122462956Y-102699085D01*
X122473290Y-102699464D01*
X122851124Y-102682307D01*
X122861382Y-102680993D01*
X123231341Y-102602356D01*
X123241246Y-102599384D01*
X123593394Y-102461378D01*
X123602681Y-102456829D01*
X123927560Y-102263162D01*
X123935979Y-102257157D01*
X124224865Y-102013030D01*
X124232191Y-102005730D01*
X124477325Y-101717697D01*
X124483360Y-101709299D01*
X124678159Y-101385099D01*
X124682741Y-101375827D01*
X124821974Y-101024164D01*
X124824981Y-101014269D01*
X124905072Y-100643833D01*
X124906479Y-100632033D01*
X124918426Y-100143197D01*
X124917597Y-100131342D01*
X124855698Y-99757437D01*
X124853178Y-99747407D01*
X124731289Y-99389361D01*
X124727166Y-99379877D01*
X124548436Y-99046547D01*
X124542818Y-99037864D01*
X124312047Y-98738201D01*
X124305086Y-98730552D01*
X124028471Y-98472604D01*
X124020355Y-98466194D01*
X123705325Y-98256889D01*
X123696272Y-98251892D01*
X123351286Y-98096848D01*
X123341537Y-98093396D01*
X122975862Y-97996780D01*
X122965680Y-97994967D01*
X122589136Y-97959374D01*
X122578795Y-97959247D01*
X122201492Y-97985631D01*
X122191270Y-97987195D01*
X121823343Y-98074848D01*
X121813513Y-98078060D01*
X121464842Y-98224628D01*
X121455669Y-98229403D01*
X121135618Y-98430949D01*
X121127348Y-98437158D01*
X120844513Y-98688272D01*
X120837369Y-98695748D01*
X120599345Y-98989683D01*
X120593517Y-98998226D01*
X120406697Y-99327090D01*
X120402342Y-99336471D01*
X120271742Y-99691430D01*
X120268979Y-99701396D01*
X120198107Y-100072920D01*
X120197008Y-100083203D01*
X120187766Y-100461315D01*
X120014000Y-100461315D01*
X120014000Y-88868932D01*
X120519200Y-88868932D01*
X120534140Y-89106390D01*
X120535838Y-89117484D01*
X120592591Y-89348543D01*
X120596226Y-89359161D01*
X120693000Y-89576517D01*
X120698458Y-89586323D01*
X120832193Y-89783109D01*
X120839301Y-89791793D01*
X121005769Y-89961786D01*
X121014304Y-89969075D01*
X121208245Y-90106901D01*
X121217934Y-90112563D01*
X121338668Y-90169376D01*
X121282358Y-90192356D01*
X121272385Y-90197503D01*
X121071496Y-90324990D01*
X121062592Y-90331823D01*
X120887455Y-90492870D01*
X120879902Y-90501171D01*
X120736052Y-90690686D01*
X120730088Y-90700193D01*
X120622071Y-90912188D01*
X120617885Y-90922601D01*
X120549117Y-91150373D01*
X120546841Y-91161363D01*
X120519494Y-91397713D01*
X120519200Y-91408932D01*
X120534140Y-91646390D01*
X120535838Y-91657484D01*
X120592591Y-91888543D01*
X120596226Y-91899161D01*
X120693000Y-92116517D01*
X120698458Y-92126323D01*
X120832193Y-92323109D01*
X120839301Y-92331793D01*
X121005769Y-92501786D01*
X121014304Y-92509075D01*
X121208245Y-92646901D01*
X121217934Y-92652563D01*
X121433217Y-92753867D01*
X121443757Y-92757724D01*
X121673577Y-92819304D01*
X121684633Y-92821233D01*
X121921725Y-92841144D01*
X121932948Y-92841085D01*
X122169819Y-92818694D01*
X122180854Y-92816649D01*
X122410016Y-92752665D01*
X122420514Y-92748698D01*
X122634724Y-92645145D01*
X122644354Y-92639382D01*
X122836841Y-92499532D01*
X122845299Y-92492154D01*
X123009979Y-92320428D01*
X123016996Y-92311669D01*
X123148662Y-92113494D01*
X123154018Y-92103631D01*
X123190119Y-92020206D01*
X123233000Y-92116517D01*
X123238458Y-92126323D01*
X123372193Y-92323109D01*
X123379301Y-92331793D01*
X123545769Y-92501786D01*
X123554304Y-92509075D01*
X123748245Y-92646901D01*
X123757934Y-92652563D01*
X123973217Y-92753867D01*
X123983757Y-92757724D01*
X124213577Y-92819304D01*
X124224633Y-92821233D01*
X124461725Y-92841144D01*
X124472948Y-92841085D01*
X124709819Y-92818694D01*
X124720854Y-92816649D01*
X124950016Y-92752665D01*
X124960514Y-92748698D01*
X125174724Y-92645145D01*
X125184354Y-92639382D01*
X125376841Y-92499532D01*
X125385299Y-92492154D01*
X125549979Y-92320428D01*
X125556996Y-92311669D01*
X125688662Y-92113494D01*
X125694018Y-92103631D01*
X125730119Y-92020206D01*
X125773000Y-92116517D01*
X125778458Y-92126323D01*
X125912193Y-92323109D01*
X125919301Y-92331793D01*
X126085769Y-92501786D01*
X126094304Y-92509075D01*
X126288245Y-92646901D01*
X126297934Y-92652563D01*
X126513217Y-92753867D01*
X126523757Y-92757724D01*
X126753577Y-92819304D01*
X126764633Y-92821233D01*
X127001725Y-92841144D01*
X127012948Y-92841085D01*
X127249819Y-92818694D01*
X127260854Y-92816649D01*
X127490016Y-92752665D01*
X127500514Y-92748698D01*
X127714724Y-92645145D01*
X127724354Y-92639382D01*
X127916841Y-92499532D01*
X127925299Y-92492154D01*
X128089979Y-92320428D01*
X128096996Y-92311669D01*
X128228662Y-92113494D01*
X128234018Y-92103631D01*
X128328510Y-91885273D01*
X128332034Y-91874617D01*
X128386553Y-91642172D01*
X128388200Y-91629402D01*
X128396210Y-91323510D01*
X128395234Y-91310671D01*
X128352954Y-91075691D01*
X128349992Y-91064866D01*
X128267058Y-90841861D01*
X128262226Y-90831732D01*
X128141112Y-90626938D01*
X128134563Y-90617824D01*
X127979096Y-90437714D01*
X127971036Y-90429904D01*
X127786132Y-90280172D01*
X127776817Y-90273913D01*
X127584416Y-90168138D01*
X127714724Y-90105145D01*
X127724354Y-90099382D01*
X127916841Y-89959532D01*
X127925299Y-89952154D01*
X128089979Y-89780428D01*
X128096996Y-89771669D01*
X128228662Y-89573494D01*
X128234018Y-89563631D01*
X128328510Y-89345273D01*
X128332034Y-89334617D01*
X128386553Y-89102172D01*
X128388200Y-89089402D01*
X128393394Y-88891043D01*
X140751109Y-88891043D01*
X140769188Y-89131497D01*
X140770885Y-89142034D01*
X140829221Y-89376005D01*
X140832669Y-89386104D01*
X140929591Y-89606900D01*
X140934692Y-89616275D01*
X141067430Y-89817584D01*
X141074038Y-89825965D01*
X141238798Y-90002032D01*
X141246722Y-90009180D01*
X141438792Y-90154968D01*
X141447808Y-90160679D01*
X141661696Y-90272021D01*
X141671545Y-90276131D01*
X141901134Y-90349844D01*
X141911535Y-90352236D01*
X142150262Y-90386212D01*
X142160917Y-90386817D01*
X142401956Y-90380084D01*
X142412561Y-90378885D01*
X142649019Y-90331636D01*
X142659270Y-90328667D01*
X142884387Y-90242253D01*
X142893991Y-90237600D01*
X143101330Y-90114491D01*
X143110012Y-90108286D01*
X143293645Y-89952004D01*
X143301158Y-89944424D01*
X143327403Y-89913035D01*
X143365137Y-90053859D01*
X143377880Y-90078339D01*
X143508990Y-90234590D01*
X143525879Y-90248761D01*
X143700120Y-90349359D01*
X143720837Y-90356900D01*
X143913538Y-90390878D01*
X143924499Y-90391837D01*
X145638258Y-90391837D01*
X145654634Y-90389681D01*
X145933859Y-90314863D01*
X145958339Y-90302120D01*
X146114590Y-90171010D01*
X146128761Y-90154121D01*
X146229359Y-89979880D01*
X146236900Y-89959163D01*
X146270878Y-89766462D01*
X146271837Y-89755501D01*
X146271837Y-88041742D01*
X146269681Y-88025366D01*
X146194863Y-87746142D01*
X146182120Y-87721662D01*
X146051010Y-87565410D01*
X146034121Y-87551239D01*
X145859880Y-87450641D01*
X145839163Y-87443100D01*
X145646462Y-87409122D01*
X145635501Y-87408163D01*
X143921742Y-87408163D01*
X143905366Y-87410319D01*
X143626142Y-87485137D01*
X143601662Y-87497880D01*
X143445410Y-87628990D01*
X143431239Y-87645879D01*
X143330641Y-87820120D01*
X143323100Y-87840837D01*
X143317521Y-87872479D01*
X143313647Y-87868417D01*
X143133049Y-87708638D01*
X143124486Y-87702267D01*
X142919549Y-87575202D01*
X142910036Y-87570365D01*
X142686619Y-87479645D01*
X142676427Y-87476480D01*
X142440919Y-87424700D01*
X142430340Y-87423298D01*
X142189475Y-87411939D01*
X142178809Y-87412339D01*
X141939474Y-87441727D01*
X141929030Y-87443918D01*
X141698068Y-87513210D01*
X141688142Y-87517130D01*
X141472155Y-87624346D01*
X141463032Y-87629882D01*
X141268199Y-87771957D01*
X141260138Y-87778952D01*
X141092029Y-87951822D01*
X141085263Y-87960074D01*
X140948683Y-88158798D01*
X140943403Y-88168073D01*
X140842260Y-88386968D01*
X140838618Y-88397000D01*
X140775802Y-88629807D01*
X140773903Y-88640309D01*
X140751211Y-88880372D01*
X140751109Y-88891043D01*
X128393394Y-88891043D01*
X128396210Y-88783510D01*
X128395234Y-88770671D01*
X128352954Y-88535691D01*
X128349992Y-88524866D01*
X128267058Y-88301861D01*
X128262226Y-88291732D01*
X128141112Y-88086938D01*
X128134563Y-88077824D01*
X127979096Y-87897714D01*
X127971036Y-87889904D01*
X127786132Y-87740172D01*
X127776817Y-87733913D01*
X127568321Y-87619290D01*
X127558044Y-87614779D01*
X127332544Y-87538890D01*
X127321632Y-87536270D01*
X127086257Y-87501513D01*
X127075053Y-87500867D01*
X126837243Y-87508340D01*
X126826102Y-87509689D01*
X126593373Y-87559157D01*
X126582646Y-87562457D01*
X126362358Y-87652356D01*
X126352385Y-87657503D01*
X126151496Y-87784990D01*
X126142592Y-87791823D01*
X125967455Y-87952870D01*
X125959902Y-87961171D01*
X125816052Y-88150686D01*
X125810088Y-88160193D01*
X125731634Y-88314167D01*
X125727058Y-88301861D01*
X125722226Y-88291732D01*
X125601112Y-88086938D01*
X125594563Y-88077824D01*
X125439096Y-87897714D01*
X125431036Y-87889904D01*
X125246132Y-87740172D01*
X125236817Y-87733913D01*
X125028321Y-87619290D01*
X125018044Y-87614779D01*
X124792544Y-87538890D01*
X124781632Y-87536270D01*
X124546257Y-87501513D01*
X124535053Y-87500867D01*
X124297243Y-87508340D01*
X124286102Y-87509689D01*
X124053373Y-87559157D01*
X124042646Y-87562457D01*
X123822358Y-87652356D01*
X123812385Y-87657503D01*
X123611496Y-87784990D01*
X123602592Y-87791823D01*
X123427455Y-87952870D01*
X123419902Y-87961171D01*
X123276052Y-88150686D01*
X123270088Y-88160193D01*
X123191634Y-88314167D01*
X123187058Y-88301861D01*
X123182226Y-88291732D01*
X123061112Y-88086938D01*
X123054563Y-88077824D01*
X122899096Y-87897714D01*
X122891036Y-87889904D01*
X122706132Y-87740172D01*
X122696817Y-87733913D01*
X122488321Y-87619290D01*
X122478044Y-87614779D01*
X122252544Y-87538890D01*
X122241632Y-87536270D01*
X122006257Y-87501513D01*
X121995053Y-87500867D01*
X121757243Y-87508340D01*
X121746102Y-87509689D01*
X121513373Y-87559157D01*
X121502646Y-87562457D01*
X121282358Y-87652356D01*
X121272385Y-87657503D01*
X121071496Y-87784990D01*
X121062592Y-87791823D01*
X120887455Y-87952870D01*
X120879902Y-87961171D01*
X120736052Y-88150686D01*
X120730088Y-88160193D01*
X120622071Y-88372188D01*
X120617885Y-88382601D01*
X120549117Y-88610373D01*
X120546841Y-88621363D01*
X120519494Y-88857713D01*
X120519200Y-88868932D01*
X120014000Y-88868932D01*
X120014000Y-82934158D01*
X123324601Y-82934158D01*
X123325633Y-82946439D01*
X123363542Y-83152994D01*
X123366940Y-83164841D01*
X123444248Y-83360098D01*
X123449881Y-83371059D01*
X123563642Y-83547581D01*
X123571297Y-83557240D01*
X123717178Y-83708305D01*
X123726564Y-83716293D01*
X123899008Y-83836145D01*
X123909767Y-83842158D01*
X124102207Y-83926232D01*
X124113929Y-83930040D01*
X124319033Y-83975136D01*
X124331271Y-83976595D01*
X124541229Y-83980993D01*
X124553518Y-83980048D01*
X124760332Y-83943581D01*
X124772202Y-83940266D01*
X124967993Y-83864324D01*
X124978994Y-83858767D01*
X125156306Y-83746241D01*
X125166018Y-83738654D01*
X125318098Y-83593831D01*
X125326151Y-83584501D01*
X125447204Y-83412897D01*
X125453291Y-83402181D01*
X125538708Y-83210334D01*
X125542599Y-83198638D01*
X125589222Y-82993423D01*
X125590786Y-82980309D01*
X125594123Y-82741318D01*
X125592926Y-82728165D01*
X125552050Y-82521727D01*
X125548488Y-82509928D01*
X125468461Y-82315770D01*
X125462675Y-82304888D01*
X125346461Y-82129972D01*
X125338671Y-82120421D01*
X125190696Y-81971408D01*
X125181199Y-81963552D01*
X125007099Y-81846119D01*
X124996257Y-81840257D01*
X124802662Y-81758878D01*
X124790888Y-81755234D01*
X124585173Y-81713006D01*
X124572916Y-81711718D01*
X124362917Y-81710252D01*
X124350643Y-81711369D01*
X124144360Y-81750720D01*
X124132536Y-81754199D01*
X123937824Y-81832868D01*
X123926902Y-81838578D01*
X123751178Y-81953569D01*
X123741572Y-81961292D01*
X123591531Y-82108223D01*
X123583608Y-82117665D01*
X123464963Y-82290942D01*
X123459026Y-82301742D01*
X123376296Y-82494763D01*
X123372570Y-82506511D01*
X123328907Y-82711927D01*
X123327533Y-82724175D01*
X123324601Y-82934158D01*
X120014000Y-82934158D01*
X120014000Y-78534158D01*
X123324601Y-78534158D01*
X123325633Y-78546439D01*
X123363542Y-78752994D01*
X123366940Y-78764841D01*
X123444248Y-78960098D01*
X123449881Y-78971059D01*
X123563642Y-79147581D01*
X123571297Y-79157240D01*
X123717178Y-79308305D01*
X123726564Y-79316293D01*
X123899008Y-79436145D01*
X123909767Y-79442158D01*
X124102207Y-79526232D01*
X124113929Y-79530040D01*
X124319033Y-79575136D01*
X124331271Y-79576595D01*
X124541229Y-79580993D01*
X124553518Y-79580048D01*
X124760332Y-79543581D01*
X124772202Y-79540266D01*
X124967993Y-79464324D01*
X124978994Y-79458767D01*
X125156306Y-79346241D01*
X125166018Y-79338654D01*
X125318098Y-79193831D01*
X125326151Y-79184501D01*
X125447204Y-79012897D01*
X125453291Y-79002181D01*
X125538708Y-78810334D01*
X125542599Y-78798638D01*
X125589222Y-78593423D01*
X125590786Y-78580309D01*
X125594123Y-78341318D01*
X125592926Y-78328165D01*
X125552050Y-78121727D01*
X125548488Y-78109928D01*
X125468461Y-77915770D01*
X125462675Y-77904888D01*
X125346461Y-77729972D01*
X125338671Y-77720421D01*
X125190696Y-77571408D01*
X125181199Y-77563552D01*
X125007099Y-77446119D01*
X124996257Y-77440257D01*
X124802662Y-77358878D01*
X124790888Y-77355234D01*
X124585173Y-77313006D01*
X124572916Y-77311718D01*
X124362917Y-77310252D01*
X124350643Y-77311369D01*
X124144360Y-77350720D01*
X124132536Y-77354199D01*
X123937824Y-77432868D01*
X123926902Y-77438578D01*
X123751178Y-77553569D01*
X123741572Y-77561292D01*
X123591531Y-77708223D01*
X123583608Y-77717665D01*
X123464963Y-77890942D01*
X123459026Y-77901742D01*
X123376296Y-78094763D01*
X123372570Y-78106511D01*
X123328907Y-78311927D01*
X123327533Y-78324175D01*
X123324601Y-78534158D01*
X120014000Y-78534158D01*
X120014000Y-70453932D01*
X135759200Y-70453932D01*
X135774140Y-70691390D01*
X135775838Y-70702484D01*
X135832591Y-70933543D01*
X135836226Y-70944161D01*
X135933000Y-71161517D01*
X135938458Y-71171323D01*
X136072193Y-71368109D01*
X136079301Y-71376793D01*
X136245769Y-71546786D01*
X136254304Y-71554075D01*
X136448245Y-71691901D01*
X136457934Y-71697563D01*
X136673217Y-71798867D01*
X136683757Y-71802724D01*
X136913577Y-71864304D01*
X136924633Y-71866233D01*
X137161725Y-71886144D01*
X137172948Y-71886085D01*
X137409819Y-71863694D01*
X137420854Y-71861649D01*
X137650016Y-71797665D01*
X137660514Y-71793698D01*
X137874724Y-71690145D01*
X137884354Y-71684382D01*
X138076841Y-71544532D01*
X138085299Y-71537154D01*
X138249979Y-71365428D01*
X138256996Y-71356669D01*
X138388662Y-71158494D01*
X138394018Y-71148631D01*
X138430119Y-71065206D01*
X138473000Y-71161517D01*
X138478458Y-71171323D01*
X138612193Y-71368109D01*
X138619301Y-71376793D01*
X138785769Y-71546786D01*
X138794304Y-71554075D01*
X138988245Y-71691901D01*
X138997934Y-71697563D01*
X139213217Y-71798867D01*
X139223757Y-71802724D01*
X139453577Y-71864304D01*
X139464633Y-71866233D01*
X139701725Y-71886144D01*
X139712948Y-71886085D01*
X139949819Y-71863694D01*
X139960854Y-71861649D01*
X140190016Y-71797665D01*
X140200514Y-71793698D01*
X140414724Y-71690145D01*
X140424354Y-71684382D01*
X140616841Y-71544532D01*
X140625299Y-71537154D01*
X140789979Y-71365428D01*
X140796996Y-71356669D01*
X140928662Y-71158494D01*
X140934018Y-71148631D01*
X140970119Y-71065206D01*
X141013000Y-71161517D01*
X141018458Y-71171323D01*
X141152193Y-71368109D01*
X141159301Y-71376793D01*
X141325769Y-71546786D01*
X141334304Y-71554075D01*
X141528245Y-71691901D01*
X141537934Y-71697563D01*
X141753217Y-71798867D01*
X141763757Y-71802724D01*
X141993577Y-71864304D01*
X142004633Y-71866233D01*
X142241725Y-71886144D01*
X142252948Y-71886085D01*
X142489819Y-71863694D01*
X142500854Y-71861649D01*
X142730016Y-71797665D01*
X142740514Y-71793698D01*
X142954724Y-71690145D01*
X142964354Y-71684382D01*
X143156841Y-71544532D01*
X143165299Y-71537154D01*
X143329979Y-71365428D01*
X143336996Y-71356669D01*
X143468662Y-71158494D01*
X143474018Y-71148631D01*
X143510119Y-71065206D01*
X143553000Y-71161517D01*
X143558458Y-71171323D01*
X143692193Y-71368109D01*
X143699301Y-71376793D01*
X143865769Y-71546786D01*
X143874304Y-71554075D01*
X144068245Y-71691901D01*
X144077934Y-71697563D01*
X144293217Y-71798867D01*
X144303757Y-71802724D01*
X144533577Y-71864304D01*
X144544633Y-71866233D01*
X144781725Y-71886144D01*
X144792948Y-71886085D01*
X145029819Y-71863694D01*
X145040854Y-71861649D01*
X145270016Y-71797665D01*
X145280514Y-71793698D01*
X145494724Y-71690145D01*
X145504354Y-71684382D01*
X145696841Y-71544532D01*
X145705299Y-71537154D01*
X145869979Y-71365428D01*
X145876996Y-71356669D01*
X146008662Y-71158494D01*
X146014018Y-71148631D01*
X146050119Y-71065206D01*
X146093000Y-71161517D01*
X146098458Y-71171323D01*
X146232193Y-71368109D01*
X146239301Y-71376793D01*
X146405769Y-71546786D01*
X146414304Y-71554075D01*
X146608245Y-71691901D01*
X146617934Y-71697563D01*
X146833217Y-71798867D01*
X146843757Y-71802724D01*
X147073577Y-71864304D01*
X147084633Y-71866233D01*
X147321725Y-71886144D01*
X147332948Y-71886085D01*
X147569819Y-71863694D01*
X147580854Y-71861649D01*
X147810016Y-71797665D01*
X147820514Y-71793698D01*
X148034724Y-71690145D01*
X148044354Y-71684382D01*
X148236841Y-71544532D01*
X148245299Y-71537154D01*
X148409979Y-71365428D01*
X148416996Y-71356669D01*
X148548662Y-71158494D01*
X148554018Y-71148631D01*
X148590119Y-71065206D01*
X148633000Y-71161517D01*
X148638458Y-71171323D01*
X148772193Y-71368109D01*
X148779301Y-71376793D01*
X148945769Y-71546786D01*
X148954304Y-71554075D01*
X149148245Y-71691901D01*
X149157934Y-71697563D01*
X149373217Y-71798867D01*
X149383757Y-71802724D01*
X149613577Y-71864304D01*
X149624633Y-71866233D01*
X149861725Y-71886144D01*
X149872948Y-71886085D01*
X150109819Y-71863694D01*
X150120854Y-71861649D01*
X150350016Y-71797665D01*
X150360514Y-71793698D01*
X150574724Y-71690145D01*
X150584354Y-71684382D01*
X150776841Y-71544532D01*
X150785299Y-71537154D01*
X150949979Y-71365428D01*
X150956996Y-71356669D01*
X151088662Y-71158494D01*
X151094018Y-71148631D01*
X151130119Y-71065206D01*
X151173000Y-71161517D01*
X151178458Y-71171323D01*
X151312193Y-71368109D01*
X151319301Y-71376793D01*
X151485769Y-71546786D01*
X151494304Y-71554075D01*
X151688245Y-71691901D01*
X151697934Y-71697563D01*
X151913217Y-71798867D01*
X151923757Y-71802724D01*
X152153577Y-71864304D01*
X152164633Y-71866233D01*
X152401725Y-71886144D01*
X152412948Y-71886085D01*
X152649819Y-71863694D01*
X152660854Y-71861649D01*
X152890016Y-71797665D01*
X152900514Y-71793698D01*
X153114724Y-71690145D01*
X153124354Y-71684382D01*
X153316841Y-71544532D01*
X153325299Y-71537154D01*
X153489979Y-71365428D01*
X153496996Y-71356669D01*
X153628662Y-71158494D01*
X153634018Y-71148631D01*
X153670119Y-71065206D01*
X153713000Y-71161517D01*
X153718458Y-71171323D01*
X153852193Y-71368109D01*
X153859301Y-71376793D01*
X154025769Y-71546786D01*
X154034304Y-71554075D01*
X154228245Y-71691901D01*
X154237934Y-71697563D01*
X154453217Y-71798867D01*
X154463757Y-71802724D01*
X154693577Y-71864304D01*
X154704633Y-71866233D01*
X154941725Y-71886144D01*
X154952948Y-71886085D01*
X155189819Y-71863694D01*
X155200854Y-71861649D01*
X155430016Y-71797665D01*
X155440514Y-71793698D01*
X155654724Y-71690145D01*
X155664354Y-71684382D01*
X155856841Y-71544532D01*
X155865299Y-71537154D01*
X156029979Y-71365428D01*
X156036996Y-71356669D01*
X156168662Y-71158494D01*
X156174018Y-71148631D01*
X156268510Y-70930273D01*
X156272034Y-70919617D01*
X156326553Y-70687172D01*
X156328200Y-70674402D01*
X156336210Y-70368510D01*
X156335234Y-70355671D01*
X156292954Y-70120691D01*
X156289992Y-70109866D01*
X156207058Y-69886861D01*
X156202226Y-69876732D01*
X156081112Y-69671938D01*
X156074563Y-69662824D01*
X155919096Y-69482714D01*
X155911036Y-69474904D01*
X155726132Y-69325172D01*
X155716817Y-69318913D01*
X155508321Y-69204290D01*
X155498044Y-69199779D01*
X155272544Y-69123890D01*
X155261632Y-69121270D01*
X155026257Y-69086513D01*
X155015053Y-69085867D01*
X154777243Y-69093340D01*
X154766102Y-69094689D01*
X154533373Y-69144157D01*
X154522646Y-69147457D01*
X154302358Y-69237356D01*
X154292385Y-69242503D01*
X154091496Y-69369990D01*
X154082592Y-69376823D01*
X153907455Y-69537870D01*
X153899902Y-69546171D01*
X153756052Y-69735686D01*
X153750088Y-69745193D01*
X153671634Y-69899167D01*
X153667058Y-69886861D01*
X153662226Y-69876732D01*
X153541112Y-69671938D01*
X153534563Y-69662824D01*
X153379096Y-69482714D01*
X153371036Y-69474904D01*
X153186132Y-69325172D01*
X153176817Y-69318913D01*
X152968321Y-69204290D01*
X152958044Y-69199779D01*
X152732544Y-69123890D01*
X152721632Y-69121270D01*
X152486257Y-69086513D01*
X152475053Y-69085867D01*
X152237243Y-69093340D01*
X152226102Y-69094689D01*
X151993373Y-69144157D01*
X151982646Y-69147457D01*
X151762358Y-69237356D01*
X151752385Y-69242503D01*
X151551496Y-69369990D01*
X151542592Y-69376823D01*
X151367455Y-69537870D01*
X151359902Y-69546171D01*
X151216052Y-69735686D01*
X151210088Y-69745193D01*
X151131634Y-69899167D01*
X151127058Y-69886861D01*
X151122226Y-69876732D01*
X151001112Y-69671938D01*
X150994563Y-69662824D01*
X150839096Y-69482714D01*
X150831036Y-69474904D01*
X150646132Y-69325172D01*
X150636817Y-69318913D01*
X150428321Y-69204290D01*
X150418044Y-69199779D01*
X150192544Y-69123890D01*
X150181632Y-69121270D01*
X149946257Y-69086513D01*
X149935053Y-69085867D01*
X149697243Y-69093340D01*
X149686102Y-69094689D01*
X149453373Y-69144157D01*
X149442646Y-69147457D01*
X149222358Y-69237356D01*
X149212385Y-69242503D01*
X149011496Y-69369990D01*
X149002592Y-69376823D01*
X148827455Y-69537870D01*
X148819902Y-69546171D01*
X148676052Y-69735686D01*
X148670088Y-69745193D01*
X148591634Y-69899167D01*
X148587058Y-69886861D01*
X148582226Y-69876732D01*
X148461112Y-69671938D01*
X148454563Y-69662824D01*
X148299096Y-69482714D01*
X148291036Y-69474904D01*
X148106132Y-69325172D01*
X148096817Y-69318913D01*
X147888321Y-69204290D01*
X147878044Y-69199779D01*
X147652544Y-69123890D01*
X147641632Y-69121270D01*
X147406257Y-69086513D01*
X147395053Y-69085867D01*
X147157243Y-69093340D01*
X147146102Y-69094689D01*
X146913373Y-69144157D01*
X146902646Y-69147457D01*
X146682358Y-69237356D01*
X146672385Y-69242503D01*
X146471496Y-69369990D01*
X146462592Y-69376823D01*
X146287455Y-69537870D01*
X146279902Y-69546171D01*
X146136052Y-69735686D01*
X146130088Y-69745193D01*
X146051634Y-69899167D01*
X146047058Y-69886861D01*
X146042226Y-69876732D01*
X145921112Y-69671938D01*
X145914563Y-69662824D01*
X145759096Y-69482714D01*
X145751036Y-69474904D01*
X145566132Y-69325172D01*
X145556817Y-69318913D01*
X145348321Y-69204290D01*
X145338044Y-69199779D01*
X145112544Y-69123890D01*
X145101632Y-69121270D01*
X144866257Y-69086513D01*
X144855053Y-69085867D01*
X144617243Y-69093340D01*
X144606102Y-69094689D01*
X144373373Y-69144157D01*
X144362646Y-69147457D01*
X144142358Y-69237356D01*
X144132385Y-69242503D01*
X143931496Y-69369990D01*
X143922592Y-69376823D01*
X143747455Y-69537870D01*
X143739902Y-69546171D01*
X143596052Y-69735686D01*
X143590088Y-69745193D01*
X143511634Y-69899167D01*
X143507058Y-69886861D01*
X143502226Y-69876732D01*
X143381112Y-69671938D01*
X143374563Y-69662824D01*
X143219096Y-69482714D01*
X143211036Y-69474904D01*
X143026132Y-69325172D01*
X143016817Y-69318913D01*
X142808321Y-69204290D01*
X142798044Y-69199779D01*
X142572544Y-69123890D01*
X142561632Y-69121270D01*
X142326257Y-69086513D01*
X142315053Y-69085867D01*
X142077243Y-69093340D01*
X142066102Y-69094689D01*
X141833373Y-69144157D01*
X141822646Y-69147457D01*
X141602358Y-69237356D01*
X141592385Y-69242503D01*
X141391496Y-69369990D01*
X141382592Y-69376823D01*
X141207455Y-69537870D01*
X141199902Y-69546171D01*
X141056052Y-69735686D01*
X141050088Y-69745193D01*
X140971634Y-69899167D01*
X140967058Y-69886861D01*
X140962226Y-69876732D01*
X140841112Y-69671938D01*
X140834563Y-69662824D01*
X140679096Y-69482714D01*
X140671036Y-69474904D01*
X140486132Y-69325172D01*
X140476817Y-69318913D01*
X140268321Y-69204290D01*
X140258044Y-69199779D01*
X140032544Y-69123890D01*
X140021632Y-69121270D01*
X139786257Y-69086513D01*
X139775053Y-69085867D01*
X139537243Y-69093340D01*
X139526102Y-69094689D01*
X139293373Y-69144157D01*
X139282646Y-69147457D01*
X139062358Y-69237356D01*
X139052385Y-69242503D01*
X138851496Y-69369990D01*
X138842592Y-69376823D01*
X138667455Y-69537870D01*
X138659902Y-69546171D01*
X138516052Y-69735686D01*
X138510088Y-69745193D01*
X138431634Y-69899167D01*
X138427058Y-69886861D01*
X138422226Y-69876732D01*
X138301112Y-69671938D01*
X138294563Y-69662824D01*
X138139096Y-69482714D01*
X138131036Y-69474904D01*
X137946132Y-69325172D01*
X137936817Y-69318913D01*
X137728321Y-69204290D01*
X137718044Y-69199779D01*
X137492544Y-69123890D01*
X137481632Y-69121270D01*
X137246257Y-69086513D01*
X137235053Y-69085867D01*
X136997243Y-69093340D01*
X136986102Y-69094689D01*
X136753373Y-69144157D01*
X136742646Y-69147457D01*
X136522358Y-69237356D01*
X136512385Y-69242503D01*
X136311496Y-69369990D01*
X136302592Y-69376823D01*
X136127455Y-69537870D01*
X136119902Y-69546171D01*
X135976052Y-69735686D01*
X135970088Y-69745193D01*
X135862071Y-69957188D01*
X135857885Y-69967601D01*
X135789117Y-70195373D01*
X135786841Y-70206363D01*
X135759494Y-70442713D01*
X135759200Y-70453932D01*
X120014000Y-70453932D01*
X120014000Y-64901315D01*
X120187766Y-64901315D01*
X120188362Y-64911639D01*
X120241001Y-65286181D01*
X120243274Y-65296270D01*
X120356378Y-65657186D01*
X120360269Y-65666768D01*
X120530802Y-66004366D01*
X120536205Y-66013184D01*
X120759586Y-66318395D01*
X120766357Y-66326212D01*
X121036588Y-66590841D01*
X121044545Y-66597447D01*
X121354368Y-66814387D01*
X121363297Y-66819605D01*
X121704391Y-66983030D01*
X121714053Y-66986719D01*
X122077259Y-67092241D01*
X122087393Y-67094302D01*
X122462956Y-67139085D01*
X122473290Y-67139464D01*
X122851124Y-67122307D01*
X122861382Y-67120993D01*
X123231341Y-67042356D01*
X123241246Y-67039384D01*
X123593394Y-66901378D01*
X123602681Y-66896829D01*
X123927560Y-66703162D01*
X123935979Y-66697157D01*
X124224865Y-66453030D01*
X124232191Y-66445730D01*
X124477325Y-66157697D01*
X124483360Y-66149299D01*
X124678159Y-65825099D01*
X124682741Y-65815827D01*
X124821974Y-65464164D01*
X124824981Y-65454269D01*
X124905072Y-65083833D01*
X124906479Y-65072033D01*
X124910651Y-64901315D01*
X167177766Y-64901315D01*
X167178362Y-64911639D01*
X167231001Y-65286181D01*
X167233274Y-65296270D01*
X167346378Y-65657186D01*
X167350269Y-65666768D01*
X167520802Y-66004366D01*
X167526205Y-66013184D01*
X167749586Y-66318395D01*
X167756357Y-66326212D01*
X168026588Y-66590841D01*
X168034545Y-66597447D01*
X168344368Y-66814387D01*
X168353297Y-66819605D01*
X168694391Y-66983030D01*
X168704053Y-66986719D01*
X169067259Y-67092241D01*
X169077393Y-67094302D01*
X169452956Y-67139085D01*
X169463290Y-67139464D01*
X169841124Y-67122307D01*
X169851382Y-67120993D01*
X170221341Y-67042356D01*
X170231246Y-67039384D01*
X170583394Y-66901378D01*
X170592681Y-66896829D01*
X170917560Y-66703162D01*
X170925979Y-66697157D01*
X171214865Y-66453030D01*
X171222191Y-66445730D01*
X171467325Y-66157697D01*
X171473360Y-66149299D01*
X171668159Y-65825099D01*
X171672741Y-65815827D01*
X171811974Y-65464164D01*
X171814981Y-65454269D01*
X171895072Y-65083833D01*
X171896479Y-65072033D01*
X171908426Y-64583197D01*
X171907597Y-64571342D01*
X171845698Y-64197437D01*
X171843178Y-64187407D01*
X171721289Y-63829361D01*
X171717166Y-63819877D01*
X171538436Y-63486547D01*
X171532818Y-63477864D01*
X171302047Y-63178201D01*
X171295086Y-63170552D01*
X171018471Y-62912604D01*
X171010355Y-62906194D01*
X170695325Y-62696889D01*
X170686272Y-62691892D01*
X170341286Y-62536848D01*
X170331537Y-62533396D01*
X169965862Y-62436780D01*
X169955680Y-62434967D01*
X169579136Y-62399374D01*
X169568795Y-62399247D01*
X169191492Y-62425631D01*
X169181270Y-62427195D01*
X168813343Y-62514848D01*
X168803513Y-62518060D01*
X168454842Y-62664628D01*
X168445669Y-62669403D01*
X168125618Y-62870949D01*
X168117348Y-62877158D01*
X167834513Y-63128272D01*
X167827369Y-63135748D01*
X167589345Y-63429683D01*
X167583517Y-63438226D01*
X167396697Y-63767090D01*
X167392342Y-63776471D01*
X167261742Y-64131430D01*
X167258979Y-64141396D01*
X167188107Y-64512920D01*
X167187008Y-64523203D01*
X167177766Y-64901315D01*
X124910651Y-64901315D01*
X124918426Y-64583197D01*
X124917597Y-64571342D01*
X124855698Y-64197437D01*
X124853178Y-64187407D01*
X124731289Y-63829361D01*
X124727166Y-63819877D01*
X124548436Y-63486547D01*
X124542818Y-63477864D01*
X124312047Y-63178201D01*
X124305086Y-63170552D01*
X124028471Y-62912604D01*
X124020355Y-62906194D01*
X123705325Y-62696889D01*
X123696272Y-62691892D01*
X123351286Y-62536848D01*
X123341537Y-62533396D01*
X122975862Y-62436780D01*
X122965680Y-62434967D01*
X122589136Y-62399374D01*
X122578795Y-62399247D01*
X122201492Y-62425631D01*
X122191270Y-62427195D01*
X121823343Y-62514848D01*
X121813513Y-62518060D01*
X121464842Y-62664628D01*
X121455669Y-62669403D01*
X121135618Y-62870949D01*
X121127348Y-62877158D01*
X120844513Y-63128272D01*
X120837369Y-63135748D01*
X120599345Y-63429683D01*
X120593517Y-63438226D01*
X120406697Y-63767090D01*
X120402342Y-63776471D01*
X120271742Y-64131430D01*
X120268979Y-64141396D01*
X120198107Y-64512920D01*
X120197008Y-64523203D01*
X120187766Y-64901315D01*
X120014000Y-64901315D01*
X120014000Y-61594000D01*
X136577869Y-61594000D01*
X136673217Y-61638868D01*
G37*
D16*
X136673217Y-61638868D02*
X136683757Y-61642724D01*
X136913577Y-61704304D01*
X136924633Y-61706233D01*
X137161725Y-61726144D01*
X137172948Y-61726085D01*
X137409819Y-61703694D01*
X137420854Y-61701649D01*
X137650016Y-61637665D01*
X137660514Y-61633698D01*
X137742633Y-61594000D01*
X139117869Y-61594000D01*
X139213217Y-61638868D01*
X139223757Y-61642724D01*
X139453577Y-61704304D01*
X139464633Y-61706233D01*
X139701725Y-61726144D01*
X139712948Y-61726085D01*
X139949819Y-61703694D01*
X139960854Y-61701649D01*
X140190016Y-61637665D01*
X140200514Y-61633698D01*
X140282633Y-61594000D01*
X141657869Y-61594000D01*
X141753217Y-61638868D01*
X141763757Y-61642724D01*
X141993577Y-61704304D01*
X142004633Y-61706233D01*
X142241725Y-61726144D01*
X142252948Y-61726085D01*
X142489819Y-61703694D01*
X142500854Y-61701649D01*
X142730016Y-61637665D01*
X142740514Y-61633698D01*
X142822633Y-61594000D01*
X144197869Y-61594000D01*
X144293217Y-61638868D01*
X144303757Y-61642724D01*
X144533577Y-61704304D01*
X144544633Y-61706233D01*
X144781725Y-61726144D01*
X144792948Y-61726085D01*
X145029819Y-61703694D01*
X145040854Y-61701649D01*
X145270016Y-61637665D01*
X145280514Y-61633698D01*
X145362633Y-61594000D01*
X146737869Y-61594000D01*
X146833217Y-61638868D01*
X146843757Y-61642724D01*
X147073577Y-61704304D01*
X147084633Y-61706233D01*
X147321725Y-61726144D01*
X147332948Y-61726085D01*
X147569819Y-61703694D01*
X147580854Y-61701649D01*
X147810016Y-61637665D01*
X147820514Y-61633698D01*
X147902633Y-61594000D01*
X149277869Y-61594000D01*
X149373217Y-61638868D01*
X149383757Y-61642724D01*
X149613577Y-61704304D01*
X149624633Y-61706233D01*
X149861725Y-61726144D01*
X149872948Y-61726085D01*
X150109819Y-61703694D01*
X150120854Y-61701649D01*
X150350016Y-61637665D01*
X150360514Y-61633698D01*
X150442633Y-61594000D01*
X151817869Y-61594000D01*
X151913217Y-61638868D01*
X151923757Y-61642724D01*
X152153577Y-61704304D01*
X152164633Y-61706233D01*
X152401725Y-61726144D01*
X152412948Y-61726085D01*
X152649819Y-61703694D01*
X152660854Y-61701649D01*
X152890016Y-61637665D01*
X152900514Y-61633698D01*
X152982633Y-61594000D01*
X154357869Y-61594000D01*
X154453217Y-61638868D01*
X154463757Y-61642724D01*
X154693577Y-61704304D01*
X154704633Y-61706233D01*
X154941725Y-61726144D01*
X154952948Y-61726085D01*
X155189819Y-61703694D01*
X155200854Y-61701649D01*
X155430016Y-61637665D01*
X155440514Y-61633698D01*
X155522633Y-61594000D01*
X172086000Y-61594000D01*
X172086001Y-103506000D01*
X165271837Y-103506000D01*
X165271837Y-102061742D01*
X165269681Y-102045366D01*
X165194863Y-101766142D01*
X165182120Y-101741662D01*
X165051010Y-101585410D01*
X165034121Y-101571239D01*
X164859880Y-101470641D01*
X164839163Y-101463100D01*
X164732868Y-101444357D01*
X164843634Y-101351413D01*
X164851413Y-101343634D01*
X165005601Y-101159881D01*
X165011912Y-101150868D01*
X165131848Y-100943132D01*
X165136498Y-100933160D01*
X165218540Y-100707753D01*
X165221387Y-100697126D01*
X165262967Y-100461315D01*
X167177766Y-100461315D01*
X167178362Y-100471639D01*
X167231001Y-100846181D01*
X167233274Y-100856270D01*
X167346378Y-101217186D01*
X167350269Y-101226768D01*
X167520802Y-101564366D01*
X167526205Y-101573184D01*
X167749586Y-101878395D01*
X167756357Y-101886212D01*
X168026588Y-102150841D01*
X168034545Y-102157447D01*
X168344368Y-102374387D01*
X168353297Y-102379605D01*
X168694391Y-102543030D01*
X168704053Y-102546719D01*
X169067259Y-102652241D01*
X169077393Y-102654302D01*
X169452956Y-102699085D01*
X169463290Y-102699464D01*
X169841124Y-102682307D01*
X169851382Y-102680993D01*
X170221341Y-102602356D01*
X170231246Y-102599384D01*
X170583394Y-102461378D01*
X170592681Y-102456829D01*
X170917560Y-102263162D01*
X170925979Y-102257157D01*
X171214865Y-102013030D01*
X171222191Y-102005730D01*
X171467325Y-101717697D01*
X171473360Y-101709299D01*
X171668159Y-101385099D01*
X171672741Y-101375827D01*
X171811974Y-101024164D01*
X171814981Y-101014269D01*
X171895072Y-100643833D01*
X171896479Y-100632033D01*
X171908426Y-100143197D01*
X171907597Y-100131342D01*
X171845698Y-99757437D01*
X171843178Y-99747407D01*
X171721289Y-99389361D01*
X171717166Y-99379877D01*
X171538436Y-99046547D01*
X171532818Y-99037864D01*
X171302047Y-98738201D01*
X171295086Y-98730552D01*
X171018471Y-98472604D01*
X171010355Y-98466194D01*
X170695325Y-98256889D01*
X170686272Y-98251892D01*
X170341286Y-98096848D01*
X170331537Y-98093396D01*
X169965862Y-97996780D01*
X169955680Y-97994967D01*
X169579136Y-97959374D01*
X169568795Y-97959247D01*
X169191492Y-97985631D01*
X169181270Y-97987195D01*
X168813343Y-98074848D01*
X168803513Y-98078060D01*
X168454842Y-98224628D01*
X168445669Y-98229403D01*
X168125618Y-98430949D01*
X168117348Y-98437158D01*
X167834513Y-98688272D01*
X167827369Y-98695748D01*
X167589345Y-98989683D01*
X167583517Y-98998226D01*
X167396697Y-99327090D01*
X167392342Y-99336471D01*
X167261742Y-99691430D01*
X167258979Y-99701396D01*
X167188107Y-100072920D01*
X167187008Y-100083203D01*
X167177766Y-100461315D01*
X165262967Y-100461315D01*
X165263041Y-100460897D01*
X165264000Y-100449936D01*
X165264000Y-100210064D01*
X165263041Y-100199103D01*
X165221387Y-99962874D01*
X165218540Y-99952247D01*
X165136498Y-99726840D01*
X165131848Y-99716868D01*
X165011912Y-99509132D01*
X165005601Y-99500119D01*
X164851413Y-99316366D01*
X164843634Y-99308587D01*
X164659881Y-99154399D01*
X164650868Y-99148088D01*
X164498295Y-99060000D01*
X164650868Y-98971912D01*
X164659881Y-98965601D01*
X164843634Y-98811413D01*
X164851413Y-98803634D01*
X165005601Y-98619881D01*
X165011912Y-98610868D01*
X165131848Y-98403132D01*
X165136498Y-98393160D01*
X165218540Y-98167753D01*
X165221387Y-98157126D01*
X165263041Y-97920897D01*
X165264000Y-97909936D01*
X165264000Y-97670064D01*
X165263041Y-97659103D01*
X165221387Y-97422874D01*
X165218540Y-97412247D01*
X165136498Y-97186840D01*
X165131848Y-97176868D01*
X165011912Y-96969132D01*
X165005601Y-96960119D01*
X164851413Y-96776366D01*
X164843634Y-96768587D01*
X164659881Y-96614399D01*
X164650868Y-96608088D01*
X164498295Y-96520000D01*
X164650868Y-96431912D01*
X164659881Y-96425601D01*
X164843634Y-96271413D01*
X164851413Y-96263634D01*
X165005601Y-96079881D01*
X165011912Y-96070868D01*
X165131848Y-95863132D01*
X165136498Y-95853160D01*
X165218540Y-95627753D01*
X165221387Y-95617126D01*
X165263041Y-95380897D01*
X165264000Y-95369936D01*
X165264000Y-95130064D01*
X165263041Y-95119103D01*
X165221387Y-94882874D01*
X165218540Y-94872247D01*
X165136498Y-94646840D01*
X165131848Y-94636868D01*
X165011912Y-94429132D01*
X165005601Y-94420119D01*
X164851413Y-94236366D01*
X164843634Y-94228587D01*
X164659881Y-94074399D01*
X164650868Y-94068088D01*
X164443132Y-93948152D01*
X164433160Y-93943502D01*
X164207753Y-93861460D01*
X164197126Y-93858613D01*
X163960897Y-93816959D01*
X163949936Y-93816000D01*
X163710064Y-93816000D01*
X163699103Y-93816959D01*
X163462874Y-93858613D01*
X163452247Y-93861460D01*
X163226840Y-93943502D01*
X163216868Y-93948152D01*
X163009132Y-94068088D01*
X163000119Y-94074399D01*
X162816366Y-94228587D01*
X162808587Y-94236366D01*
X162654399Y-94420119D01*
X162648088Y-94429132D01*
X162528152Y-94636868D01*
X162523502Y-94646840D01*
X162441460Y-94872247D01*
X162438613Y-94882874D01*
X162396959Y-95119103D01*
X162396000Y-95130064D01*
X162396000Y-95369936D01*
X162396959Y-95380897D01*
X162438613Y-95617126D01*
X162441460Y-95627753D01*
X162523502Y-95853160D01*
X162528152Y-95863132D01*
X162648088Y-96070868D01*
X162654399Y-96079881D01*
X162808587Y-96263634D01*
X162816366Y-96271413D01*
X163000119Y-96425601D01*
X163009132Y-96431912D01*
X163161705Y-96520000D01*
X163009132Y-96608088D01*
X163000119Y-96614399D01*
X162816366Y-96768587D01*
X162808587Y-96776366D01*
X162654399Y-96960119D01*
X162648088Y-96969132D01*
X162528152Y-97176868D01*
X162523502Y-97186840D01*
X162441460Y-97412247D01*
X162438613Y-97422874D01*
X162396959Y-97659103D01*
X162396000Y-97670064D01*
X162396000Y-97909936D01*
X162396959Y-97920897D01*
X162438613Y-98157126D01*
X162441460Y-98167753D01*
X162523502Y-98393160D01*
X162528152Y-98403132D01*
X162648088Y-98610868D01*
X162654399Y-98619881D01*
X162808587Y-98803634D01*
X162816366Y-98811413D01*
X163000119Y-98965601D01*
X163009132Y-98971912D01*
X163161705Y-99060000D01*
X163009132Y-99148088D01*
X163000119Y-99154399D01*
X162816366Y-99308587D01*
X162808587Y-99316366D01*
X162654399Y-99500119D01*
X162648088Y-99509132D01*
X162528152Y-99716868D01*
X162523502Y-99726840D01*
X162441460Y-99952247D01*
X162438613Y-99962874D01*
X162396959Y-100199103D01*
X162396000Y-100210064D01*
X162396000Y-100449936D01*
X162396959Y-100460897D01*
X162438613Y-100697126D01*
X162441460Y-100707753D01*
X162523502Y-100933160D01*
X162528152Y-100943132D01*
X162648088Y-101150868D01*
X162654399Y-101159881D01*
X162808587Y-101343634D01*
X162816366Y-101351413D01*
X162933387Y-101449606D01*
X162726142Y-101505137D01*
X162701662Y-101517880D01*
X162545410Y-101648990D01*
X162531239Y-101665879D01*
X162430641Y-101840120D01*
X162423100Y-101860837D01*
X162389122Y-102053538D01*
X162388163Y-102064499D01*
X162388163Y-103506000D01*
X151148645Y-103506000D01*
X151161848Y-103483132D01*
X151166498Y-103473160D01*
X151248540Y-103247753D01*
X151251387Y-103237126D01*
X151293041Y-103000897D01*
X151294000Y-102989936D01*
X151294000Y-102750064D01*
X151293041Y-102739103D01*
X151251387Y-102502874D01*
X151248540Y-102492247D01*
X151166498Y-102266840D01*
X151161848Y-102256868D01*
X151041912Y-102049132D01*
X151035601Y-102040119D01*
X150881413Y-101856366D01*
X150873634Y-101848587D01*
X150689881Y-101694399D01*
X150680868Y-101688088D01*
X150528295Y-101600000D01*
X150680868Y-101511912D01*
X150689881Y-101505601D01*
X150873634Y-101351413D01*
X150881413Y-101343634D01*
X151035601Y-101159881D01*
X151041912Y-101150868D01*
X151161848Y-100943132D01*
X151166498Y-100933160D01*
X151248540Y-100707753D01*
X151251387Y-100697126D01*
X151293041Y-100460897D01*
X151294000Y-100449936D01*
X151294000Y-100210064D01*
X151293041Y-100199103D01*
X151251387Y-99962874D01*
X151248540Y-99952247D01*
X151166498Y-99726840D01*
X151161848Y-99716868D01*
X151041912Y-99509132D01*
X151035601Y-99500119D01*
X150881413Y-99316366D01*
X150873634Y-99308587D01*
X150689881Y-99154399D01*
X150680868Y-99148088D01*
X150528295Y-99060000D01*
X150680868Y-98971912D01*
X150689881Y-98965601D01*
X150873634Y-98811413D01*
X150881413Y-98803634D01*
X151035601Y-98619881D01*
X151041912Y-98610868D01*
X151161848Y-98403132D01*
X151166498Y-98393160D01*
X151248540Y-98167753D01*
X151251387Y-98157126D01*
X151293041Y-97920897D01*
X151294000Y-97909936D01*
X151294000Y-97670064D01*
X151293041Y-97659103D01*
X151251387Y-97422874D01*
X151248540Y-97412247D01*
X151166498Y-97186840D01*
X151161848Y-97176868D01*
X151041912Y-96969132D01*
X151035601Y-96960119D01*
X150881413Y-96776366D01*
X150873634Y-96768587D01*
X150689881Y-96614399D01*
X150680868Y-96608088D01*
X150528295Y-96520000D01*
X150680868Y-96431912D01*
X150689881Y-96425601D01*
X150873634Y-96271413D01*
X150881413Y-96263634D01*
X151035601Y-96079881D01*
X151041912Y-96070868D01*
X151161848Y-95863132D01*
X151166498Y-95853160D01*
X151248540Y-95627753D01*
X151251387Y-95617126D01*
X151293041Y-95380897D01*
X151294000Y-95369936D01*
X151294000Y-95130064D01*
X151293041Y-95119103D01*
X151251387Y-94882874D01*
X151248540Y-94872247D01*
X151166498Y-94646840D01*
X151161848Y-94636868D01*
X151041912Y-94429132D01*
X151035601Y-94420119D01*
X150881413Y-94236366D01*
X150873634Y-94228587D01*
X150689881Y-94074399D01*
X150680868Y-94068088D01*
X150473132Y-93948152D01*
X150463160Y-93943502D01*
X150237753Y-93861460D01*
X150227126Y-93858613D01*
X149990897Y-93816959D01*
X149979936Y-93816000D01*
X149740064Y-93816000D01*
X149729103Y-93816959D01*
X149492874Y-93858613D01*
X149482247Y-93861460D01*
X149256840Y-93943502D01*
X149246868Y-93948152D01*
X149039132Y-94068088D01*
X149030119Y-94074399D01*
X148846366Y-94228587D01*
X148838587Y-94236366D01*
X148684399Y-94420119D01*
X148678088Y-94429132D01*
X148558152Y-94636868D01*
X148553502Y-94646840D01*
X148471460Y-94872247D01*
X148468613Y-94882874D01*
X148426959Y-95119103D01*
X148426000Y-95130064D01*
X148426000Y-95369936D01*
X148426959Y-95380897D01*
X148468613Y-95617126D01*
X148471460Y-95627753D01*
X148553502Y-95853160D01*
X148558152Y-95863132D01*
X148678088Y-96070868D01*
X148684399Y-96079881D01*
X148838587Y-96263634D01*
X148846366Y-96271413D01*
X149030119Y-96425601D01*
X149039132Y-96431912D01*
X149191705Y-96520000D01*
X149039132Y-96608088D01*
X149030119Y-96614399D01*
X148846366Y-96768587D01*
X148838587Y-96776366D01*
X148684399Y-96960119D01*
X148678088Y-96969132D01*
X148558152Y-97176868D01*
X148553502Y-97186840D01*
X148471460Y-97412247D01*
X148468613Y-97422874D01*
X148426959Y-97659103D01*
X148426000Y-97670064D01*
X148426000Y-97909936D01*
X148426959Y-97920897D01*
X148468613Y-98157126D01*
X148471460Y-98167753D01*
X148553502Y-98393160D01*
X148558152Y-98403132D01*
X148678088Y-98610868D01*
X148684399Y-98619881D01*
X148838587Y-98803634D01*
X148846366Y-98811413D01*
X149030119Y-98965601D01*
X149039132Y-98971912D01*
X149191705Y-99060000D01*
X149039132Y-99148088D01*
X149030119Y-99154399D01*
X148846366Y-99308587D01*
X148838587Y-99316366D01*
X148684399Y-99500119D01*
X148678088Y-99509132D01*
X148558152Y-99716868D01*
X148553502Y-99726840D01*
X148471460Y-99952247D01*
X148468613Y-99962874D01*
X148426959Y-100199103D01*
X148426000Y-100210064D01*
X148426000Y-100449936D01*
X148426959Y-100460897D01*
X148468613Y-100697126D01*
X148471460Y-100707753D01*
X148553502Y-100933160D01*
X148558152Y-100943132D01*
X148678088Y-101150868D01*
X148684399Y-101159881D01*
X148838587Y-101343634D01*
X148846366Y-101351413D01*
X149030119Y-101505601D01*
X149039132Y-101511912D01*
X149191705Y-101600000D01*
X149039132Y-101688088D01*
X149030119Y-101694399D01*
X148846366Y-101848587D01*
X148838587Y-101856366D01*
X148684399Y-102040119D01*
X148678088Y-102049132D01*
X148558152Y-102256868D01*
X148553502Y-102266840D01*
X148471460Y-102492247D01*
X148468613Y-102502874D01*
X148426959Y-102739103D01*
X148426000Y-102750064D01*
X148426000Y-102989936D01*
X148426959Y-103000897D01*
X148468613Y-103237126D01*
X148471460Y-103247753D01*
X148553502Y-103473160D01*
X148558152Y-103483132D01*
X148571355Y-103506000D01*
X143681837Y-103506000D01*
X143681837Y-102061742D01*
X143679681Y-102045366D01*
X143604863Y-101766142D01*
X143592120Y-101741662D01*
X143461010Y-101585410D01*
X143444121Y-101571239D01*
X143269880Y-101470641D01*
X143249163Y-101463100D01*
X143142868Y-101444357D01*
X143253634Y-101351413D01*
X143261413Y-101343634D01*
X143415601Y-101159881D01*
X143421912Y-101150868D01*
X143541848Y-100943132D01*
X143546498Y-100933160D01*
X143628540Y-100707753D01*
X143631387Y-100697126D01*
X143673041Y-100460897D01*
X143674000Y-100449936D01*
X143674000Y-100210064D01*
X143673041Y-100199103D01*
X143631387Y-99962874D01*
X143628540Y-99952247D01*
X143546498Y-99726840D01*
X143541848Y-99716868D01*
X143421912Y-99509132D01*
X143415601Y-99500119D01*
X143261413Y-99316366D01*
X143253634Y-99308587D01*
X143069881Y-99154399D01*
X143060868Y-99148088D01*
X142908295Y-99060000D01*
X143060868Y-98971912D01*
X143069881Y-98965601D01*
X143253634Y-98811413D01*
X143261413Y-98803634D01*
X143415601Y-98619881D01*
X143421912Y-98610868D01*
X143541848Y-98403132D01*
X143546498Y-98393160D01*
X143628540Y-98167753D01*
X143631387Y-98157126D01*
X143673041Y-97920897D01*
X143674000Y-97909936D01*
X143674000Y-97670064D01*
X143673041Y-97659103D01*
X143631387Y-97422874D01*
X143628540Y-97412247D01*
X143546498Y-97186840D01*
X143541848Y-97176868D01*
X143421912Y-96969132D01*
X143415601Y-96960119D01*
X143261413Y-96776366D01*
X143253634Y-96768587D01*
X143069881Y-96614399D01*
X143060868Y-96608088D01*
X142908295Y-96520000D01*
X143060868Y-96431912D01*
X143069881Y-96425601D01*
X143253634Y-96271413D01*
X143261413Y-96263634D01*
X143415601Y-96079881D01*
X143421912Y-96070868D01*
X143541848Y-95863132D01*
X143546498Y-95853160D01*
X143628540Y-95627753D01*
X143631387Y-95617126D01*
X143673041Y-95380897D01*
X143674000Y-95369936D01*
X143674000Y-95130064D01*
X143673041Y-95119103D01*
X143631387Y-94882874D01*
X143628540Y-94872247D01*
X143546498Y-94646840D01*
X143541848Y-94636868D01*
X143421912Y-94429132D01*
X143415601Y-94420119D01*
X143261413Y-94236366D01*
X143253634Y-94228587D01*
X143069881Y-94074399D01*
X143060868Y-94068088D01*
X142853132Y-93948152D01*
X142843160Y-93943502D01*
X142617753Y-93861460D01*
X142607126Y-93858613D01*
X142370897Y-93816959D01*
X142359936Y-93816000D01*
X142120064Y-93816000D01*
X142109103Y-93816959D01*
X141872874Y-93858613D01*
X141862247Y-93861460D01*
X141636840Y-93943502D01*
X141626868Y-93948152D01*
X141419132Y-94068088D01*
X141410119Y-94074399D01*
X141226366Y-94228587D01*
X141218587Y-94236366D01*
X141064399Y-94420119D01*
X141058088Y-94429132D01*
X140938152Y-94636868D01*
X140933502Y-94646840D01*
X140851460Y-94872247D01*
X140848613Y-94882874D01*
X140806959Y-95119103D01*
X140806000Y-95130064D01*
X140806000Y-95369936D01*
X140806959Y-95380897D01*
X140848613Y-95617126D01*
X140851460Y-95627753D01*
X140933502Y-95853160D01*
X140938152Y-95863132D01*
X141058088Y-96070868D01*
X141064399Y-96079881D01*
X141218587Y-96263634D01*
X141226366Y-96271413D01*
X141410119Y-96425601D01*
X141419132Y-96431912D01*
X141571705Y-96520000D01*
X141419132Y-96608088D01*
X141410119Y-96614399D01*
X141226366Y-96768587D01*
X141218587Y-96776366D01*
X141064399Y-96960119D01*
X141058088Y-96969132D01*
X140938152Y-97176868D01*
X140933502Y-97186840D01*
X140851460Y-97412247D01*
X140848613Y-97422874D01*
X140806959Y-97659103D01*
X140806000Y-97670064D01*
X140806000Y-97909936D01*
X140806959Y-97920897D01*
X140848613Y-98157126D01*
X140851460Y-98167753D01*
X140933502Y-98393160D01*
X140938152Y-98403132D01*
X141058088Y-98610868D01*
X141064399Y-98619881D01*
X141218587Y-98803634D01*
X141226366Y-98811413D01*
X141410119Y-98965601D01*
X141419132Y-98971912D01*
X141571705Y-99060000D01*
X141419132Y-99148088D01*
X141410119Y-99154399D01*
X141226366Y-99308587D01*
X141218587Y-99316366D01*
X141064399Y-99500119D01*
X141058088Y-99509132D01*
X140938152Y-99716868D01*
X140933502Y-99726840D01*
X140851460Y-99952247D01*
X140848613Y-99962874D01*
X140806959Y-100199103D01*
X140806000Y-100210064D01*
X140806000Y-100449936D01*
X140806959Y-100460897D01*
X140848613Y-100697126D01*
X140851460Y-100707753D01*
X140933502Y-100933160D01*
X140938152Y-100943132D01*
X141058088Y-101150868D01*
X141064399Y-101159881D01*
X141218587Y-101343634D01*
X141226366Y-101351413D01*
X141343387Y-101449606D01*
X141136142Y-101505137D01*
X141111662Y-101517880D01*
X140955410Y-101648990D01*
X140941239Y-101665879D01*
X140840641Y-101840120D01*
X140833100Y-101860837D01*
X140799122Y-102053538D01*
X140798163Y-102064499D01*
X140798163Y-103506000D01*
X129558645Y-103506000D01*
X129571848Y-103483132D01*
X129576498Y-103473160D01*
X129658540Y-103247753D01*
X129661387Y-103237126D01*
X129703041Y-103000897D01*
X129704000Y-102989936D01*
X129704000Y-102750064D01*
X129703041Y-102739103D01*
X129661387Y-102502874D01*
X129658540Y-102492247D01*
X129576498Y-102266840D01*
X129571848Y-102256868D01*
X129451912Y-102049132D01*
X129445601Y-102040119D01*
X129291413Y-101856366D01*
X129283634Y-101848587D01*
X129099881Y-101694399D01*
X129090868Y-101688088D01*
X128938295Y-101600000D01*
X129090868Y-101511912D01*
X129099881Y-101505601D01*
X129283634Y-101351413D01*
X129291413Y-101343634D01*
X129445601Y-101159881D01*
X129451912Y-101150868D01*
X129571848Y-100943132D01*
X129576498Y-100933160D01*
X129658540Y-100707753D01*
X129661387Y-100697126D01*
X129703041Y-100460897D01*
X129704000Y-100449936D01*
X129704000Y-100210064D01*
X129703041Y-100199103D01*
X129661387Y-99962874D01*
X129658540Y-99952247D01*
X129576498Y-99726840D01*
X129571848Y-99716868D01*
X129451912Y-99509132D01*
X129445601Y-99500119D01*
X129291413Y-99316366D01*
X129283634Y-99308587D01*
X129099881Y-99154399D01*
X129090868Y-99148088D01*
X128938295Y-99060000D01*
X129090868Y-98971912D01*
X129099881Y-98965601D01*
X129283634Y-98811413D01*
X129291413Y-98803634D01*
X129445601Y-98619881D01*
X129451912Y-98610868D01*
X129571848Y-98403132D01*
X129576498Y-98393160D01*
X129658540Y-98167753D01*
X129661387Y-98157126D01*
X129703041Y-97920897D01*
X129704000Y-97909936D01*
X129704000Y-97670064D01*
X129703041Y-97659103D01*
X129661387Y-97422874D01*
X129658540Y-97412247D01*
X129576498Y-97186840D01*
X129571848Y-97176868D01*
X129451912Y-96969132D01*
X129445601Y-96960119D01*
X129291413Y-96776366D01*
X129283634Y-96768587D01*
X129099881Y-96614399D01*
X129090868Y-96608088D01*
X128938295Y-96520000D01*
X129090868Y-96431912D01*
X129099881Y-96425601D01*
X129283634Y-96271413D01*
X129291413Y-96263634D01*
X129445601Y-96079881D01*
X129451912Y-96070868D01*
X129571848Y-95863132D01*
X129576498Y-95853160D01*
X129658540Y-95627753D01*
X129661387Y-95617126D01*
X129703041Y-95380897D01*
X129704000Y-95369936D01*
X129704000Y-95130064D01*
X129703041Y-95119103D01*
X129661387Y-94882874D01*
X129658540Y-94872247D01*
X129576498Y-94646840D01*
X129571848Y-94636868D01*
X129451912Y-94429132D01*
X129445601Y-94420119D01*
X129291413Y-94236366D01*
X129283634Y-94228587D01*
X129099881Y-94074399D01*
X129090868Y-94068088D01*
X128883132Y-93948152D01*
X128873160Y-93943502D01*
X128647753Y-93861460D01*
X128637126Y-93858613D01*
X128400897Y-93816959D01*
X128389936Y-93816000D01*
X128150064Y-93816000D01*
X128139103Y-93816959D01*
X127902874Y-93858613D01*
X127892247Y-93861460D01*
X127666840Y-93943502D01*
X127656868Y-93948152D01*
X127449132Y-94068088D01*
X127440119Y-94074399D01*
X127256366Y-94228587D01*
X127248587Y-94236366D01*
X127094399Y-94420119D01*
X127088088Y-94429132D01*
X126968152Y-94636868D01*
X126963502Y-94646840D01*
X126881460Y-94872247D01*
X126878613Y-94882874D01*
X126836959Y-95119103D01*
X126836000Y-95130064D01*
X126836000Y-95369936D01*
X126836959Y-95380897D01*
X126878613Y-95617126D01*
X126881460Y-95627753D01*
X126963502Y-95853160D01*
X126968152Y-95863132D01*
X127088088Y-96070868D01*
X127094399Y-96079881D01*
X127248587Y-96263634D01*
X127256366Y-96271413D01*
X127440119Y-96425601D01*
X127449132Y-96431912D01*
X127601705Y-96520000D01*
X127449132Y-96608088D01*
X127440119Y-96614399D01*
X127256366Y-96768587D01*
X127248587Y-96776366D01*
X127094399Y-96960119D01*
X127088088Y-96969132D01*
X126968152Y-97176868D01*
X126963502Y-97186840D01*
X126881460Y-97412247D01*
X126878613Y-97422874D01*
X126836959Y-97659103D01*
X126836000Y-97670064D01*
X126836000Y-97909936D01*
X126836959Y-97920897D01*
X126878613Y-98157126D01*
X126881460Y-98167753D01*
X126963502Y-98393160D01*
X126968152Y-98403132D01*
X127088088Y-98610868D01*
X127094399Y-98619881D01*
X127248587Y-98803634D01*
X127256366Y-98811413D01*
X127440119Y-98965601D01*
X127449132Y-98971912D01*
X127601705Y-99060000D01*
X127449132Y-99148088D01*
X127440119Y-99154399D01*
X127256366Y-99308587D01*
X127248587Y-99316366D01*
X127094399Y-99500119D01*
X127088088Y-99509132D01*
X126968152Y-99716868D01*
X126963502Y-99726840D01*
X126881460Y-99952247D01*
X126878613Y-99962874D01*
X126836959Y-100199103D01*
X126836000Y-100210064D01*
X126836000Y-100449936D01*
X126836959Y-100460897D01*
X126878613Y-100697126D01*
X126881460Y-100707753D01*
X126963502Y-100933160D01*
X126968152Y-100943132D01*
X127088088Y-101150868D01*
X127094399Y-101159881D01*
X127248587Y-101343634D01*
X127256366Y-101351413D01*
X127440119Y-101505601D01*
X127449132Y-101511912D01*
X127601705Y-101600000D01*
X127449132Y-101688088D01*
X127440119Y-101694399D01*
X127256366Y-101848587D01*
X127248587Y-101856366D01*
X127094399Y-102040119D01*
X127088088Y-102049132D01*
X126968152Y-102256868D01*
X126963502Y-102266840D01*
X126881460Y-102492247D01*
X126878613Y-102502874D01*
X126836959Y-102739103D01*
X126836000Y-102750064D01*
X126836000Y-102989936D01*
X126836959Y-103000897D01*
X126878613Y-103237126D01*
X126881460Y-103247753D01*
X126963502Y-103473160D01*
X126968152Y-103483132D01*
X126981355Y-103506000D01*
X120014000Y-103506000D01*
X120014000Y-100461315D01*
X120187766Y-100461315D01*
X120188362Y-100471639D01*
X120241001Y-100846181D01*
X120243274Y-100856270D01*
X120356378Y-101217186D01*
X120360269Y-101226768D01*
X120530802Y-101564366D01*
X120536205Y-101573184D01*
X120759586Y-101878395D01*
X120766357Y-101886212D01*
X121036588Y-102150841D01*
X121044545Y-102157447D01*
X121354368Y-102374387D01*
X121363297Y-102379605D01*
X121704391Y-102543030D01*
X121714053Y-102546719D01*
X122077259Y-102652241D01*
X122087393Y-102654302D01*
X122462956Y-102699085D01*
X122473290Y-102699464D01*
X122851124Y-102682307D01*
X122861382Y-102680993D01*
X123231341Y-102602356D01*
X123241246Y-102599384D01*
X123593394Y-102461378D01*
X123602681Y-102456829D01*
X123927560Y-102263162D01*
X123935979Y-102257157D01*
X124224865Y-102013030D01*
X124232191Y-102005730D01*
X124477325Y-101717697D01*
X124483360Y-101709299D01*
X124678159Y-101385099D01*
X124682741Y-101375827D01*
X124821974Y-101024164D01*
X124824981Y-101014269D01*
X124905072Y-100643833D01*
X124906479Y-100632033D01*
X124918426Y-100143197D01*
X124917597Y-100131342D01*
X124855698Y-99757437D01*
X124853178Y-99747407D01*
X124731289Y-99389361D01*
X124727166Y-99379877D01*
X124548436Y-99046547D01*
X124542818Y-99037864D01*
X124312047Y-98738201D01*
X124305086Y-98730552D01*
X124028471Y-98472604D01*
X124020355Y-98466194D01*
X123705325Y-98256889D01*
X123696272Y-98251892D01*
X123351286Y-98096848D01*
X123341537Y-98093396D01*
X122975862Y-97996780D01*
X122965680Y-97994967D01*
X122589136Y-97959374D01*
X122578795Y-97959247D01*
X122201492Y-97985631D01*
X122191270Y-97987195D01*
X121823343Y-98074848D01*
X121813513Y-98078060D01*
X121464842Y-98224628D01*
X121455669Y-98229403D01*
X121135618Y-98430949D01*
X121127348Y-98437158D01*
X120844513Y-98688272D01*
X120837369Y-98695748D01*
X120599345Y-98989683D01*
X120593517Y-98998226D01*
X120406697Y-99327090D01*
X120402342Y-99336471D01*
X120271742Y-99691430D01*
X120268979Y-99701396D01*
X120198107Y-100072920D01*
X120197008Y-100083203D01*
X120187766Y-100461315D01*
X120014000Y-100461315D01*
X120014000Y-88868932D01*
X120519200Y-88868932D01*
X120534140Y-89106390D01*
X120535838Y-89117484D01*
X120592591Y-89348543D01*
X120596226Y-89359161D01*
X120693000Y-89576517D01*
X120698458Y-89586323D01*
X120832193Y-89783109D01*
X120839301Y-89791793D01*
X121005769Y-89961786D01*
X121014304Y-89969075D01*
X121208245Y-90106901D01*
X121217934Y-90112563D01*
X121338668Y-90169376D01*
X121282358Y-90192356D01*
X121272385Y-90197503D01*
X121071496Y-90324990D01*
X121062592Y-90331823D01*
X120887455Y-90492870D01*
X120879902Y-90501171D01*
X120736052Y-90690686D01*
X120730088Y-90700193D01*
X120622071Y-90912188D01*
X120617885Y-90922601D01*
X120549117Y-91150373D01*
X120546841Y-91161363D01*
X120519494Y-91397713D01*
X120519200Y-91408932D01*
X120534140Y-91646390D01*
X120535838Y-91657484D01*
X120592591Y-91888543D01*
X120596226Y-91899161D01*
X120693000Y-92116517D01*
X120698458Y-92126323D01*
X120832193Y-92323109D01*
X120839301Y-92331793D01*
X121005769Y-92501786D01*
X121014304Y-92509075D01*
X121208245Y-92646901D01*
X121217934Y-92652563D01*
X121433217Y-92753867D01*
X121443757Y-92757724D01*
X121673577Y-92819304D01*
X121684633Y-92821233D01*
X121921725Y-92841144D01*
X121932948Y-92841085D01*
X122169819Y-92818694D01*
X122180854Y-92816649D01*
X122410016Y-92752665D01*
X122420514Y-92748698D01*
X122634724Y-92645145D01*
X122644354Y-92639382D01*
X122836841Y-92499532D01*
X122845299Y-92492154D01*
X123009979Y-92320428D01*
X123016996Y-92311669D01*
X123148662Y-92113494D01*
X123154018Y-92103631D01*
X123190119Y-92020206D01*
X123233000Y-92116517D01*
X123238458Y-92126323D01*
X123372193Y-92323109D01*
X123379301Y-92331793D01*
X123545769Y-92501786D01*
X123554304Y-92509075D01*
X123748245Y-92646901D01*
X123757934Y-92652563D01*
X123973217Y-92753867D01*
X123983757Y-92757724D01*
X124213577Y-92819304D01*
X124224633Y-92821233D01*
X124461725Y-92841144D01*
X124472948Y-92841085D01*
X124709819Y-92818694D01*
X124720854Y-92816649D01*
X124950016Y-92752665D01*
X124960514Y-92748698D01*
X125174724Y-92645145D01*
X125184354Y-92639382D01*
X125376841Y-92499532D01*
X125385299Y-92492154D01*
X125549979Y-92320428D01*
X125556996Y-92311669D01*
X125688662Y-92113494D01*
X125694018Y-92103631D01*
X125730119Y-92020206D01*
X125773000Y-92116517D01*
X125778458Y-92126323D01*
X125912193Y-92323109D01*
X125919301Y-92331793D01*
X126085769Y-92501786D01*
X126094304Y-92509075D01*
X126288245Y-92646901D01*
X126297934Y-92652563D01*
X126513217Y-92753867D01*
X126523757Y-92757724D01*
X126753577Y-92819304D01*
X126764633Y-92821233D01*
X127001725Y-92841144D01*
X127012948Y-92841085D01*
X127249819Y-92818694D01*
X127260854Y-92816649D01*
X127490016Y-92752665D01*
X127500514Y-92748698D01*
X127714724Y-92645145D01*
X127724354Y-92639382D01*
X127916841Y-92499532D01*
X127925299Y-92492154D01*
X128089979Y-92320428D01*
X128096996Y-92311669D01*
X128228662Y-92113494D01*
X128234018Y-92103631D01*
X128328510Y-91885273D01*
X128332034Y-91874617D01*
X128386553Y-91642172D01*
X128388200Y-91629402D01*
X128396210Y-91323510D01*
X128395234Y-91310671D01*
X128352954Y-91075691D01*
X128349992Y-91064866D01*
X128267058Y-90841861D01*
X128262226Y-90831732D01*
X128141112Y-90626938D01*
X128134563Y-90617824D01*
X127979096Y-90437714D01*
X127971036Y-90429904D01*
X127786132Y-90280172D01*
X127776817Y-90273913D01*
X127584416Y-90168138D01*
X127714724Y-90105145D01*
X127724354Y-90099382D01*
X127916841Y-89959532D01*
X127925299Y-89952154D01*
X128089979Y-89780428D01*
X128096996Y-89771669D01*
X128228662Y-89573494D01*
X128234018Y-89563631D01*
X128328510Y-89345273D01*
X128332034Y-89334617D01*
X128386553Y-89102172D01*
X128388200Y-89089402D01*
X128393394Y-88891043D01*
X140751109Y-88891043D01*
X140769188Y-89131497D01*
X140770885Y-89142034D01*
X140829221Y-89376005D01*
X140832669Y-89386104D01*
X140929591Y-89606900D01*
X140934692Y-89616275D01*
X141067430Y-89817584D01*
X141074038Y-89825965D01*
X141238798Y-90002032D01*
X141246722Y-90009180D01*
X141438792Y-90154968D01*
X141447808Y-90160679D01*
X141661696Y-90272021D01*
X141671545Y-90276131D01*
X141901134Y-90349844D01*
X141911535Y-90352236D01*
X142150262Y-90386212D01*
X142160917Y-90386817D01*
X142401956Y-90380084D01*
X142412561Y-90378885D01*
X142649019Y-90331636D01*
X142659270Y-90328667D01*
X142884387Y-90242253D01*
X142893991Y-90237600D01*
X143101330Y-90114491D01*
X143110012Y-90108286D01*
X143293645Y-89952004D01*
X143301158Y-89944424D01*
X143327403Y-89913035D01*
X143365137Y-90053859D01*
X143377880Y-90078339D01*
X143508990Y-90234590D01*
X143525879Y-90248761D01*
X143700120Y-90349359D01*
X143720837Y-90356900D01*
X143913538Y-90390878D01*
X143924499Y-90391837D01*
X145638258Y-90391837D01*
X145654634Y-90389681D01*
X145933859Y-90314863D01*
X145958339Y-90302120D01*
X146114590Y-90171010D01*
X146128761Y-90154121D01*
X146229359Y-89979880D01*
X146236900Y-89959163D01*
X146270878Y-89766462D01*
X146271837Y-89755501D01*
X146271837Y-88041742D01*
X146269681Y-88025366D01*
X146194863Y-87746142D01*
X146182120Y-87721662D01*
X146051010Y-87565410D01*
X146034121Y-87551239D01*
X145859880Y-87450641D01*
X145839163Y-87443100D01*
X145646462Y-87409122D01*
X145635501Y-87408163D01*
X143921742Y-87408163D01*
X143905366Y-87410319D01*
X143626142Y-87485137D01*
X143601662Y-87497880D01*
X143445410Y-87628990D01*
X143431239Y-87645879D01*
X143330641Y-87820120D01*
X143323100Y-87840837D01*
X143317521Y-87872479D01*
X143313647Y-87868417D01*
X143133049Y-87708638D01*
X143124486Y-87702267D01*
X142919549Y-87575202D01*
X142910036Y-87570365D01*
X142686619Y-87479645D01*
X142676427Y-87476480D01*
X142440919Y-87424700D01*
X142430340Y-87423298D01*
X142189475Y-87411939D01*
X142178809Y-87412339D01*
X141939474Y-87441727D01*
X141929030Y-87443918D01*
X141698068Y-87513210D01*
X141688142Y-87517130D01*
X141472155Y-87624346D01*
X141463032Y-87629882D01*
X141268199Y-87771957D01*
X141260138Y-87778952D01*
X141092029Y-87951822D01*
X141085263Y-87960074D01*
X140948683Y-88158798D01*
X140943403Y-88168073D01*
X140842260Y-88386968D01*
X140838618Y-88397000D01*
X140775802Y-88629807D01*
X140773903Y-88640309D01*
X140751211Y-88880372D01*
X140751109Y-88891043D01*
X128393394Y-88891043D01*
X128396210Y-88783510D01*
X128395234Y-88770671D01*
X128352954Y-88535691D01*
X128349992Y-88524866D01*
X128267058Y-88301861D01*
X128262226Y-88291732D01*
X128141112Y-88086938D01*
X128134563Y-88077824D01*
X127979096Y-87897714D01*
X127971036Y-87889904D01*
X127786132Y-87740172D01*
X127776817Y-87733913D01*
X127568321Y-87619290D01*
X127558044Y-87614779D01*
X127332544Y-87538890D01*
X127321632Y-87536270D01*
X127086257Y-87501513D01*
X127075053Y-87500867D01*
X126837243Y-87508340D01*
X126826102Y-87509689D01*
X126593373Y-87559157D01*
X126582646Y-87562457D01*
X126362358Y-87652356D01*
X126352385Y-87657503D01*
X126151496Y-87784990D01*
X126142592Y-87791823D01*
X125967455Y-87952870D01*
X125959902Y-87961171D01*
X125816052Y-88150686D01*
X125810088Y-88160193D01*
X125731634Y-88314167D01*
X125727058Y-88301861D01*
X125722226Y-88291732D01*
X125601112Y-88086938D01*
X125594563Y-88077824D01*
X125439096Y-87897714D01*
X125431036Y-87889904D01*
X125246132Y-87740172D01*
X125236817Y-87733913D01*
X125028321Y-87619290D01*
X125018044Y-87614779D01*
X124792544Y-87538890D01*
X124781632Y-87536270D01*
X124546257Y-87501513D01*
X124535053Y-87500867D01*
X124297243Y-87508340D01*
X124286102Y-87509689D01*
X124053373Y-87559157D01*
X124042646Y-87562457D01*
X123822358Y-87652356D01*
X123812385Y-87657503D01*
X123611496Y-87784990D01*
X123602592Y-87791823D01*
X123427455Y-87952870D01*
X123419902Y-87961171D01*
X123276052Y-88150686D01*
X123270088Y-88160193D01*
X123191634Y-88314167D01*
X123187058Y-88301861D01*
X123182226Y-88291732D01*
X123061112Y-88086938D01*
X123054563Y-88077824D01*
X122899096Y-87897714D01*
X122891036Y-87889904D01*
X122706132Y-87740172D01*
X122696817Y-87733913D01*
X122488321Y-87619290D01*
X122478044Y-87614779D01*
X122252544Y-87538890D01*
X122241632Y-87536270D01*
X122006257Y-87501513D01*
X121995053Y-87500867D01*
X121757243Y-87508340D01*
X121746102Y-87509689D01*
X121513373Y-87559157D01*
X121502646Y-87562457D01*
X121282358Y-87652356D01*
X121272385Y-87657503D01*
X121071496Y-87784990D01*
X121062592Y-87791823D01*
X120887455Y-87952870D01*
X120879902Y-87961171D01*
X120736052Y-88150686D01*
X120730088Y-88160193D01*
X120622071Y-88372188D01*
X120617885Y-88382601D01*
X120549117Y-88610373D01*
X120546841Y-88621363D01*
X120519494Y-88857713D01*
X120519200Y-88868932D01*
X120014000Y-88868932D01*
X120014000Y-82934158D01*
X123324601Y-82934158D01*
X123325633Y-82946439D01*
X123363542Y-83152994D01*
X123366940Y-83164841D01*
X123444248Y-83360098D01*
X123449881Y-83371059D01*
X123563642Y-83547581D01*
X123571297Y-83557240D01*
X123717178Y-83708305D01*
X123726564Y-83716293D01*
X123899008Y-83836145D01*
X123909767Y-83842158D01*
X124102207Y-83926232D01*
X124113929Y-83930040D01*
X124319033Y-83975136D01*
X124331271Y-83976595D01*
X124541229Y-83980993D01*
X124553518Y-83980048D01*
X124760332Y-83943581D01*
X124772202Y-83940266D01*
X124967993Y-83864324D01*
X124978994Y-83858767D01*
X125156306Y-83746241D01*
X125166018Y-83738654D01*
X125318098Y-83593831D01*
X125326151Y-83584501D01*
X125447204Y-83412897D01*
X125453291Y-83402181D01*
X125538708Y-83210334D01*
X125542599Y-83198638D01*
X125589222Y-82993423D01*
X125590786Y-82980309D01*
X125594123Y-82741318D01*
X125592926Y-82728165D01*
X125552050Y-82521727D01*
X125548488Y-82509928D01*
X125468461Y-82315770D01*
X125462675Y-82304888D01*
X125346461Y-82129972D01*
X125338671Y-82120421D01*
X125190696Y-81971408D01*
X125181199Y-81963552D01*
X125007099Y-81846119D01*
X124996257Y-81840257D01*
X124802662Y-81758878D01*
X124790888Y-81755234D01*
X124585173Y-81713006D01*
X124572916Y-81711718D01*
X124362917Y-81710252D01*
X124350643Y-81711369D01*
X124144360Y-81750720D01*
X124132536Y-81754199D01*
X123937824Y-81832868D01*
X123926902Y-81838578D01*
X123751178Y-81953569D01*
X123741572Y-81961292D01*
X123591531Y-82108223D01*
X123583608Y-82117665D01*
X123464963Y-82290942D01*
X123459026Y-82301742D01*
X123376296Y-82494763D01*
X123372570Y-82506511D01*
X123328907Y-82711927D01*
X123327533Y-82724175D01*
X123324601Y-82934158D01*
X120014000Y-82934158D01*
X120014000Y-78534158D01*
X123324601Y-78534158D01*
X123325633Y-78546439D01*
X123363542Y-78752994D01*
X123366940Y-78764841D01*
X123444248Y-78960098D01*
X123449881Y-78971059D01*
X123563642Y-79147581D01*
X123571297Y-79157240D01*
X123717178Y-79308305D01*
X123726564Y-79316293D01*
X123899008Y-79436145D01*
X123909767Y-79442158D01*
X124102207Y-79526232D01*
X124113929Y-79530040D01*
X124319033Y-79575136D01*
X124331271Y-79576595D01*
X124541229Y-79580993D01*
X124553518Y-79580048D01*
X124760332Y-79543581D01*
X124772202Y-79540266D01*
X124967993Y-79464324D01*
X124978994Y-79458767D01*
X125156306Y-79346241D01*
X125166018Y-79338654D01*
X125318098Y-79193831D01*
X125326151Y-79184501D01*
X125447204Y-79012897D01*
X125453291Y-79002181D01*
X125538708Y-78810334D01*
X125542599Y-78798638D01*
X125589222Y-78593423D01*
X125590786Y-78580309D01*
X125594123Y-78341318D01*
X125592926Y-78328165D01*
X125552050Y-78121727D01*
X125548488Y-78109928D01*
X125468461Y-77915770D01*
X125462675Y-77904888D01*
X125346461Y-77729972D01*
X125338671Y-77720421D01*
X125190696Y-77571408D01*
X125181199Y-77563552D01*
X125007099Y-77446119D01*
X124996257Y-77440257D01*
X124802662Y-77358878D01*
X124790888Y-77355234D01*
X124585173Y-77313006D01*
X124572916Y-77311718D01*
X124362917Y-77310252D01*
X124350643Y-77311369D01*
X124144360Y-77350720D01*
X124132536Y-77354199D01*
X123937824Y-77432868D01*
X123926902Y-77438578D01*
X123751178Y-77553569D01*
X123741572Y-77561292D01*
X123591531Y-77708223D01*
X123583608Y-77717665D01*
X123464963Y-77890942D01*
X123459026Y-77901742D01*
X123376296Y-78094763D01*
X123372570Y-78106511D01*
X123328907Y-78311927D01*
X123327533Y-78324175D01*
X123324601Y-78534158D01*
X120014000Y-78534158D01*
X120014000Y-70453932D01*
X135759200Y-70453932D01*
X135774140Y-70691390D01*
X135775838Y-70702484D01*
X135832591Y-70933543D01*
X135836226Y-70944161D01*
X135933000Y-71161517D01*
X135938458Y-71171323D01*
X136072193Y-71368109D01*
X136079301Y-71376793D01*
X136245769Y-71546786D01*
X136254304Y-71554075D01*
X136448245Y-71691901D01*
X136457934Y-71697563D01*
X136673217Y-71798867D01*
X136683757Y-71802724D01*
X136913577Y-71864304D01*
X136924633Y-71866233D01*
X137161725Y-71886144D01*
X137172948Y-71886085D01*
X137409819Y-71863694D01*
X137420854Y-71861649D01*
X137650016Y-71797665D01*
X137660514Y-71793698D01*
X137874724Y-71690145D01*
X137884354Y-71684382D01*
X138076841Y-71544532D01*
X138085299Y-71537154D01*
X138249979Y-71365428D01*
X138256996Y-71356669D01*
X138388662Y-71158494D01*
X138394018Y-71148631D01*
X138430119Y-71065206D01*
X138473000Y-71161517D01*
X138478458Y-71171323D01*
X138612193Y-71368109D01*
X138619301Y-71376793D01*
X138785769Y-71546786D01*
X138794304Y-71554075D01*
X138988245Y-71691901D01*
X138997934Y-71697563D01*
X139213217Y-71798867D01*
X139223757Y-71802724D01*
X139453577Y-71864304D01*
X139464633Y-71866233D01*
X139701725Y-71886144D01*
X139712948Y-71886085D01*
X139949819Y-71863694D01*
X139960854Y-71861649D01*
X140190016Y-71797665D01*
X140200514Y-71793698D01*
X140414724Y-71690145D01*
X140424354Y-71684382D01*
X140616841Y-71544532D01*
X140625299Y-71537154D01*
X140789979Y-71365428D01*
X140796996Y-71356669D01*
X140928662Y-71158494D01*
X140934018Y-71148631D01*
X140970119Y-71065206D01*
X141013000Y-71161517D01*
X141018458Y-71171323D01*
X141152193Y-71368109D01*
X141159301Y-71376793D01*
X141325769Y-71546786D01*
X141334304Y-71554075D01*
X141528245Y-71691901D01*
X141537934Y-71697563D01*
X141753217Y-71798867D01*
X141763757Y-71802724D01*
X141993577Y-71864304D01*
X142004633Y-71866233D01*
X142241725Y-71886144D01*
X142252948Y-71886085D01*
X142489819Y-71863694D01*
X142500854Y-71861649D01*
X142730016Y-71797665D01*
X142740514Y-71793698D01*
X142954724Y-71690145D01*
X142964354Y-71684382D01*
X143156841Y-71544532D01*
X143165299Y-71537154D01*
X143329979Y-71365428D01*
X143336996Y-71356669D01*
X143468662Y-71158494D01*
X143474018Y-71148631D01*
X143510119Y-71065206D01*
X143553000Y-71161517D01*
X143558458Y-71171323D01*
X143692193Y-71368109D01*
X143699301Y-71376793D01*
X143865769Y-71546786D01*
X143874304Y-71554075D01*
X144068245Y-71691901D01*
X144077934Y-71697563D01*
X144293217Y-71798867D01*
X144303757Y-71802724D01*
X144533577Y-71864304D01*
X144544633Y-71866233D01*
X144781725Y-71886144D01*
X144792948Y-71886085D01*
X145029819Y-71863694D01*
X145040854Y-71861649D01*
X145270016Y-71797665D01*
X145280514Y-71793698D01*
X145494724Y-71690145D01*
X145504354Y-71684382D01*
X145696841Y-71544532D01*
X145705299Y-71537154D01*
X145869979Y-71365428D01*
X145876996Y-71356669D01*
X146008662Y-71158494D01*
X146014018Y-71148631D01*
X146050119Y-71065206D01*
X146093000Y-71161517D01*
X146098458Y-71171323D01*
X146232193Y-71368109D01*
X146239301Y-71376793D01*
X146405769Y-71546786D01*
X146414304Y-71554075D01*
X146608245Y-71691901D01*
X146617934Y-71697563D01*
X146833217Y-71798867D01*
X146843757Y-71802724D01*
X147073577Y-71864304D01*
X147084633Y-71866233D01*
X147321725Y-71886144D01*
X147332948Y-71886085D01*
X147569819Y-71863694D01*
X147580854Y-71861649D01*
X147810016Y-71797665D01*
X147820514Y-71793698D01*
X148034724Y-71690145D01*
X148044354Y-71684382D01*
X148236841Y-71544532D01*
X148245299Y-71537154D01*
X148409979Y-71365428D01*
X148416996Y-71356669D01*
X148548662Y-71158494D01*
X148554018Y-71148631D01*
X148590119Y-71065206D01*
X148633000Y-71161517D01*
X148638458Y-71171323D01*
X148772193Y-71368109D01*
X148779301Y-71376793D01*
X148945769Y-71546786D01*
X148954304Y-71554075D01*
X149148245Y-71691901D01*
X149157934Y-71697563D01*
X149373217Y-71798867D01*
X149383757Y-71802724D01*
X149613577Y-71864304D01*
X149624633Y-71866233D01*
X149861725Y-71886144D01*
X149872948Y-71886085D01*
X150109819Y-71863694D01*
X150120854Y-71861649D01*
X150350016Y-71797665D01*
X150360514Y-71793698D01*
X150574724Y-71690145D01*
X150584354Y-71684382D01*
X150776841Y-71544532D01*
X150785299Y-71537154D01*
X150949979Y-71365428D01*
X150956996Y-71356669D01*
X151088662Y-71158494D01*
X151094018Y-71148631D01*
X151130119Y-71065206D01*
X151173000Y-71161517D01*
X151178458Y-71171323D01*
X151312193Y-71368109D01*
X151319301Y-71376793D01*
X151485769Y-71546786D01*
X151494304Y-71554075D01*
X151688245Y-71691901D01*
X151697934Y-71697563D01*
X151913217Y-71798867D01*
X151923757Y-71802724D01*
X152153577Y-71864304D01*
X152164633Y-71866233D01*
X152401725Y-71886144D01*
X152412948Y-71886085D01*
X152649819Y-71863694D01*
X152660854Y-71861649D01*
X152890016Y-71797665D01*
X152900514Y-71793698D01*
X153114724Y-71690145D01*
X153124354Y-71684382D01*
X153316841Y-71544532D01*
X153325299Y-71537154D01*
X153489979Y-71365428D01*
X153496996Y-71356669D01*
X153628662Y-71158494D01*
X153634018Y-71148631D01*
X153670119Y-71065206D01*
X153713000Y-71161517D01*
X153718458Y-71171323D01*
X153852193Y-71368109D01*
X153859301Y-71376793D01*
X154025769Y-71546786D01*
X154034304Y-71554075D01*
X154228245Y-71691901D01*
X154237934Y-71697563D01*
X154453217Y-71798867D01*
X154463757Y-71802724D01*
X154693577Y-71864304D01*
X154704633Y-71866233D01*
X154941725Y-71886144D01*
X154952948Y-71886085D01*
X155189819Y-71863694D01*
X155200854Y-71861649D01*
X155430016Y-71797665D01*
X155440514Y-71793698D01*
X155654724Y-71690145D01*
X155664354Y-71684382D01*
X155856841Y-71544532D01*
X155865299Y-71537154D01*
X156029979Y-71365428D01*
X156036996Y-71356669D01*
X156168662Y-71158494D01*
X156174018Y-71148631D01*
X156268510Y-70930273D01*
X156272034Y-70919617D01*
X156326553Y-70687172D01*
X156328200Y-70674402D01*
X156336210Y-70368510D01*
X156335234Y-70355671D01*
X156292954Y-70120691D01*
X156289992Y-70109866D01*
X156207058Y-69886861D01*
X156202226Y-69876732D01*
X156081112Y-69671938D01*
X156074563Y-69662824D01*
X155919096Y-69482714D01*
X155911036Y-69474904D01*
X155726132Y-69325172D01*
X155716817Y-69318913D01*
X155508321Y-69204290D01*
X155498044Y-69199779D01*
X155272544Y-69123890D01*
X155261632Y-69121270D01*
X155026257Y-69086513D01*
X155015053Y-69085867D01*
X154777243Y-69093340D01*
X154766102Y-69094689D01*
X154533373Y-69144157D01*
X154522646Y-69147457D01*
X154302358Y-69237356D01*
X154292385Y-69242503D01*
X154091496Y-69369990D01*
X154082592Y-69376823D01*
X153907455Y-69537870D01*
X153899902Y-69546171D01*
X153756052Y-69735686D01*
X153750088Y-69745193D01*
X153671634Y-69899167D01*
X153667058Y-69886861D01*
X153662226Y-69876732D01*
X153541112Y-69671938D01*
X153534563Y-69662824D01*
X153379096Y-69482714D01*
X153371036Y-69474904D01*
X153186132Y-69325172D01*
X153176817Y-69318913D01*
X152968321Y-69204290D01*
X152958044Y-69199779D01*
X152732544Y-69123890D01*
X152721632Y-69121270D01*
X152486257Y-69086513D01*
X152475053Y-69085867D01*
X152237243Y-69093340D01*
X152226102Y-69094689D01*
X151993373Y-69144157D01*
X151982646Y-69147457D01*
X151762358Y-69237356D01*
X151752385Y-69242503D01*
X151551496Y-69369990D01*
X151542592Y-69376823D01*
X151367455Y-69537870D01*
X151359902Y-69546171D01*
X151216052Y-69735686D01*
X151210088Y-69745193D01*
X151131634Y-69899167D01*
X151127058Y-69886861D01*
X151122226Y-69876732D01*
X151001112Y-69671938D01*
X150994563Y-69662824D01*
X150839096Y-69482714D01*
X150831036Y-69474904D01*
X150646132Y-69325172D01*
X150636817Y-69318913D01*
X150428321Y-69204290D01*
X150418044Y-69199779D01*
X150192544Y-69123890D01*
X150181632Y-69121270D01*
X149946257Y-69086513D01*
X149935053Y-69085867D01*
X149697243Y-69093340D01*
X149686102Y-69094689D01*
X149453373Y-69144157D01*
X149442646Y-69147457D01*
X149222358Y-69237356D01*
X149212385Y-69242503D01*
X149011496Y-69369990D01*
X149002592Y-69376823D01*
X148827455Y-69537870D01*
X148819902Y-69546171D01*
X148676052Y-69735686D01*
X148670088Y-69745193D01*
X148591634Y-69899167D01*
X148587058Y-69886861D01*
X148582226Y-69876732D01*
X148461112Y-69671938D01*
X148454563Y-69662824D01*
X148299096Y-69482714D01*
X148291036Y-69474904D01*
X148106132Y-69325172D01*
X148096817Y-69318913D01*
X147888321Y-69204290D01*
X147878044Y-69199779D01*
X147652544Y-69123890D01*
X147641632Y-69121270D01*
X147406257Y-69086513D01*
X147395053Y-69085867D01*
X147157243Y-69093340D01*
X147146102Y-69094689D01*
X146913373Y-69144157D01*
X146902646Y-69147457D01*
X146682358Y-69237356D01*
X146672385Y-69242503D01*
X146471496Y-69369990D01*
X146462592Y-69376823D01*
X146287455Y-69537870D01*
X146279902Y-69546171D01*
X146136052Y-69735686D01*
X146130088Y-69745193D01*
X146051634Y-69899167D01*
X146047058Y-69886861D01*
X146042226Y-69876732D01*
X145921112Y-69671938D01*
X145914563Y-69662824D01*
X145759096Y-69482714D01*
X145751036Y-69474904D01*
X145566132Y-69325172D01*
X145556817Y-69318913D01*
X145348321Y-69204290D01*
X145338044Y-69199779D01*
X145112544Y-69123890D01*
X145101632Y-69121270D01*
X144866257Y-69086513D01*
X144855053Y-69085867D01*
X144617243Y-69093340D01*
X144606102Y-69094689D01*
X144373373Y-69144157D01*
X144362646Y-69147457D01*
X144142358Y-69237356D01*
X144132385Y-69242503D01*
X143931496Y-69369990D01*
X143922592Y-69376823D01*
X143747455Y-69537870D01*
X143739902Y-69546171D01*
X143596052Y-69735686D01*
X143590088Y-69745193D01*
X143511634Y-69899167D01*
X143507058Y-69886861D01*
X143502226Y-69876732D01*
X143381112Y-69671938D01*
X143374563Y-69662824D01*
X143219096Y-69482714D01*
X143211036Y-69474904D01*
X143026132Y-69325172D01*
X143016817Y-69318913D01*
X142808321Y-69204290D01*
X142798044Y-69199779D01*
X142572544Y-69123890D01*
X142561632Y-69121270D01*
X142326257Y-69086513D01*
X142315053Y-69085867D01*
X142077243Y-69093340D01*
X142066102Y-69094689D01*
X141833373Y-69144157D01*
X141822646Y-69147457D01*
X141602358Y-69237356D01*
X141592385Y-69242503D01*
X141391496Y-69369990D01*
X141382592Y-69376823D01*
X141207455Y-69537870D01*
X141199902Y-69546171D01*
X141056052Y-69735686D01*
X141050088Y-69745193D01*
X140971634Y-69899167D01*
X140967058Y-69886861D01*
X140962226Y-69876732D01*
X140841112Y-69671938D01*
X140834563Y-69662824D01*
X140679096Y-69482714D01*
X140671036Y-69474904D01*
X140486132Y-69325172D01*
X140476817Y-69318913D01*
X140268321Y-69204290D01*
X140258044Y-69199779D01*
X140032544Y-69123890D01*
X140021632Y-69121270D01*
X139786257Y-69086513D01*
X139775053Y-69085867D01*
X139537243Y-69093340D01*
X139526102Y-69094689D01*
X139293373Y-69144157D01*
X139282646Y-69147457D01*
X139062358Y-69237356D01*
X139052385Y-69242503D01*
X138851496Y-69369990D01*
X138842592Y-69376823D01*
X138667455Y-69537870D01*
X138659902Y-69546171D01*
X138516052Y-69735686D01*
X138510088Y-69745193D01*
X138431634Y-69899167D01*
X138427058Y-69886861D01*
X138422226Y-69876732D01*
X138301112Y-69671938D01*
X138294563Y-69662824D01*
X138139096Y-69482714D01*
X138131036Y-69474904D01*
X137946132Y-69325172D01*
X137936817Y-69318913D01*
X137728321Y-69204290D01*
X137718044Y-69199779D01*
X137492544Y-69123890D01*
X137481632Y-69121270D01*
X137246257Y-69086513D01*
X137235053Y-69085867D01*
X136997243Y-69093340D01*
X136986102Y-69094689D01*
X136753373Y-69144157D01*
X136742646Y-69147457D01*
X136522358Y-69237356D01*
X136512385Y-69242503D01*
X136311496Y-69369990D01*
X136302592Y-69376823D01*
X136127455Y-69537870D01*
X136119902Y-69546171D01*
X135976052Y-69735686D01*
X135970088Y-69745193D01*
X135862071Y-69957188D01*
X135857885Y-69967601D01*
X135789117Y-70195373D01*
X135786841Y-70206363D01*
X135759494Y-70442713D01*
X135759200Y-70453932D01*
X120014000Y-70453932D01*
X120014000Y-64901315D01*
X120187766Y-64901315D01*
X120188362Y-64911639D01*
X120241001Y-65286181D01*
X120243274Y-65296270D01*
X120356378Y-65657186D01*
X120360269Y-65666768D01*
X120530802Y-66004366D01*
X120536205Y-66013184D01*
X120759586Y-66318395D01*
X120766357Y-66326212D01*
X121036588Y-66590841D01*
X121044545Y-66597447D01*
X121354368Y-66814387D01*
X121363297Y-66819605D01*
X121704391Y-66983030D01*
X121714053Y-66986719D01*
X122077259Y-67092241D01*
X122087393Y-67094302D01*
X122462956Y-67139085D01*
X122473290Y-67139464D01*
X122851124Y-67122307D01*
X122861382Y-67120993D01*
X123231341Y-67042356D01*
X123241246Y-67039384D01*
X123593394Y-66901378D01*
X123602681Y-66896829D01*
X123927560Y-66703162D01*
X123935979Y-66697157D01*
X124224865Y-66453030D01*
X124232191Y-66445730D01*
X124477325Y-66157697D01*
X124483360Y-66149299D01*
X124678159Y-65825099D01*
X124682741Y-65815827D01*
X124821974Y-65464164D01*
X124824981Y-65454269D01*
X124905072Y-65083833D01*
X124906479Y-65072033D01*
X124910651Y-64901315D01*
X167177766Y-64901315D01*
X167178362Y-64911639D01*
X167231001Y-65286181D01*
X167233274Y-65296270D01*
X167346378Y-65657186D01*
X167350269Y-65666768D01*
X167520802Y-66004366D01*
X167526205Y-66013184D01*
X167749586Y-66318395D01*
X167756357Y-66326212D01*
X168026588Y-66590841D01*
X168034545Y-66597447D01*
X168344368Y-66814387D01*
X168353297Y-66819605D01*
X168694391Y-66983030D01*
X168704053Y-66986719D01*
X169067259Y-67092241D01*
X169077393Y-67094302D01*
X169452956Y-67139085D01*
X169463290Y-67139464D01*
X169841124Y-67122307D01*
X169851382Y-67120993D01*
X170221341Y-67042356D01*
X170231246Y-67039384D01*
X170583394Y-66901378D01*
X170592681Y-66896829D01*
X170917560Y-66703162D01*
X170925979Y-66697157D01*
X171214865Y-66453030D01*
X171222191Y-66445730D01*
X171467325Y-66157697D01*
X171473360Y-66149299D01*
X171668159Y-65825099D01*
X171672741Y-65815827D01*
X171811974Y-65464164D01*
X171814981Y-65454269D01*
X171895072Y-65083833D01*
X171896479Y-65072033D01*
X171908426Y-64583197D01*
X171907597Y-64571342D01*
X171845698Y-64197437D01*
X171843178Y-64187407D01*
X171721289Y-63829361D01*
X171717166Y-63819877D01*
X171538436Y-63486547D01*
X171532818Y-63477864D01*
X171302047Y-63178201D01*
X171295086Y-63170552D01*
X171018471Y-62912604D01*
X171010355Y-62906194D01*
X170695325Y-62696889D01*
X170686272Y-62691892D01*
X170341286Y-62536848D01*
X170331537Y-62533396D01*
X169965862Y-62436780D01*
X169955680Y-62434967D01*
X169579136Y-62399374D01*
X169568795Y-62399247D01*
X169191492Y-62425631D01*
X169181270Y-62427195D01*
X168813343Y-62514848D01*
X168803513Y-62518060D01*
X168454842Y-62664628D01*
X168445669Y-62669403D01*
X168125618Y-62870949D01*
X168117348Y-62877158D01*
X167834513Y-63128272D01*
X167827369Y-63135748D01*
X167589345Y-63429683D01*
X167583517Y-63438226D01*
X167396697Y-63767090D01*
X167392342Y-63776471D01*
X167261742Y-64131430D01*
X167258979Y-64141396D01*
X167188107Y-64512920D01*
X167187008Y-64523203D01*
X167177766Y-64901315D01*
X124910651Y-64901315D01*
X124918426Y-64583197D01*
X124917597Y-64571342D01*
X124855698Y-64197437D01*
X124853178Y-64187407D01*
X124731289Y-63829361D01*
X124727166Y-63819877D01*
X124548436Y-63486547D01*
X124542818Y-63477864D01*
X124312047Y-63178201D01*
X124305086Y-63170552D01*
X124028471Y-62912604D01*
X124020355Y-62906194D01*
X123705325Y-62696889D01*
X123696272Y-62691892D01*
X123351286Y-62536848D01*
X123341537Y-62533396D01*
X122975862Y-62436780D01*
X122965680Y-62434967D01*
X122589136Y-62399374D01*
X122578795Y-62399247D01*
X122201492Y-62425631D01*
X122191270Y-62427195D01*
X121823343Y-62514848D01*
X121813513Y-62518060D01*
X121464842Y-62664628D01*
X121455669Y-62669403D01*
X121135618Y-62870949D01*
X121127348Y-62877158D01*
X120844513Y-63128272D01*
X120837369Y-63135748D01*
X120599345Y-63429683D01*
X120593517Y-63438226D01*
X120406697Y-63767090D01*
X120402342Y-63776471D01*
X120271742Y-64131430D01*
X120268979Y-64141396D01*
X120198107Y-64512920D01*
X120197008Y-64523203D01*
X120187766Y-64901315D01*
X120014000Y-64901315D01*
X120014000Y-61594000D01*
X136577869Y-61594000D01*
X136673217Y-61638868D01*
G36*
X123233000Y-89576517D02*
G01*
X123238458Y-89586323D01*
X123372193Y-89783109D01*
X123379301Y-89791793D01*
X123545769Y-89961786D01*
X123554304Y-89969075D01*
X123748245Y-90106901D01*
X123757934Y-90112563D01*
X123878668Y-90169376D01*
X123822358Y-90192356D01*
X123812385Y-90197503D01*
X123611496Y-90324990D01*
X123602592Y-90331823D01*
X123427455Y-90492870D01*
X123419902Y-90501171D01*
X123276052Y-90690686D01*
X123270088Y-90700193D01*
X123191634Y-90854167D01*
X123187058Y-90841861D01*
X123182226Y-90831732D01*
X123061112Y-90626938D01*
X123054563Y-90617824D01*
X122899096Y-90437714D01*
X122891036Y-90429904D01*
X122706132Y-90280172D01*
X122696817Y-90273913D01*
X122504416Y-90168138D01*
X122634724Y-90105145D01*
X122644354Y-90099382D01*
X122836841Y-89959532D01*
X122845299Y-89952154D01*
X123009979Y-89780428D01*
X123016996Y-89771669D01*
X123148662Y-89573494D01*
X123154018Y-89563631D01*
X123190119Y-89480206D01*
X123233000Y-89576517D01*
G37*
X123233000Y-89576517D02*
X123238458Y-89586323D01*
X123372193Y-89783109D01*
X123379301Y-89791793D01*
X123545769Y-89961786D01*
X123554304Y-89969075D01*
X123748245Y-90106901D01*
X123757934Y-90112563D01*
X123878668Y-90169376D01*
X123822358Y-90192356D01*
X123812385Y-90197503D01*
X123611496Y-90324990D01*
X123602592Y-90331823D01*
X123427455Y-90492870D01*
X123419902Y-90501171D01*
X123276052Y-90690686D01*
X123270088Y-90700193D01*
X123191634Y-90854167D01*
X123187058Y-90841861D01*
X123182226Y-90831732D01*
X123061112Y-90626938D01*
X123054563Y-90617824D01*
X122899096Y-90437714D01*
X122891036Y-90429904D01*
X122706132Y-90280172D01*
X122696817Y-90273913D01*
X122504416Y-90168138D01*
X122634724Y-90105145D01*
X122644354Y-90099382D01*
X122836841Y-89959532D01*
X122845299Y-89952154D01*
X123009979Y-89780428D01*
X123016996Y-89771669D01*
X123148662Y-89573494D01*
X123154018Y-89563631D01*
X123190119Y-89480206D01*
X123233000Y-89576517D01*
G36*
X125773000Y-89576517D02*
G01*
X125778458Y-89586323D01*
X125912193Y-89783109D01*
X125919301Y-89791793D01*
X126085769Y-89961786D01*
X126094304Y-89969075D01*
X126288245Y-90106901D01*
X126297934Y-90112563D01*
X126418668Y-90169376D01*
X126362358Y-90192356D01*
X126352385Y-90197503D01*
X126151496Y-90324990D01*
X126142592Y-90331823D01*
X125967455Y-90492870D01*
X125959902Y-90501171D01*
X125816052Y-90690686D01*
X125810088Y-90700193D01*
X125731634Y-90854167D01*
X125727058Y-90841861D01*
X125722226Y-90831732D01*
X125601112Y-90626938D01*
X125594563Y-90617824D01*
X125439096Y-90437714D01*
X125431036Y-90429904D01*
X125246132Y-90280172D01*
X125236817Y-90273913D01*
X125044416Y-90168138D01*
X125174724Y-90105145D01*
X125184354Y-90099382D01*
X125376841Y-89959532D01*
X125385299Y-89952154D01*
X125549979Y-89780428D01*
X125556996Y-89771669D01*
X125688662Y-89573494D01*
X125694018Y-89563631D01*
X125730119Y-89480206D01*
X125773000Y-89576517D01*
G37*
X125773000Y-89576517D02*
X125778458Y-89586323D01*
X125912193Y-89783109D01*
X125919301Y-89791793D01*
X126085769Y-89961786D01*
X126094304Y-89969075D01*
X126288245Y-90106901D01*
X126297934Y-90112563D01*
X126418668Y-90169376D01*
X126362358Y-90192356D01*
X126352385Y-90197503D01*
X126151496Y-90324990D01*
X126142592Y-90331823D01*
X125967455Y-90492870D01*
X125959902Y-90501171D01*
X125816052Y-90690686D01*
X125810088Y-90700193D01*
X125731634Y-90854167D01*
X125727058Y-90841861D01*
X125722226Y-90831732D01*
X125601112Y-90626938D01*
X125594563Y-90617824D01*
X125439096Y-90437714D01*
X125431036Y-90429904D01*
X125246132Y-90280172D01*
X125236817Y-90273913D01*
X125044416Y-90168138D01*
X125174724Y-90105145D01*
X125184354Y-90099382D01*
X125376841Y-89959532D01*
X125385299Y-89952154D01*
X125549979Y-89780428D01*
X125556996Y-89771669D01*
X125688662Y-89573494D01*
X125694018Y-89563631D01*
X125730119Y-89480206D01*
X125773000Y-89576517D01*
M02*
