G04 #@! TF.GenerationSoftware,KiCad,Pcbnew,5.99.0-unknown-r17607-a0698723*
G04 #@! TF.CreationDate,2020-04-13T08:25:32-05:00*
G04 #@! TF.ProjectId,pcb_smd,7063625f-736d-4642-9e6b-696361645f70,rev?*
G04 #@! TF.SameCoordinates,Original*
G04 #@! TF.FileFunction,Legend,Top*
G04 #@! TF.FilePolarity,Positive*
%FSLAX46Y46*%
G04 Gerber Fmt 4.6, Leading zero omitted, Abs format (unit mm)*
G04 Created by KiCad (PCBNEW 5.99.0-unknown-r17607-a0698723) date 2020-04-13 08:25:32*
%MOMM*%
%LPD*%
G01*
G04 APERTURE LIST*
%ADD10C,0.120000*%
%ADD11C,0.150000*%
G04 APERTURE END LIST*
D10*
X141895000Y-74495000D02*
X141170000Y-74495000D01*
X148390000Y-81715000D02*
X148390000Y-80990000D01*
X147665000Y-81715000D02*
X148390000Y-81715000D01*
X141170000Y-81715000D02*
X141170000Y-80990000D01*
X141895000Y-81715000D02*
X141170000Y-81715000D01*
X148390000Y-74495000D02*
X148390000Y-75220000D01*
X147665000Y-74495000D02*
X148390000Y-74495000D01*
X135730000Y-71815000D02*
X135730000Y-69155000D01*
X135730000Y-69155000D02*
X136400000Y-69155000D01*
X137920000Y-69155000D02*
X141480000Y-69155000D01*
X143000000Y-69155000D02*
X146560000Y-69155000D01*
X148080000Y-69155000D02*
X151640000Y-69155000D01*
X153160000Y-69155000D02*
X156370000Y-69155000D01*
X156370000Y-71815000D02*
X156370000Y-69155000D01*
X135730000Y-71815000D02*
X138940000Y-71815000D01*
X140460000Y-71815000D02*
X144020000Y-71815000D01*
X145540000Y-71815000D02*
X149100000Y-71815000D01*
X150620000Y-71815000D02*
X154180000Y-71815000D01*
X155700000Y-71815000D02*
X156370000Y-71815000D01*
X136400000Y-69155000D02*
X136400000Y-67945000D01*
X137920000Y-58995000D02*
X141480000Y-58995000D01*
X140460000Y-61655000D02*
X144020000Y-61655000D01*
X156370000Y-61655000D02*
X156370000Y-58995000D01*
X155700000Y-61655000D02*
X156370000Y-61655000D01*
X150620000Y-61655000D02*
X154180000Y-61655000D01*
X135730000Y-61655000D02*
X135730000Y-58995000D01*
X136400000Y-58995000D02*
X136400000Y-57785000D01*
X148080000Y-58995000D02*
X151640000Y-58995000D01*
X145540000Y-61655000D02*
X149100000Y-61655000D01*
X135730000Y-58995000D02*
X136400000Y-58995000D01*
X135730000Y-61655000D02*
X138940000Y-61655000D01*
X143000000Y-58995000D02*
X146560000Y-58995000D01*
X153160000Y-58995000D02*
X156370000Y-58995000D01*
D11*
X125960000Y-59005000D02*
X125960000Y-71805000D01*
X166140000Y-59005000D02*
X166140000Y-71805000D01*
X166140000Y-59005000D02*
X125960000Y-59005000D01*
X125960000Y-71805000D02*
X166140000Y-71805000D01*
D10*
X149620000Y-86670000D02*
X148160000Y-86670000D01*
X149620000Y-83510000D02*
X147460000Y-83510000D01*
X149620000Y-83510000D02*
X149620000Y-84440000D01*
X149620000Y-86670000D02*
X149620000Y-85740000D01*
X164302221Y-115445000D02*
X164627779Y-115445000D01*
X164302221Y-114425000D02*
X164627779Y-114425000D01*
X170852221Y-114810000D02*
X171177779Y-114810000D01*
X170852221Y-113790000D02*
X171177779Y-113790000D01*
X146110000Y-88900000D02*
X146110000Y-90230000D01*
X146110000Y-90230000D02*
X144780000Y-90230000D01*
X143510000Y-90230000D02*
X140910000Y-90230000D01*
X140910000Y-87570000D02*
X140910000Y-90230000D01*
X143510000Y-87570000D02*
X140910000Y-87570000D01*
X143510000Y-87570000D02*
X143510000Y-90230000D01*
X132660000Y-92240000D02*
X130010000Y-92240000D01*
X130010000Y-92240000D02*
X130010000Y-83020000D01*
X130010000Y-83020000D02*
X132660000Y-83020000D01*
X136580000Y-83020000D02*
X139230000Y-83020000D01*
X139230000Y-83020000D02*
X139230000Y-92240000D01*
X139230000Y-92240000D02*
X136580000Y-92240000D01*
X132660000Y-92240000D02*
X132660000Y-92570000D01*
X165200000Y-84670000D02*
X165200000Y-82385000D01*
X163730000Y-84670000D02*
X165200000Y-84670000D01*
X163730000Y-82385000D02*
X163730000Y-84670000D01*
X153570000Y-85510000D02*
X153570000Y-87795000D01*
X155040000Y-85510000D02*
X153570000Y-85510000D01*
X155040000Y-87795000D02*
X155040000Y-85510000D01*
X153570000Y-81700000D02*
X153570000Y-83985000D01*
X155040000Y-81700000D02*
X153570000Y-81700000D01*
X155040000Y-83985000D02*
X155040000Y-81700000D01*
X137060000Y-74715000D02*
X137060000Y-77000000D01*
X138530000Y-74715000D02*
X137060000Y-74715000D01*
X138530000Y-77000000D02*
X138530000Y-74715000D01*
X152910000Y-65242221D02*
X152910000Y-65567779D01*
X151890000Y-65242221D02*
X151890000Y-65567779D01*
D11*
X161290000Y-102870000D02*
X161290000Y-93980000D01*
X161290000Y-93980000D02*
X152400000Y-93980000D01*
X152400000Y-93980000D02*
X152400000Y-104140000D01*
X152400000Y-104140000D02*
X160020000Y-104140000D01*
X160020000Y-104140000D02*
X161290000Y-102870000D01*
X139700000Y-102870000D02*
X139700000Y-93980000D01*
X139700000Y-93980000D02*
X130810000Y-93980000D01*
X130810000Y-93980000D02*
X130810000Y-104140000D01*
X130810000Y-104140000D02*
X138430000Y-104140000D01*
X138430000Y-104140000D02*
X139700000Y-102870000D01*
D10*
X152275000Y-92237779D02*
X152275000Y-91912221D01*
X151255000Y-92237779D02*
X151255000Y-91912221D01*
X142115000Y-92237779D02*
X142115000Y-91912221D01*
X141095000Y-92237779D02*
X141095000Y-91912221D01*
D11*
X128270000Y-90170000D02*
X128270000Y-87630000D01*
X125730000Y-90170000D02*
X128270000Y-90170000D01*
X125730000Y-87630000D02*
X125730000Y-90170000D01*
X128270000Y-87630000D02*
X125730000Y-87630000D01*
D10*
X153795000Y-91912221D02*
X153795000Y-92237779D01*
X154815000Y-91912221D02*
X154815000Y-92237779D01*
X149705000Y-92237779D02*
X149705000Y-91912221D01*
X148685000Y-92237779D02*
X148685000Y-91912221D01*
X147195000Y-92237779D02*
X147195000Y-91912221D01*
X146175000Y-92237779D02*
X146175000Y-91912221D01*
X167515000Y-83347779D02*
X167515000Y-83022221D01*
X166495000Y-83347779D02*
X166495000Y-83022221D01*
X156335000Y-86832221D02*
X156335000Y-87157779D01*
X157355000Y-86832221D02*
X157355000Y-87157779D01*
X156335000Y-83022221D02*
X156335000Y-83347779D01*
X157355000Y-83022221D02*
X157355000Y-83347779D01*
X143635000Y-91912221D02*
X143635000Y-92237779D01*
X144655000Y-91912221D02*
X144655000Y-92237779D01*
X169382221Y-95125000D02*
X169707779Y-95125000D01*
X169382221Y-94105000D02*
X169707779Y-94105000D01*
X169382221Y-97665000D02*
X169707779Y-97665000D01*
X169382221Y-96645000D02*
X169707779Y-96645000D01*
X158170000Y-74240000D02*
X151710000Y-74240000D01*
X158170000Y-78770000D02*
X158170000Y-76170000D01*
X158170000Y-80700000D02*
X151710000Y-80700000D01*
X151710000Y-78770000D02*
X151710000Y-76170000D01*
X158170000Y-80670000D02*
X158170000Y-80700000D01*
X158170000Y-74240000D02*
X158170000Y-74270000D01*
X151710000Y-74240000D02*
X151710000Y-74270000D01*
X151710000Y-80700000D02*
X151710000Y-80670000D01*
X169600000Y-85670000D02*
X163140000Y-85670000D01*
X169600000Y-90200000D02*
X169600000Y-87600000D01*
X169600000Y-92130000D02*
X163140000Y-92130000D01*
X163140000Y-90200000D02*
X163140000Y-87600000D01*
X169600000Y-92100000D02*
X169600000Y-92130000D01*
X169600000Y-85670000D02*
X169600000Y-85700000D01*
X163140000Y-85670000D02*
X163140000Y-85700000D01*
X163140000Y-92130000D02*
X163140000Y-92100000D01*
X169600000Y-74240000D02*
X163140000Y-74240000D01*
X169600000Y-78770000D02*
X169600000Y-76170000D01*
X169600000Y-80700000D02*
X163140000Y-80700000D01*
X163140000Y-78770000D02*
X163140000Y-76170000D01*
X169600000Y-80670000D02*
X169600000Y-80700000D01*
X169600000Y-74240000D02*
X169600000Y-74270000D01*
X163140000Y-74240000D02*
X163140000Y-74270000D01*
X163140000Y-80700000D02*
X163140000Y-80670000D01*
X139190000Y-65567779D02*
X139190000Y-65242221D01*
X140210000Y-65567779D02*
X140210000Y-65242221D01*
X149350000Y-65567779D02*
X149350000Y-65242221D01*
X150370000Y-65567779D02*
X150370000Y-65242221D01*
X147830000Y-65242221D02*
X147830000Y-65567779D01*
X146810000Y-65242221D02*
X146810000Y-65567779D01*
X142750000Y-65242221D02*
X142750000Y-65567779D01*
X141730000Y-65242221D02*
X141730000Y-65567779D01*
X144270000Y-65567779D02*
X144270000Y-65242221D01*
X145290000Y-65567779D02*
X145290000Y-65242221D01*
X134110000Y-65567779D02*
X134110000Y-65242221D01*
X135130000Y-65567779D02*
X135130000Y-65242221D01*
X136650000Y-65567779D02*
X136650000Y-65242221D01*
X137670000Y-65567779D02*
X137670000Y-65242221D01*
X158875000Y-83022221D02*
X158875000Y-83347779D01*
X159895000Y-83022221D02*
X159895000Y-83347779D01*
X158875000Y-86832221D02*
X158875000Y-87157779D01*
X159895000Y-86832221D02*
X159895000Y-87157779D01*
X170055000Y-83347779D02*
X170055000Y-83022221D01*
X169035000Y-83347779D02*
X169035000Y-83022221D01*
X142843800Y-86290000D02*
X142993800Y-86290000D01*
X142843800Y-83890000D02*
X142993800Y-83890000D01*
X145393800Y-83890000D02*
X145443800Y-83890000D01*
X146443800Y-83890000D02*
X146293800Y-83890000D01*
X146443800Y-86290000D02*
X146293800Y-86290000D01*
X146643800Y-84290000D02*
X146643800Y-83890000D01*
X146443800Y-84290000D02*
X146443800Y-83890000D01*
X142843800Y-84290000D02*
X142843800Y-83890000D01*
X146643800Y-86290000D02*
X146643800Y-84290000D01*
X145393800Y-83890000D02*
X145393800Y-83490000D01*
X146443800Y-84290000D02*
X146443800Y-86290000D01*
X142843800Y-86290000D02*
X142843800Y-84290000D01*
X134745000Y-76037221D02*
X134745000Y-76362779D01*
X135765000Y-76037221D02*
X135765000Y-76362779D01*
X130647221Y-78615000D02*
X130972779Y-78615000D01*
X130647221Y-77595000D02*
X130972779Y-77595000D01*
X130647221Y-81155000D02*
X130972779Y-81155000D01*
X130647221Y-80135000D02*
X130972779Y-80135000D01*
X142115000Y-85252779D02*
X142115000Y-84927221D01*
X141095000Y-85252779D02*
X141095000Y-84927221D01*
X151255000Y-83022221D02*
X151255000Y-83347779D01*
X152275000Y-83022221D02*
X152275000Y-83347779D01*
X118550000Y-84555000D02*
X118550000Y-76735000D01*
X127870000Y-78535000D02*
X128300000Y-78535000D01*
X118550000Y-84555000D02*
X120500000Y-84555000D01*
X122720000Y-84555000D02*
X125950000Y-84555000D01*
X127870000Y-82755000D02*
X127870000Y-83835000D01*
X127870000Y-77455000D02*
X127870000Y-78535000D01*
X122720000Y-76735000D02*
X125950000Y-76735000D01*
X118550000Y-76735000D02*
X120500000Y-76735000D01*
X132295000Y-74830000D02*
X130010000Y-74830000D01*
X132295000Y-76300000D02*
X132295000Y-74830000D01*
X130010000Y-76300000D02*
X132295000Y-76300000D01*
X151255000Y-86832221D02*
X151255000Y-87157779D01*
X152275000Y-86832221D02*
X152275000Y-87157779D01*
X134745000Y-79847221D02*
X134745000Y-80172779D01*
X135765000Y-79847221D02*
X135765000Y-80172779D01*
X138305000Y-80172779D02*
X138305000Y-79847221D01*
X137285000Y-80172779D02*
X137285000Y-79847221D01*
D11*
X144018095Y-77557380D02*
X144018095Y-78366904D01*
X144065714Y-78462142D01*
X144113333Y-78509761D01*
X144208571Y-78557380D01*
X144399047Y-78557380D01*
X144494285Y-78509761D01*
X144541904Y-78462142D01*
X144589523Y-78366904D01*
X144589523Y-77557380D01*
X145589523Y-78557380D02*
X145018095Y-78557380D01*
X145303809Y-78557380D02*
X145303809Y-77557380D01*
X145208571Y-77700238D01*
X145113333Y-77795476D01*
X145018095Y-77843095D01*
X163068095Y-69302380D02*
X163068095Y-70111904D01*
X163115714Y-70207142D01*
X163163333Y-70254761D01*
X163258571Y-70302380D01*
X163449047Y-70302380D01*
X163544285Y-70254761D01*
X163591904Y-70207142D01*
X163639523Y-70111904D01*
X163639523Y-69302380D01*
X164068095Y-69397619D02*
X164115714Y-69350000D01*
X164210952Y-69302380D01*
X164449047Y-69302380D01*
X164544285Y-69350000D01*
X164591904Y-69397619D01*
X164639523Y-69492857D01*
X164639523Y-69588095D01*
X164591904Y-69730952D01*
X164020476Y-70302380D01*
X164639523Y-70302380D01*
X148098095Y-82042380D02*
X148098095Y-82851904D01*
X148145714Y-82947142D01*
X148193333Y-82994761D01*
X148288571Y-83042380D01*
X148479047Y-83042380D01*
X148574285Y-82994761D01*
X148621904Y-82947142D01*
X148669523Y-82851904D01*
X148669523Y-82042380D01*
X149621904Y-82042380D02*
X149145714Y-82042380D01*
X149098095Y-82518571D01*
X149145714Y-82470952D01*
X149240952Y-82423333D01*
X149479047Y-82423333D01*
X149574285Y-82470952D01*
X149621904Y-82518571D01*
X149669523Y-82613809D01*
X149669523Y-82851904D01*
X149621904Y-82947142D01*
X149574285Y-82994761D01*
X149479047Y-83042380D01*
X149240952Y-83042380D01*
X149145714Y-82994761D01*
X149098095Y-82947142D01*
X163822142Y-113862142D02*
X163774523Y-113909761D01*
X163631666Y-113957380D01*
X163536428Y-113957380D01*
X163393571Y-113909761D01*
X163298333Y-113814523D01*
X163250714Y-113719285D01*
X163203095Y-113528809D01*
X163203095Y-113385952D01*
X163250714Y-113195476D01*
X163298333Y-113100238D01*
X163393571Y-113005000D01*
X163536428Y-112957380D01*
X163631666Y-112957380D01*
X163774523Y-113005000D01*
X163822142Y-113052619D01*
X164774523Y-113957380D02*
X164203095Y-113957380D01*
X164488809Y-113957380D02*
X164488809Y-112957380D01*
X164393571Y-113100238D01*
X164298333Y-113195476D01*
X164203095Y-113243095D01*
X165107857Y-112957380D02*
X165726904Y-112957380D01*
X165393571Y-113338333D01*
X165536428Y-113338333D01*
X165631666Y-113385952D01*
X165679285Y-113433571D01*
X165726904Y-113528809D01*
X165726904Y-113766904D01*
X165679285Y-113862142D01*
X165631666Y-113909761D01*
X165536428Y-113957380D01*
X165250714Y-113957380D01*
X165155476Y-113909761D01*
X165107857Y-113862142D01*
X170372142Y-113322380D02*
X170038809Y-112846190D01*
X169800714Y-113322380D02*
X169800714Y-112322380D01*
X170181666Y-112322380D01*
X170276904Y-112370000D01*
X170324523Y-112417619D01*
X170372142Y-112512857D01*
X170372142Y-112655714D01*
X170324523Y-112750952D01*
X170276904Y-112798571D01*
X170181666Y-112846190D01*
X169800714Y-112846190D01*
X170753095Y-112417619D02*
X170800714Y-112370000D01*
X170895952Y-112322380D01*
X171134047Y-112322380D01*
X171229285Y-112370000D01*
X171276904Y-112417619D01*
X171324523Y-112512857D01*
X171324523Y-112608095D01*
X171276904Y-112750952D01*
X170705476Y-113322380D01*
X171324523Y-113322380D01*
X171943571Y-112322380D02*
X172038809Y-112322380D01*
X172134047Y-112370000D01*
X172181666Y-112417619D01*
X172229285Y-112512857D01*
X172276904Y-112703333D01*
X172276904Y-112941428D01*
X172229285Y-113131904D01*
X172181666Y-113227142D01*
X172134047Y-113274761D01*
X172038809Y-113322380D01*
X171943571Y-113322380D01*
X171848333Y-113274761D01*
X171800714Y-113227142D01*
X171753095Y-113131904D01*
X171705476Y-112941428D01*
X171705476Y-112703333D01*
X171753095Y-112512857D01*
X171800714Y-112417619D01*
X171848333Y-112370000D01*
X171943571Y-112322380D01*
X147002380Y-89233333D02*
X147716666Y-89233333D01*
X147859523Y-89280952D01*
X147954761Y-89376190D01*
X148002380Y-89519047D01*
X148002380Y-89614285D01*
X147002380Y-88852380D02*
X147002380Y-88233333D01*
X147383333Y-88566666D01*
X147383333Y-88423809D01*
X147430952Y-88328571D01*
X147478571Y-88280952D01*
X147573809Y-88233333D01*
X147811904Y-88233333D01*
X147907142Y-88280952D01*
X147954761Y-88328571D01*
X148002380Y-88423809D01*
X148002380Y-88709523D01*
X147954761Y-88804761D01*
X147907142Y-88852380D01*
X134421571Y-88510952D02*
X134469190Y-88368095D01*
X134516809Y-88320476D01*
X134612047Y-88272857D01*
X134754904Y-88272857D01*
X134850142Y-88320476D01*
X134897761Y-88368095D01*
X134945380Y-88463333D01*
X134945380Y-88844285D01*
X133945380Y-88844285D01*
X133945380Y-88510952D01*
X133993000Y-88415714D01*
X134040619Y-88368095D01*
X134135857Y-88320476D01*
X134231095Y-88320476D01*
X134326333Y-88368095D01*
X134373952Y-88415714D01*
X134421571Y-88510952D01*
X134421571Y-88844285D01*
X133945380Y-87939523D02*
X133945380Y-87272857D01*
X134945380Y-87939523D01*
X134945380Y-87272857D01*
X134945380Y-86368095D02*
X134945380Y-86939523D01*
X134945380Y-86653809D02*
X133945380Y-86653809D01*
X134088238Y-86749047D01*
X134183476Y-86844285D01*
X134231095Y-86939523D01*
X163487380Y-83923095D02*
X162487380Y-83923095D01*
X162487380Y-83685000D01*
X162535000Y-83542142D01*
X162630238Y-83446904D01*
X162725476Y-83399285D01*
X162915952Y-83351666D01*
X163058809Y-83351666D01*
X163249285Y-83399285D01*
X163344523Y-83446904D01*
X163439761Y-83542142D01*
X163487380Y-83685000D01*
X163487380Y-83923095D01*
X162487380Y-82446904D02*
X162487380Y-82923095D01*
X162963571Y-82970714D01*
X162915952Y-82923095D01*
X162868333Y-82827857D01*
X162868333Y-82589761D01*
X162915952Y-82494523D01*
X162963571Y-82446904D01*
X163058809Y-82399285D01*
X163296904Y-82399285D01*
X163392142Y-82446904D01*
X163439761Y-82494523D01*
X163487380Y-82589761D01*
X163487380Y-82827857D01*
X163439761Y-82923095D01*
X163392142Y-82970714D01*
X156187380Y-87733095D02*
X155187380Y-87733095D01*
X155187380Y-87495000D01*
X155235000Y-87352142D01*
X155330238Y-87256904D01*
X155425476Y-87209285D01*
X155615952Y-87161666D01*
X155758809Y-87161666D01*
X155949285Y-87209285D01*
X156044523Y-87256904D01*
X156139761Y-87352142D01*
X156187380Y-87495000D01*
X156187380Y-87733095D01*
X155520714Y-86304523D02*
X156187380Y-86304523D01*
X155139761Y-86542619D02*
X155854047Y-86780714D01*
X155854047Y-86161666D01*
X156187380Y-83923095D02*
X155187380Y-83923095D01*
X155187380Y-83685000D01*
X155235000Y-83542142D01*
X155330238Y-83446904D01*
X155425476Y-83399285D01*
X155615952Y-83351666D01*
X155758809Y-83351666D01*
X155949285Y-83399285D01*
X156044523Y-83446904D01*
X156139761Y-83542142D01*
X156187380Y-83685000D01*
X156187380Y-83923095D01*
X155187380Y-83018333D02*
X155187380Y-82399285D01*
X155568333Y-82732619D01*
X155568333Y-82589761D01*
X155615952Y-82494523D01*
X155663571Y-82446904D01*
X155758809Y-82399285D01*
X155996904Y-82399285D01*
X156092142Y-82446904D01*
X156139761Y-82494523D01*
X156187380Y-82589761D01*
X156187380Y-82875476D01*
X156139761Y-82970714D01*
X156092142Y-83018333D01*
X136977380Y-76938095D02*
X135977380Y-76938095D01*
X135977380Y-76700000D01*
X136025000Y-76557142D01*
X136120238Y-76461904D01*
X136215476Y-76414285D01*
X136405952Y-76366666D01*
X136548809Y-76366666D01*
X136739285Y-76414285D01*
X136834523Y-76461904D01*
X136929761Y-76557142D01*
X136977380Y-76700000D01*
X136977380Y-76938095D01*
X136072619Y-75985714D02*
X136025000Y-75938095D01*
X135977380Y-75842857D01*
X135977380Y-75604761D01*
X136025000Y-75509523D01*
X136072619Y-75461904D01*
X136167857Y-75414285D01*
X136263095Y-75414285D01*
X136405952Y-75461904D01*
X136977380Y-76033333D01*
X136977380Y-75414285D01*
X151582380Y-66047857D02*
X151106190Y-66381190D01*
X151582380Y-66619285D02*
X150582380Y-66619285D01*
X150582380Y-66238333D01*
X150630000Y-66143095D01*
X150677619Y-66095476D01*
X150772857Y-66047857D01*
X150915714Y-66047857D01*
X151010952Y-66095476D01*
X151058571Y-66143095D01*
X151106190Y-66238333D01*
X151106190Y-66619285D01*
X151582380Y-65095476D02*
X151582380Y-65666904D01*
X151582380Y-65381190D02*
X150582380Y-65381190D01*
X150725238Y-65476428D01*
X150820476Y-65571666D01*
X150868095Y-65666904D01*
X150582380Y-64190714D02*
X150582380Y-64666904D01*
X151058571Y-64714523D01*
X151010952Y-64666904D01*
X150963333Y-64571666D01*
X150963333Y-64333571D01*
X151010952Y-64238333D01*
X151058571Y-64190714D01*
X151153809Y-64143095D01*
X151391904Y-64143095D01*
X151487142Y-64190714D01*
X151534761Y-64238333D01*
X151582380Y-64333571D01*
X151582380Y-64571666D01*
X151534761Y-64666904D01*
X151487142Y-64714523D01*
X155956095Y-98512380D02*
X155956095Y-99321904D01*
X156003714Y-99417142D01*
X156051333Y-99464761D01*
X156146571Y-99512380D01*
X156337047Y-99512380D01*
X156432285Y-99464761D01*
X156479904Y-99417142D01*
X156527523Y-99321904D01*
X156527523Y-98512380D01*
X157432285Y-98845714D02*
X157432285Y-99512380D01*
X157194190Y-98464761D02*
X156956095Y-99179047D01*
X157575142Y-99179047D01*
X134112095Y-98512380D02*
X134112095Y-99321904D01*
X134159714Y-99417142D01*
X134207333Y-99464761D01*
X134302571Y-99512380D01*
X134493047Y-99512380D01*
X134588285Y-99464761D01*
X134635904Y-99417142D01*
X134683523Y-99321904D01*
X134683523Y-98512380D01*
X135064476Y-98512380D02*
X135683523Y-98512380D01*
X135350190Y-98893333D01*
X135493047Y-98893333D01*
X135588285Y-98940952D01*
X135635904Y-98988571D01*
X135683523Y-99083809D01*
X135683523Y-99321904D01*
X135635904Y-99417142D01*
X135588285Y-99464761D01*
X135493047Y-99512380D01*
X135207333Y-99512380D01*
X135112095Y-99464761D01*
X135064476Y-99417142D01*
X150787380Y-92717857D02*
X150311190Y-93051190D01*
X150787380Y-93289285D02*
X149787380Y-93289285D01*
X149787380Y-92908333D01*
X149835000Y-92813095D01*
X149882619Y-92765476D01*
X149977857Y-92717857D01*
X150120714Y-92717857D01*
X150215952Y-92765476D01*
X150263571Y-92813095D01*
X150311190Y-92908333D01*
X150311190Y-93289285D01*
X150787380Y-91765476D02*
X150787380Y-92336904D01*
X150787380Y-92051190D02*
X149787380Y-92051190D01*
X149930238Y-92146428D01*
X150025476Y-92241666D01*
X150073095Y-92336904D01*
X149787380Y-91432142D02*
X149787380Y-90765476D01*
X150787380Y-91194047D01*
X140627380Y-92717857D02*
X140151190Y-93051190D01*
X140627380Y-93289285D02*
X139627380Y-93289285D01*
X139627380Y-92908333D01*
X139675000Y-92813095D01*
X139722619Y-92765476D01*
X139817857Y-92717857D01*
X139960714Y-92717857D01*
X140055952Y-92765476D01*
X140103571Y-92813095D01*
X140151190Y-92908333D01*
X140151190Y-93289285D01*
X140627380Y-91765476D02*
X140627380Y-92336904D01*
X140627380Y-92051190D02*
X139627380Y-92051190D01*
X139770238Y-92146428D01*
X139865476Y-92241666D01*
X139913095Y-92336904D01*
X139627380Y-90908333D02*
X139627380Y-91098809D01*
X139675000Y-91194047D01*
X139722619Y-91241666D01*
X139865476Y-91336904D01*
X140055952Y-91384523D01*
X140436904Y-91384523D01*
X140532142Y-91336904D01*
X140579761Y-91289285D01*
X140627380Y-91194047D01*
X140627380Y-91003571D01*
X140579761Y-90908333D01*
X140532142Y-90860714D01*
X140436904Y-90813095D01*
X140198809Y-90813095D01*
X140103571Y-90860714D01*
X140055952Y-90908333D01*
X140008333Y-91003571D01*
X140008333Y-91194047D01*
X140055952Y-91289285D01*
X140103571Y-91336904D01*
X140198809Y-91384523D01*
X121586666Y-93432380D02*
X121586666Y-94146666D01*
X121539047Y-94289523D01*
X121443809Y-94384761D01*
X121300952Y-94432380D01*
X121205714Y-94432380D01*
X122015238Y-93527619D02*
X122062857Y-93480000D01*
X122158095Y-93432380D01*
X122396190Y-93432380D01*
X122491428Y-93480000D01*
X122539047Y-93527619D01*
X122586666Y-93622857D01*
X122586666Y-93718095D01*
X122539047Y-93860952D01*
X121967619Y-94432380D01*
X122586666Y-94432380D01*
X153392142Y-92880636D02*
X153439761Y-92928255D01*
X153487380Y-93071112D01*
X153487380Y-93166350D01*
X153439761Y-93309207D01*
X153344523Y-93404445D01*
X153249285Y-93452064D01*
X153058809Y-93499683D01*
X152915952Y-93499683D01*
X152725476Y-93452064D01*
X152630238Y-93404445D01*
X152535000Y-93309207D01*
X152487380Y-93166350D01*
X152487380Y-93071112D01*
X152535000Y-92928255D01*
X152582619Y-92880636D01*
X153487380Y-91928255D02*
X153487380Y-92499683D01*
X153487380Y-92213969D02*
X152487380Y-92213969D01*
X152630238Y-92309207D01*
X152725476Y-92404445D01*
X152773095Y-92499683D01*
X152582619Y-91547302D02*
X152535000Y-91499683D01*
X152487380Y-91404445D01*
X152487380Y-91166350D01*
X152535000Y-91071112D01*
X152582619Y-91023493D01*
X152677857Y-90975874D01*
X152773095Y-90975874D01*
X152915952Y-91023493D01*
X153487380Y-91594921D01*
X153487380Y-90975874D01*
X148122142Y-92717857D02*
X148169761Y-92765476D01*
X148217380Y-92908333D01*
X148217380Y-93003571D01*
X148169761Y-93146428D01*
X148074523Y-93241666D01*
X147979285Y-93289285D01*
X147788809Y-93336904D01*
X147645952Y-93336904D01*
X147455476Y-93289285D01*
X147360238Y-93241666D01*
X147265000Y-93146428D01*
X147217380Y-93003571D01*
X147217380Y-92908333D01*
X147265000Y-92765476D01*
X147312619Y-92717857D01*
X148217380Y-91765476D02*
X148217380Y-92336904D01*
X148217380Y-92051190D02*
X147217380Y-92051190D01*
X147360238Y-92146428D01*
X147455476Y-92241666D01*
X147503095Y-92336904D01*
X148217380Y-90813095D02*
X148217380Y-91384523D01*
X148217380Y-91098809D02*
X147217380Y-91098809D01*
X147360238Y-91194047D01*
X147455476Y-91289285D01*
X147503095Y-91384523D01*
X145612142Y-92717857D02*
X145659761Y-92765476D01*
X145707380Y-92908333D01*
X145707380Y-93003571D01*
X145659761Y-93146428D01*
X145564523Y-93241666D01*
X145469285Y-93289285D01*
X145278809Y-93336904D01*
X145135952Y-93336904D01*
X144945476Y-93289285D01*
X144850238Y-93241666D01*
X144755000Y-93146428D01*
X144707380Y-93003571D01*
X144707380Y-92908333D01*
X144755000Y-92765476D01*
X144802619Y-92717857D01*
X145707380Y-91765476D02*
X145707380Y-92336904D01*
X145707380Y-92051190D02*
X144707380Y-92051190D01*
X144850238Y-92146428D01*
X144945476Y-92241666D01*
X144993095Y-92336904D01*
X144707380Y-91146428D02*
X144707380Y-91051190D01*
X144755000Y-90955952D01*
X144802619Y-90908333D01*
X144897857Y-90860714D01*
X145088333Y-90813095D01*
X145326428Y-90813095D01*
X145516904Y-90860714D01*
X145612142Y-90908333D01*
X145659761Y-90955952D01*
X145707380Y-91051190D01*
X145707380Y-91146428D01*
X145659761Y-91241666D01*
X145612142Y-91289285D01*
X145516904Y-91336904D01*
X145326428Y-91384523D01*
X145088333Y-91384523D01*
X144897857Y-91336904D01*
X144802619Y-91289285D01*
X144755000Y-91241666D01*
X144707380Y-91146428D01*
X165932142Y-83351666D02*
X165979761Y-83399285D01*
X166027380Y-83542142D01*
X166027380Y-83637380D01*
X165979761Y-83780238D01*
X165884523Y-83875476D01*
X165789285Y-83923095D01*
X165598809Y-83970714D01*
X165455952Y-83970714D01*
X165265476Y-83923095D01*
X165170238Y-83875476D01*
X165075000Y-83780238D01*
X165027380Y-83637380D01*
X165027380Y-83542142D01*
X165075000Y-83399285D01*
X165122619Y-83351666D01*
X166027380Y-82875476D02*
X166027380Y-82685000D01*
X165979761Y-82589761D01*
X165932142Y-82542142D01*
X165789285Y-82446904D01*
X165598809Y-82399285D01*
X165217857Y-82399285D01*
X165122619Y-82446904D01*
X165075000Y-82494523D01*
X165027380Y-82589761D01*
X165027380Y-82780238D01*
X165075000Y-82875476D01*
X165122619Y-82923095D01*
X165217857Y-82970714D01*
X165455952Y-82970714D01*
X165551190Y-82923095D01*
X165598809Y-82875476D01*
X165646428Y-82780238D01*
X165646428Y-82589761D01*
X165598809Y-82494523D01*
X165551190Y-82446904D01*
X165455952Y-82399285D01*
X158632142Y-87161666D02*
X158679761Y-87209285D01*
X158727380Y-87352142D01*
X158727380Y-87447380D01*
X158679761Y-87590238D01*
X158584523Y-87685476D01*
X158489285Y-87733095D01*
X158298809Y-87780714D01*
X158155952Y-87780714D01*
X157965476Y-87733095D01*
X157870238Y-87685476D01*
X157775000Y-87590238D01*
X157727380Y-87447380D01*
X157727380Y-87352142D01*
X157775000Y-87209285D01*
X157822619Y-87161666D01*
X158155952Y-86590238D02*
X158108333Y-86685476D01*
X158060714Y-86733095D01*
X157965476Y-86780714D01*
X157917857Y-86780714D01*
X157822619Y-86733095D01*
X157775000Y-86685476D01*
X157727380Y-86590238D01*
X157727380Y-86399761D01*
X157775000Y-86304523D01*
X157822619Y-86256904D01*
X157917857Y-86209285D01*
X157965476Y-86209285D01*
X158060714Y-86256904D01*
X158108333Y-86304523D01*
X158155952Y-86399761D01*
X158155952Y-86590238D01*
X158203571Y-86685476D01*
X158251190Y-86733095D01*
X158346428Y-86780714D01*
X158536904Y-86780714D01*
X158632142Y-86733095D01*
X158679761Y-86685476D01*
X158727380Y-86590238D01*
X158727380Y-86399761D01*
X158679761Y-86304523D01*
X158632142Y-86256904D01*
X158536904Y-86209285D01*
X158346428Y-86209285D01*
X158251190Y-86256904D01*
X158203571Y-86304523D01*
X158155952Y-86399761D01*
X158632142Y-83351666D02*
X158679761Y-83399285D01*
X158727380Y-83542142D01*
X158727380Y-83637380D01*
X158679761Y-83780238D01*
X158584523Y-83875476D01*
X158489285Y-83923095D01*
X158298809Y-83970714D01*
X158155952Y-83970714D01*
X157965476Y-83923095D01*
X157870238Y-83875476D01*
X157775000Y-83780238D01*
X157727380Y-83637380D01*
X157727380Y-83542142D01*
X157775000Y-83399285D01*
X157822619Y-83351666D01*
X157727380Y-83018333D02*
X157727380Y-82351666D01*
X158727380Y-82780238D01*
X143232142Y-92404445D02*
X143279761Y-92452064D01*
X143327380Y-92594921D01*
X143327380Y-92690159D01*
X143279761Y-92833017D01*
X143184523Y-92928255D01*
X143089285Y-92975874D01*
X142898809Y-93023493D01*
X142755952Y-93023493D01*
X142565476Y-92975874D01*
X142470238Y-92928255D01*
X142375000Y-92833017D01*
X142327380Y-92690159D01*
X142327380Y-92594921D01*
X142375000Y-92452064D01*
X142422619Y-92404445D01*
X142327380Y-91547302D02*
X142327380Y-91737779D01*
X142375000Y-91833017D01*
X142422619Y-91880636D01*
X142565476Y-91975874D01*
X142755952Y-92023493D01*
X143136904Y-92023493D01*
X143232142Y-91975874D01*
X143279761Y-91928255D01*
X143327380Y-91833017D01*
X143327380Y-91642540D01*
X143279761Y-91547302D01*
X143232142Y-91499683D01*
X143136904Y-91452064D01*
X142898809Y-91452064D01*
X142803571Y-91499683D01*
X142755952Y-91547302D01*
X142708333Y-91642540D01*
X142708333Y-91833017D01*
X142755952Y-91928255D01*
X142803571Y-91975874D01*
X142898809Y-92023493D01*
X169378333Y-93542142D02*
X169330714Y-93589761D01*
X169187857Y-93637380D01*
X169092619Y-93637380D01*
X168949761Y-93589761D01*
X168854523Y-93494523D01*
X168806904Y-93399285D01*
X168759285Y-93208809D01*
X168759285Y-93065952D01*
X168806904Y-92875476D01*
X168854523Y-92780238D01*
X168949761Y-92685000D01*
X169092619Y-92637380D01*
X169187857Y-92637380D01*
X169330714Y-92685000D01*
X169378333Y-92732619D01*
X170283095Y-92637380D02*
X169806904Y-92637380D01*
X169759285Y-93113571D01*
X169806904Y-93065952D01*
X169902142Y-93018333D01*
X170140238Y-93018333D01*
X170235476Y-93065952D01*
X170283095Y-93113571D01*
X170330714Y-93208809D01*
X170330714Y-93446904D01*
X170283095Y-93542142D01*
X170235476Y-93589761D01*
X170140238Y-93637380D01*
X169902142Y-93637380D01*
X169806904Y-93589761D01*
X169759285Y-93542142D01*
X169378333Y-96082142D02*
X169330714Y-96129761D01*
X169187857Y-96177380D01*
X169092619Y-96177380D01*
X168949761Y-96129761D01*
X168854523Y-96034523D01*
X168806904Y-95939285D01*
X168759285Y-95748809D01*
X168759285Y-95605952D01*
X168806904Y-95415476D01*
X168854523Y-95320238D01*
X168949761Y-95225000D01*
X169092619Y-95177380D01*
X169187857Y-95177380D01*
X169330714Y-95225000D01*
X169378333Y-95272619D01*
X170235476Y-95510714D02*
X170235476Y-96177380D01*
X169997380Y-95129761D02*
X169759285Y-95844047D01*
X170378333Y-95844047D01*
X153606666Y-77874761D02*
X153749523Y-77922380D01*
X153987619Y-77922380D01*
X154082857Y-77874761D01*
X154130476Y-77827142D01*
X154178095Y-77731904D01*
X154178095Y-77636666D01*
X154130476Y-77541428D01*
X154082857Y-77493809D01*
X153987619Y-77446190D01*
X153797142Y-77398571D01*
X153701904Y-77350952D01*
X153654285Y-77303333D01*
X153606666Y-77208095D01*
X153606666Y-77112857D01*
X153654285Y-77017619D01*
X153701904Y-76970000D01*
X153797142Y-76922380D01*
X154035238Y-76922380D01*
X154178095Y-76970000D01*
X154511428Y-76922380D02*
X154749523Y-77922380D01*
X154940000Y-77208095D01*
X155130476Y-77922380D01*
X155368571Y-76922380D01*
X155654285Y-76922380D02*
X156273333Y-76922380D01*
X155940000Y-77303333D01*
X156082857Y-77303333D01*
X156178095Y-77350952D01*
X156225714Y-77398571D01*
X156273333Y-77493809D01*
X156273333Y-77731904D01*
X156225714Y-77827142D01*
X156178095Y-77874761D01*
X156082857Y-77922380D01*
X155797142Y-77922380D01*
X155701904Y-77874761D01*
X155654285Y-77827142D01*
X165036666Y-89304761D02*
X165179523Y-89352380D01*
X165417619Y-89352380D01*
X165512857Y-89304761D01*
X165560476Y-89257142D01*
X165608095Y-89161904D01*
X165608095Y-89066666D01*
X165560476Y-88971428D01*
X165512857Y-88923809D01*
X165417619Y-88876190D01*
X165227142Y-88828571D01*
X165131904Y-88780952D01*
X165084285Y-88733333D01*
X165036666Y-88638095D01*
X165036666Y-88542857D01*
X165084285Y-88447619D01*
X165131904Y-88400000D01*
X165227142Y-88352380D01*
X165465238Y-88352380D01*
X165608095Y-88400000D01*
X165941428Y-88352380D02*
X166179523Y-89352380D01*
X166370000Y-88638095D01*
X166560476Y-89352380D01*
X166798571Y-88352380D01*
X167131904Y-88447619D02*
X167179523Y-88400000D01*
X167274761Y-88352380D01*
X167512857Y-88352380D01*
X167608095Y-88400000D01*
X167655714Y-88447619D01*
X167703333Y-88542857D01*
X167703333Y-88638095D01*
X167655714Y-88780952D01*
X167084285Y-89352380D01*
X167703333Y-89352380D01*
X165036666Y-77874761D02*
X165179523Y-77922380D01*
X165417619Y-77922380D01*
X165512857Y-77874761D01*
X165560476Y-77827142D01*
X165608095Y-77731904D01*
X165608095Y-77636666D01*
X165560476Y-77541428D01*
X165512857Y-77493809D01*
X165417619Y-77446190D01*
X165227142Y-77398571D01*
X165131904Y-77350952D01*
X165084285Y-77303333D01*
X165036666Y-77208095D01*
X165036666Y-77112857D01*
X165084285Y-77017619D01*
X165131904Y-76970000D01*
X165227142Y-76922380D01*
X165465238Y-76922380D01*
X165608095Y-76970000D01*
X165941428Y-76922380D02*
X166179523Y-77922380D01*
X166370000Y-77208095D01*
X166560476Y-77922380D01*
X166798571Y-76922380D01*
X167703333Y-77922380D02*
X167131904Y-77922380D01*
X167417619Y-77922380D02*
X167417619Y-76922380D01*
X167322380Y-77065238D01*
X167227142Y-77160476D01*
X167131904Y-77208095D01*
X138722380Y-66047857D02*
X138246190Y-66381190D01*
X138722380Y-66619285D02*
X137722380Y-66619285D01*
X137722380Y-66238333D01*
X137770000Y-66143095D01*
X137817619Y-66095476D01*
X137912857Y-66047857D01*
X138055714Y-66047857D01*
X138150952Y-66095476D01*
X138198571Y-66143095D01*
X138246190Y-66238333D01*
X138246190Y-66619285D01*
X138722380Y-65095476D02*
X138722380Y-65666904D01*
X138722380Y-65381190D02*
X137722380Y-65381190D01*
X137865238Y-65476428D01*
X137960476Y-65571666D01*
X138008095Y-65666904D01*
X138055714Y-64238333D02*
X138722380Y-64238333D01*
X137674761Y-64476428D02*
X138389047Y-64714523D01*
X138389047Y-64095476D01*
X148882380Y-66047857D02*
X148406190Y-66381190D01*
X148882380Y-66619285D02*
X147882380Y-66619285D01*
X147882380Y-66238333D01*
X147930000Y-66143095D01*
X147977619Y-66095476D01*
X148072857Y-66047857D01*
X148215714Y-66047857D01*
X148310952Y-66095476D01*
X148358571Y-66143095D01*
X148406190Y-66238333D01*
X148406190Y-66619285D01*
X148882380Y-65095476D02*
X148882380Y-65666904D01*
X148882380Y-65381190D02*
X147882380Y-65381190D01*
X148025238Y-65476428D01*
X148120476Y-65571666D01*
X148168095Y-65666904D01*
X147882380Y-64762142D02*
X147882380Y-64143095D01*
X148263333Y-64476428D01*
X148263333Y-64333571D01*
X148310952Y-64238333D01*
X148358571Y-64190714D01*
X148453809Y-64143095D01*
X148691904Y-64143095D01*
X148787142Y-64190714D01*
X148834761Y-64238333D01*
X148882380Y-64333571D01*
X148882380Y-64619285D01*
X148834761Y-64714523D01*
X148787142Y-64762142D01*
X146502380Y-66047857D02*
X146026190Y-66381190D01*
X146502380Y-66619285D02*
X145502380Y-66619285D01*
X145502380Y-66238333D01*
X145550000Y-66143095D01*
X145597619Y-66095476D01*
X145692857Y-66047857D01*
X145835714Y-66047857D01*
X145930952Y-66095476D01*
X145978571Y-66143095D01*
X146026190Y-66238333D01*
X146026190Y-66619285D01*
X146502380Y-65095476D02*
X146502380Y-65666904D01*
X146502380Y-65381190D02*
X145502380Y-65381190D01*
X145645238Y-65476428D01*
X145740476Y-65571666D01*
X145788095Y-65666904D01*
X145597619Y-64714523D02*
X145550000Y-64666904D01*
X145502380Y-64571666D01*
X145502380Y-64333571D01*
X145550000Y-64238333D01*
X145597619Y-64190714D01*
X145692857Y-64143095D01*
X145788095Y-64143095D01*
X145930952Y-64190714D01*
X146502380Y-64762142D01*
X146502380Y-64143095D01*
X141422380Y-66047857D02*
X140946190Y-66381190D01*
X141422380Y-66619285D02*
X140422380Y-66619285D01*
X140422380Y-66238333D01*
X140470000Y-66143095D01*
X140517619Y-66095476D01*
X140612857Y-66047857D01*
X140755714Y-66047857D01*
X140850952Y-66095476D01*
X140898571Y-66143095D01*
X140946190Y-66238333D01*
X140946190Y-66619285D01*
X141422380Y-65095476D02*
X141422380Y-65666904D01*
X141422380Y-65381190D02*
X140422380Y-65381190D01*
X140565238Y-65476428D01*
X140660476Y-65571666D01*
X140708095Y-65666904D01*
X141422380Y-64143095D02*
X141422380Y-64714523D01*
X141422380Y-64428809D02*
X140422380Y-64428809D01*
X140565238Y-64524047D01*
X140660476Y-64619285D01*
X140708095Y-64714523D01*
X143802380Y-66047857D02*
X143326190Y-66381190D01*
X143802380Y-66619285D02*
X142802380Y-66619285D01*
X142802380Y-66238333D01*
X142850000Y-66143095D01*
X142897619Y-66095476D01*
X142992857Y-66047857D01*
X143135714Y-66047857D01*
X143230952Y-66095476D01*
X143278571Y-66143095D01*
X143326190Y-66238333D01*
X143326190Y-66619285D01*
X143802380Y-65095476D02*
X143802380Y-65666904D01*
X143802380Y-65381190D02*
X142802380Y-65381190D01*
X142945238Y-65476428D01*
X143040476Y-65571666D01*
X143088095Y-65666904D01*
X142802380Y-64476428D02*
X142802380Y-64381190D01*
X142850000Y-64285952D01*
X142897619Y-64238333D01*
X142992857Y-64190714D01*
X143183333Y-64143095D01*
X143421428Y-64143095D01*
X143611904Y-64190714D01*
X143707142Y-64238333D01*
X143754761Y-64285952D01*
X143802380Y-64381190D01*
X143802380Y-64476428D01*
X143754761Y-64571666D01*
X143707142Y-64619285D01*
X143611904Y-64666904D01*
X143421428Y-64714523D01*
X143183333Y-64714523D01*
X142992857Y-64666904D01*
X142897619Y-64619285D01*
X142850000Y-64571666D01*
X142802380Y-64476428D01*
X133642380Y-65571666D02*
X133166190Y-65905000D01*
X133642380Y-66143095D02*
X132642380Y-66143095D01*
X132642380Y-65762142D01*
X132690000Y-65666904D01*
X132737619Y-65619285D01*
X132832857Y-65571666D01*
X132975714Y-65571666D01*
X133070952Y-65619285D01*
X133118571Y-65666904D01*
X133166190Y-65762142D01*
X133166190Y-66143095D01*
X133642380Y-65095476D02*
X133642380Y-64905000D01*
X133594761Y-64809761D01*
X133547142Y-64762142D01*
X133404285Y-64666904D01*
X133213809Y-64619285D01*
X132832857Y-64619285D01*
X132737619Y-64666904D01*
X132690000Y-64714523D01*
X132642380Y-64809761D01*
X132642380Y-65000238D01*
X132690000Y-65095476D01*
X132737619Y-65143095D01*
X132832857Y-65190714D01*
X133070952Y-65190714D01*
X133166190Y-65143095D01*
X133213809Y-65095476D01*
X133261428Y-65000238D01*
X133261428Y-64809761D01*
X133213809Y-64714523D01*
X133166190Y-64666904D01*
X133070952Y-64619285D01*
X136182380Y-65571666D02*
X135706190Y-65905000D01*
X136182380Y-66143095D02*
X135182380Y-66143095D01*
X135182380Y-65762142D01*
X135230000Y-65666904D01*
X135277619Y-65619285D01*
X135372857Y-65571666D01*
X135515714Y-65571666D01*
X135610952Y-65619285D01*
X135658571Y-65666904D01*
X135706190Y-65762142D01*
X135706190Y-66143095D01*
X135610952Y-65000238D02*
X135563333Y-65095476D01*
X135515714Y-65143095D01*
X135420476Y-65190714D01*
X135372857Y-65190714D01*
X135277619Y-65143095D01*
X135230000Y-65095476D01*
X135182380Y-65000238D01*
X135182380Y-64809761D01*
X135230000Y-64714523D01*
X135277619Y-64666904D01*
X135372857Y-64619285D01*
X135420476Y-64619285D01*
X135515714Y-64666904D01*
X135563333Y-64714523D01*
X135610952Y-64809761D01*
X135610952Y-65000238D01*
X135658571Y-65095476D01*
X135706190Y-65143095D01*
X135801428Y-65190714D01*
X135991904Y-65190714D01*
X136087142Y-65143095D01*
X136134761Y-65095476D01*
X136182380Y-65000238D01*
X136182380Y-64809761D01*
X136134761Y-64714523D01*
X136087142Y-64666904D01*
X135991904Y-64619285D01*
X135801428Y-64619285D01*
X135706190Y-64666904D01*
X135658571Y-64714523D01*
X135610952Y-64809761D01*
X161267380Y-83351666D02*
X160791190Y-83685000D01*
X161267380Y-83923095D02*
X160267380Y-83923095D01*
X160267380Y-83542142D01*
X160315000Y-83446904D01*
X160362619Y-83399285D01*
X160457857Y-83351666D01*
X160600714Y-83351666D01*
X160695952Y-83399285D01*
X160743571Y-83446904D01*
X160791190Y-83542142D01*
X160791190Y-83923095D01*
X160267380Y-83018333D02*
X160267380Y-82351666D01*
X161267380Y-82780238D01*
X161267380Y-87161666D02*
X160791190Y-87495000D01*
X161267380Y-87733095D02*
X160267380Y-87733095D01*
X160267380Y-87352142D01*
X160315000Y-87256904D01*
X160362619Y-87209285D01*
X160457857Y-87161666D01*
X160600714Y-87161666D01*
X160695952Y-87209285D01*
X160743571Y-87256904D01*
X160791190Y-87352142D01*
X160791190Y-87733095D01*
X160267380Y-86304523D02*
X160267380Y-86495000D01*
X160315000Y-86590238D01*
X160362619Y-86637857D01*
X160505476Y-86733095D01*
X160695952Y-86780714D01*
X161076904Y-86780714D01*
X161172142Y-86733095D01*
X161219761Y-86685476D01*
X161267380Y-86590238D01*
X161267380Y-86399761D01*
X161219761Y-86304523D01*
X161172142Y-86256904D01*
X161076904Y-86209285D01*
X160838809Y-86209285D01*
X160743571Y-86256904D01*
X160695952Y-86304523D01*
X160648333Y-86399761D01*
X160648333Y-86590238D01*
X160695952Y-86685476D01*
X160743571Y-86733095D01*
X160838809Y-86780714D01*
X168567380Y-83351666D02*
X168091190Y-83685000D01*
X168567380Y-83923095D02*
X167567380Y-83923095D01*
X167567380Y-83542142D01*
X167615000Y-83446904D01*
X167662619Y-83399285D01*
X167757857Y-83351666D01*
X167900714Y-83351666D01*
X167995952Y-83399285D01*
X168043571Y-83446904D01*
X168091190Y-83542142D01*
X168091190Y-83923095D01*
X167567380Y-82446904D02*
X167567380Y-82923095D01*
X168043571Y-82970714D01*
X167995952Y-82923095D01*
X167948333Y-82827857D01*
X167948333Y-82589761D01*
X167995952Y-82494523D01*
X168043571Y-82446904D01*
X168138809Y-82399285D01*
X168376904Y-82399285D01*
X168472142Y-82446904D01*
X168519761Y-82494523D01*
X168567380Y-82589761D01*
X168567380Y-82827857D01*
X168519761Y-82923095D01*
X168472142Y-82970714D01*
X144167609Y-87516190D02*
X144167609Y-87992380D01*
X143834276Y-86992380D02*
X144167609Y-87516190D01*
X144500942Y-86992380D01*
X145358085Y-87992380D02*
X144786657Y-87992380D01*
X145072371Y-87992380D02*
X145072371Y-86992380D01*
X144977133Y-87135238D01*
X144881895Y-87230476D01*
X144786657Y-87278095D01*
X134437380Y-76366666D02*
X133961190Y-76700000D01*
X134437380Y-76938095D02*
X133437380Y-76938095D01*
X133437380Y-76557142D01*
X133485000Y-76461904D01*
X133532619Y-76414285D01*
X133627857Y-76366666D01*
X133770714Y-76366666D01*
X133865952Y-76414285D01*
X133913571Y-76461904D01*
X133961190Y-76557142D01*
X133961190Y-76938095D01*
X133770714Y-75509523D02*
X134437380Y-75509523D01*
X133389761Y-75747619D02*
X134104047Y-75985714D01*
X134104047Y-75366666D01*
X130643333Y-77127380D02*
X130310000Y-76651190D01*
X130071904Y-77127380D02*
X130071904Y-76127380D01*
X130452857Y-76127380D01*
X130548095Y-76175000D01*
X130595714Y-76222619D01*
X130643333Y-76317857D01*
X130643333Y-76460714D01*
X130595714Y-76555952D01*
X130548095Y-76603571D01*
X130452857Y-76651190D01*
X130071904Y-76651190D01*
X130976666Y-76127380D02*
X131595714Y-76127380D01*
X131262380Y-76508333D01*
X131405238Y-76508333D01*
X131500476Y-76555952D01*
X131548095Y-76603571D01*
X131595714Y-76698809D01*
X131595714Y-76936904D01*
X131548095Y-77032142D01*
X131500476Y-77079761D01*
X131405238Y-77127380D01*
X131119523Y-77127380D01*
X131024285Y-77079761D01*
X130976666Y-77032142D01*
X130643333Y-79667380D02*
X130310000Y-79191190D01*
X130071904Y-79667380D02*
X130071904Y-78667380D01*
X130452857Y-78667380D01*
X130548095Y-78715000D01*
X130595714Y-78762619D01*
X130643333Y-78857857D01*
X130643333Y-79000714D01*
X130595714Y-79095952D01*
X130548095Y-79143571D01*
X130452857Y-79191190D01*
X130071904Y-79191190D01*
X131024285Y-78762619D02*
X131071904Y-78715000D01*
X131167142Y-78667380D01*
X131405238Y-78667380D01*
X131500476Y-78715000D01*
X131548095Y-78762619D01*
X131595714Y-78857857D01*
X131595714Y-78953095D01*
X131548095Y-79095952D01*
X130976666Y-79667380D01*
X131595714Y-79667380D01*
X140627380Y-85256666D02*
X140151190Y-85590000D01*
X140627380Y-85828095D02*
X139627380Y-85828095D01*
X139627380Y-85447142D01*
X139675000Y-85351904D01*
X139722619Y-85304285D01*
X139817857Y-85256666D01*
X139960714Y-85256666D01*
X140055952Y-85304285D01*
X140103571Y-85351904D01*
X140151190Y-85447142D01*
X140151190Y-85828095D01*
X140627380Y-84304285D02*
X140627380Y-84875714D01*
X140627380Y-84590000D02*
X139627380Y-84590000D01*
X139770238Y-84685238D01*
X139865476Y-84780476D01*
X139913095Y-84875714D01*
X153647380Y-83351666D02*
X153647380Y-83827857D01*
X152647380Y-83827857D01*
X153647380Y-82494523D02*
X153647380Y-83065952D01*
X153647380Y-82780238D02*
X152647380Y-82780238D01*
X152790238Y-82875476D01*
X152885476Y-82970714D01*
X152933095Y-83065952D01*
X123912380Y-80978333D02*
X124626666Y-80978333D01*
X124769523Y-81025952D01*
X124864761Y-81121190D01*
X124912380Y-81264047D01*
X124912380Y-81359285D01*
X124912380Y-79978333D02*
X124912380Y-80549761D01*
X124912380Y-80264047D02*
X123912380Y-80264047D01*
X124055238Y-80359285D01*
X124150476Y-80454523D01*
X124198095Y-80549761D01*
X130071904Y-74747380D02*
X130071904Y-73747380D01*
X130310000Y-73747380D01*
X130452857Y-73795000D01*
X130548095Y-73890238D01*
X130595714Y-73985476D01*
X130643333Y-74175952D01*
X130643333Y-74318809D01*
X130595714Y-74509285D01*
X130548095Y-74604523D01*
X130452857Y-74699761D01*
X130310000Y-74747380D01*
X130071904Y-74747380D01*
X131595714Y-74747380D02*
X131024285Y-74747380D01*
X131310000Y-74747380D02*
X131310000Y-73747380D01*
X131214761Y-73890238D01*
X131119523Y-73985476D01*
X131024285Y-74033095D01*
X153552142Y-87161666D02*
X153599761Y-87209285D01*
X153647380Y-87352142D01*
X153647380Y-87447380D01*
X153599761Y-87590238D01*
X153504523Y-87685476D01*
X153409285Y-87733095D01*
X153218809Y-87780714D01*
X153075952Y-87780714D01*
X152885476Y-87733095D01*
X152790238Y-87685476D01*
X152695000Y-87590238D01*
X152647380Y-87447380D01*
X152647380Y-87352142D01*
X152695000Y-87209285D01*
X152742619Y-87161666D01*
X152647380Y-86828333D02*
X152647380Y-86209285D01*
X153028333Y-86542619D01*
X153028333Y-86399761D01*
X153075952Y-86304523D01*
X153123571Y-86256904D01*
X153218809Y-86209285D01*
X153456904Y-86209285D01*
X153552142Y-86256904D01*
X153599761Y-86304523D01*
X153647380Y-86399761D01*
X153647380Y-86685476D01*
X153599761Y-86780714D01*
X153552142Y-86828333D01*
X134342142Y-80176666D02*
X134389761Y-80224285D01*
X134437380Y-80367142D01*
X134437380Y-80462380D01*
X134389761Y-80605238D01*
X134294523Y-80700476D01*
X134199285Y-80748095D01*
X134008809Y-80795714D01*
X133865952Y-80795714D01*
X133675476Y-80748095D01*
X133580238Y-80700476D01*
X133485000Y-80605238D01*
X133437380Y-80462380D01*
X133437380Y-80367142D01*
X133485000Y-80224285D01*
X133532619Y-80176666D01*
X133532619Y-79795714D02*
X133485000Y-79748095D01*
X133437380Y-79652857D01*
X133437380Y-79414761D01*
X133485000Y-79319523D01*
X133532619Y-79271904D01*
X133627857Y-79224285D01*
X133723095Y-79224285D01*
X133865952Y-79271904D01*
X134437380Y-79843333D01*
X134437380Y-79224285D01*
X136722142Y-80176666D02*
X136769761Y-80224285D01*
X136817380Y-80367142D01*
X136817380Y-80462380D01*
X136769761Y-80605238D01*
X136674523Y-80700476D01*
X136579285Y-80748095D01*
X136388809Y-80795714D01*
X136245952Y-80795714D01*
X136055476Y-80748095D01*
X135960238Y-80700476D01*
X135865000Y-80605238D01*
X135817380Y-80462380D01*
X135817380Y-80367142D01*
X135865000Y-80224285D01*
X135912619Y-80176666D01*
X136817380Y-79224285D02*
X136817380Y-79795714D01*
X136817380Y-79510000D02*
X135817380Y-79510000D01*
X135960238Y-79605238D01*
X136055476Y-79700476D01*
X136103095Y-79795714D01*
M02*
