M48
; DRILL file {KiCad 5.99.0-unknown-r17607-a0698723} date Mon Apr 13 08:25:34 2020
; FORMAT={-:-/ absolute / inch / decimal}
; #@! TF.CreationDate,2020-04-13T08:25:34-05:00
; #@! TF.GenerationSoftware,Kicad,Pcbnew,5.99.0-unknown-r17607-a0698723
; #@! TF.FileFunction,Plated,1,2,PTH
FMAT,2
INCH
T1C0.0250
T2C0.0300
T3C0.0315
T4C0.0394
T5C0.1350
%
G90
G05
T1
X4.8Y-3.5
X4.8Y-3.6
X4.9Y-3.5
X4.9Y-3.6
X5.0Y-3.5
X5.0Y-3.6
T2
X5.4Y-2.375
X5.4Y-2.775
X5.5Y-2.375
X5.5Y-2.775
X5.6Y-2.375
X5.6Y-2.775
X5.7Y-2.375
X5.7Y-2.775
X5.8Y-2.375
X5.8Y-2.775
X5.9Y-2.375
X5.9Y-2.775
X6.0Y-2.375
X6.0Y-2.775
X6.1Y-2.375
X6.1Y-2.775
T3
X5.9Y-3.75
X5.9Y-3.85
X5.9Y-3.95
X5.9Y-4.05
X6.45Y-3.75
X6.45Y-3.85
X6.45Y-3.95
X6.45Y-4.05
X5.05Y-3.75
X5.05Y-3.85
X5.05Y-3.95
X5.05Y-4.05
X5.6Y-3.75
X5.6Y-3.85
X5.6Y-3.95
X5.6Y-4.05
T4
X5.6Y-3.5
X5.7Y-3.5
T5
X4.825Y-2.55
X4.825Y-3.95
X6.675Y-2.55
X6.675Y-3.95
T0
M30
